<svg version="1.1" id="Layer_1" xmlns="http://www.w3.org/2000/svg" xmlns:xlink="http://www.w3.org/1999/xlink" x="0px" y="0px"
	 width="100%" viewBox="0 0 259 194" enable-background="new 0 0 259 194" xml:space="preserve">
<path fill="#FFFFFF" opacity="1.000000" stroke="none" 
	d="
M98.000000,195.000000 
	C65.697777,195.000000 33.395546,195.000000 1.046661,195.000000 
	C1.046661,130.426682 1.046661,65.853325 1.046661,1.000000 
	C55.353909,1.000000 109.708298,1.000000 164.323608,1.308783 
	C143.607147,6.088871 127.052040,27.389221 130.748932,45.695217 
	C139.777985,46.282616 147.462738,42.978786 154.195297,37.191902 
	C165.247482,27.692137 169.765396,15.262686 170.000000,1.000000 
	C199.964874,1.000000 229.929749,1.000000 259.947327,1.000000 
	C259.947327,65.555801 259.947327,130.111664 259.947327,195.000000 
	C230.313263,195.000000 200.625290,195.000000 170.653488,194.690659 
	C175.164444,191.538864 180.642746,189.428528 184.622437,185.713028 
	C195.401642,175.649368 201.551285,162.458038 207.538437,149.215927 
	C209.371841,145.160873 209.222290,143.168503 204.952179,140.670151 
	C181.736374,127.087112 176.479126,97.239517 193.508286,76.492195 
	C196.512741,72.831757 200.442581,69.930847 204.243210,66.402390 
	C203.275970,65.160088 202.357346,63.810482 201.271896,62.611961 
	C188.337296,48.329792 168.024826,43.176998 149.200577,51.220547 
	C137.197021,56.349628 126.485680,57.056469 114.529716,51.509026 
	C104.277649,46.752178 93.265762,46.816486 82.576942,51.503998 
	C68.329338,57.752193 59.613228,68.895035 55.120850,83.326080 
	C48.163349,105.675941 51.712643,127.496040 60.351814,148.569672 
	C68.193802,167.698730 78.105751,185.486496 98.000000,195.000000 
z"/>
<path fill="#999999" opacity="1.000000" stroke="none" 
	d="
M98.444168,195.000000 
	C78.105751,185.486496 68.193802,167.698730 60.351814,148.569672 
	C51.712643,127.496040 48.163349,105.675941 55.120850,83.326080 
	C59.613228,68.895035 68.329338,57.752193 82.576942,51.503998 
	C93.265762,46.816486 104.277649,46.752178 114.529716,51.509026 
	C126.485680,57.056469 137.197021,56.349628 149.200577,51.220547 
	C168.024826,43.176998 188.337296,48.329792 201.271896,62.611961 
	C202.357346,63.810482 203.275970,65.160088 204.243210,66.402390 
	C200.442581,69.930847 196.512741,72.831757 193.508286,76.492195 
	C176.479126,97.239517 181.736374,127.087112 204.952179,140.670151 
	C209.222290,143.168503 209.371841,145.160873 207.538437,149.215927 
	C201.551285,162.458038 195.401642,175.649368 184.622437,185.713028 
	C180.642746,189.428528 175.164444,191.538864 170.184830,194.690659 
	C167.629440,195.000000 165.258896,195.000000 162.251175,194.690567 
	C157.225021,192.887939 152.787537,191.522141 148.457733,189.873489 
	C140.797409,186.956650 132.999252,185.922485 125.086113,188.352295 
	C118.650452,190.328415 112.356689,192.766678 106.000000,195.000000 
	C103.629440,195.000000 101.258888,195.000000 98.444168,195.000000 
z"/>
<path fill="#9A9A9A" opacity="1.000000" stroke="none" 
	d="
M169.583344,1.000000 
	C169.765396,15.262686 165.247482,27.692137 154.195297,37.191902 
	C147.462738,42.978786 139.777985,46.282616 130.748932,45.695217 
	C127.052040,27.389221 143.607147,6.088871 164.792267,1.308783 
	C166.388885,1.000000 167.777786,1.000000 169.583344,1.000000 
z"/>
<path fill="#FCFCFC" opacity="1.000000" stroke="none" 
	d="
M106.468658,195.000000 
	C112.356689,192.766678 118.650452,190.328415 125.086113,188.352295 
	C132.999252,185.922485 140.797409,186.956650 148.457733,189.873489 
	C152.787537,191.522141 157.225021,192.887939 161.807007,194.690567 
	C143.645767,195.000000 125.291542,195.000000 106.468658,195.000000 
z"/>
</svg>