<svg version="1.1" id="Layer_1" xmlns="http://www.w3.org/2000/svg" xmlns:xlink="http://www.w3.org/1999/xlink" x="0px" y="0px"
	 width="100%" viewBox="0 0 156 129" enable-background="new 0 0 156 129" xml:space="preserve">
<path fill="#FEFDFD" opacity="1.000000" stroke="none" 
	d="
M1.000000,97.000000 
	C1.000000,65.024712 1.000000,33.049427 1.000000,1.037070 
	C52.935101,1.037070 104.870239,1.037070 156.902679,1.037070 
	C156.902679,43.901722 156.902679,86.803734 156.902679,129.852875 
	C105.000298,129.852875 53.000206,129.852875 1.000000,129.852875 
	C1.000000,120.255852 1.000000,110.596581 1.357757,100.411133 
	C3.326511,101.012848 5.021120,102.038971 6.536240,103.283585 
	C41.759609,132.218475 95.812225,136.349091 134.896805,112.896034 
	C137.291245,111.459236 138.907394,108.725395 140.885666,106.595039 
	C138.130066,106.884529 135.178223,106.630707 132.648148,107.544579 
	C91.190598,122.519310 50.708286,120.116463 11.056337,101.134811 
	C7.792403,99.572342 4.356173,98.369789 1.000000,97.000000 
M113.988144,25.502985 
	C113.988144,25.502985 113.841927,25.045061 113.945747,24.272800 
	C111.443123,19.525644 109.802330,13.960973 106.246742,10.212626 
	C100.085007,3.716829 91.228027,2.571771 82.671799,2.142152 
	C78.555496,1.935467 74.379410,3.441145 70.217361,3.525116 
	C57.951290,3.772590 44.807732,14.660540 42.951439,26.406084 
	C42.516354,29.159037 43.137280,30.934662 46.319138,31.217522 
	C50.961105,31.630177 55.583172,32.541145 60.219959,32.585339 
	C61.795177,32.600349 64.438278,30.908928 64.799011,29.528399 
	C66.685280,22.309622 73.329697,18.761723 81.782852,20.103012 
	C87.734344,21.047354 90.070099,25.369078 90.317802,33.938747 
	C90.432724,37.914589 88.911072,39.619850 85.053596,39.960022 
	C78.170898,40.566975 71.198837,40.872753 64.462479,42.264462 
	C53.635353,44.501312 45.268803,50.316750 41.532524,61.313122 
	C36.119576,77.244179 42.903545,92.804924 57.322903,96.340889 
	C68.823479,99.161095 79.824051,97.631454 89.211830,89.543358 
	C90.673462,88.284073 92.152504,87.044991 93.472374,85.924828 
	C96.504295,89.240768 99.033173,92.607735 102.205132,95.182404 
	C103.490105,96.225410 106.766510,96.404053 108.117340,95.482224 
	C112.359436,92.587357 116.083321,88.941391 120.075676,85.668991 
	C122.297295,83.848007 121.679039,82.178062 120.443474,80.045067 
	C118.169708,76.119789 116.224533,72.004173 114.229469,67.038033 
	C114.137764,54.030823 114.046066,41.023613 114.128784,27.340006 
	C114.052261,26.885132 113.975731,26.430258 113.988144,25.502985 
M136.803772,100.257401 
	C148.046127,100.023422 149.303391,101.694130 145.677597,112.132759 
	C144.916824,114.323006 143.961334,116.448311 143.264801,118.656906 
	C142.974792,119.576439 143.127869,120.635712 143.069946,121.827240 
	C150.143097,119.359802 155.522491,105.030777 154.587784,98.631569 
	C154.385956,97.249817 152.227570,95.507401 150.657562,95.079788 
	C142.241333,92.787521 134.516815,95.515755 127.011665,99.062569 
	C126.614700,99.250168 126.533615,100.106178 126.057076,101.244316 
	C129.702972,100.920227 132.812347,100.643822 136.803772,100.257401 
z"/>
<path fill="#F7A720" opacity="1.000000" stroke="none" 
	d="
M1.000000,97.375000 
	C4.356173,98.369789 7.792403,99.572342 11.056337,101.134811 
	C50.708286,120.116463 91.190598,122.519310 132.648148,107.544579 
	C135.178223,106.630707 138.130066,106.884529 140.885666,106.595039 
	C138.907394,108.725395 137.291245,111.459236 134.896805,112.896034 
	C95.812225,136.349091 41.759609,132.218475 6.536240,103.283585 
	C5.021120,102.038971 3.326511,101.012848 1.357757,99.942474 
	C1.000000,99.250000 1.000000,98.500000 1.000000,97.375000 
z"/>
<path fill="#242021" opacity="1.000000" stroke="none" 
	d="
M114.142418,67.967888 
	C116.224533,72.004173 118.169708,76.119789 120.443474,80.045067 
	C121.679039,82.178062 122.297295,83.848007 120.075676,85.668991 
	C116.083321,88.941391 112.359436,92.587357 108.117340,95.482224 
	C106.766510,96.404053 103.490105,96.225410 102.205132,95.182404 
	C99.033173,92.607735 96.504295,89.240768 93.472374,85.924828 
	C92.152504,87.044991 90.673462,88.284073 89.211830,89.543358 
	C79.824051,97.631454 68.823479,99.161095 57.322903,96.340889 
	C42.903545,92.804924 36.119576,77.244179 41.532524,61.313122 
	C45.268803,50.316750 53.635353,44.501312 64.462479,42.264462 
	C71.198837,40.872753 78.170898,40.566975 85.053596,39.960022 
	C88.911072,39.619850 90.432724,37.914589 90.317802,33.938747 
	C90.070099,25.369078 87.734344,21.047354 81.782852,20.103012 
	C73.329697,18.761723 66.685280,22.309622 64.799011,29.528399 
	C64.438278,30.908928 61.795177,32.600349 60.219959,32.585339 
	C55.583172,32.541145 50.961105,31.630177 46.319138,31.217522 
	C43.137280,30.934662 42.516354,29.159037 42.951439,26.406084 
	C44.807732,14.660540 57.951290,3.772590 70.217361,3.525116 
	C74.379410,3.441145 78.555496,1.935467 82.671799,2.142152 
	C91.228027,2.571771 100.085007,3.716829 106.246742,10.212626 
	C109.802330,13.960973 111.443123,19.525644 113.739265,24.748333 
	C113.654922,25.474373 113.777061,25.724880 113.899200,25.975386 
	C113.975731,26.430258 114.052261,26.885132 113.742889,27.968563 
	C113.244408,41.032883 113.113708,53.468582 113.067940,65.904594 
	C113.065407,66.591034 113.768021,67.280060 114.142418,67.967888 
M69.600708,57.074944 
	C64.944191,61.171822 64.341492,66.537018 65.190712,72.166832 
	C65.894257,76.830910 72.511200,82.860016 75.776527,81.653961 
	C80.921455,79.753647 86.237053,77.218246 87.781235,71.452957 
	C89.450760,65.219673 90.031738,58.694836 91.134743,52.010956 
	C82.700142,51.732895 76.040176,52.465405 69.600708,57.074944 
z"/>
<path fill="#F7A825" opacity="1.000000" stroke="none" 
	d="
M136.362747,100.312408 
	C132.812347,100.643822 129.702972,100.920227 126.057076,101.244316 
	C126.533615,100.106178 126.614700,99.250168 127.011665,99.062569 
	C134.516815,95.515755 142.241333,92.787521 150.657562,95.079788 
	C152.227570,95.507401 154.385956,97.249817 154.587784,98.631569 
	C155.522491,105.030777 150.143097,119.359802 143.069946,121.827240 
	C143.127869,120.635712 142.974792,119.576439 143.264801,118.656906 
	C143.961334,116.448311 144.916824,114.323006 145.677597,112.132759 
	C149.303391,101.694130 148.046127,100.023422 136.362747,100.312408 
z"/>
<path fill="#000000" opacity="1.000000" stroke="none" 
	d="
M114.185944,67.502960 
	C113.768021,67.280060 113.065407,66.591034 113.067940,65.904594 
	C113.113708,53.468582 113.244408,41.032883 113.655685,28.306763 
	C114.046066,41.023613 114.137764,54.030823 114.185944,67.502960 
z"/>
<path fill="#000000" opacity="1.000000" stroke="none" 
	d="
M113.943672,25.739185 
	C113.777061,25.724880 113.654922,25.474373 113.687355,25.134464 
	C113.841927,25.045061 113.988144,25.502985 113.943672,25.739185 
z"/>
<path fill="#FAFAFA" opacity="1.000000" stroke="none" 
	d="
M69.882774,56.833839 
	C76.040176,52.465405 82.700142,51.732895 91.134743,52.010956 
	C90.031738,58.694836 89.450760,65.219673 87.781235,71.452957 
	C86.237053,77.218246 80.921455,79.753647 75.776527,81.653961 
	C72.511200,82.860016 65.894257,76.830910 65.190712,72.166832 
	C64.341492,66.537018 64.944191,61.171822 69.882774,56.833839 
z"/>
</svg>