<svg version="1.1" id="Layer_1" xmlns="http://www.w3.org/2000/svg" xmlns:xlink="http://www.w3.org/1999/xlink" x="0px" y="0px"
	 width="100%" viewBox="0 0 242 208" enable-background="new 0 0 242 208" xml:space="preserve">
<path fill="#FEFEFE" opacity="1.000000" stroke="none" 
	d="
M182.000000,209.000000 
	C140.979111,209.000000 99.958214,209.000000 58.581680,208.656876 
	C58.505424,207.711380 58.810043,207.119324 59.060577,206.505188 
	C80.142990,154.825180 101.241676,103.151772 122.287857,51.457008 
	C128.984329,35.008781 135.540436,18.503414 142.357971,1.909639 
	C142.739273,1.550100 142.887558,1.285072 143.000000,1.000000 
	C176.285782,1.000000 209.571548,1.000000 243.000000,1.000000 
	C243.000000,69.687500 243.000000,138.375092 242.771667,207.531891 
	C242.543350,208.001114 242.087204,207.979233 242.074707,207.603699 
	C213.756683,141.045380 185.451141,74.862579 156.829666,7.941082 
	C147.303802,30.690292 138.178345,52.335278 129.251694,74.061943 
	C128.476471,75.948792 128.292053,78.668861 129.044189,80.506165 
	C146.594894,123.378883 164.312866,166.183121 182.000000,209.000000 
z"/>
<path fill="#FFB71B" opacity="1.000000" stroke="none" 
	d="
M142.160767,2.024193 
	C135.540436,18.503414 128.984329,35.008781 122.287857,51.457008 
	C101.241676,103.151772 80.142990,154.825180 59.060577,206.505188 
	C58.810043,207.119324 58.505424,207.711380 58.113022,208.656876 
	C58.000000,209.000000 57.500000,209.000000 56.957851,208.700867 
	C54.615334,208.268036 52.815292,208.023209 51.014549,208.017944 
	C34.616802,207.969955 18.218935,207.963745 1.842426,207.567749 
	C21.379404,159.340607 40.866138,111.479187 60.424248,63.646954 
	C68.845291,43.052055 77.414207,22.517620 86.390381,1.960190 
	C105.296791,1.984506 123.728783,2.004349 142.160767,2.024193 
z"/>
<path fill="#010101" opacity="1.000000" stroke="none" 
	d="
M182.250000,209.000000 
	C164.312866,166.183121 146.594894,123.378883 129.044189,80.506165 
	C128.292053,78.668861 128.476471,75.948792 129.251694,74.061943 
	C138.178345,52.335278 147.303802,30.690292 156.829666,7.941082 
	C185.451141,74.862579 213.756683,141.045380 241.600632,207.616852 
	C223.481323,208.005447 205.823517,207.977951 188.166077,208.048767 
	C186.442810,208.055664 184.721970,208.668457 183.000000,209.000000 
	C183.000000,209.000000 182.500000,209.000000 182.250000,209.000000 
z"/>
<path fill="#FFFFFE" opacity="1.000000" stroke="none" 
	d="
M85.915955,1.955716 
	C77.414207,22.517620 68.845291,43.052055 60.424248,63.646954 
	C40.866138,111.479187 21.379404,159.340607 1.634387,207.539459 
	C1.405025,207.888733 1.000000,208.000000 1.000000,208.000000 
	C1.000000,139.103500 1.000000,70.207001 1.000000,1.000000 
	C29.020130,1.000000 57.041405,1.000000 85.489960,1.237137 
	C85.917236,1.474274 85.915947,1.955714 85.915955,1.955716 
z"/>
<path fill="#2B2B2B" opacity="1.000000" stroke="none" 
	d="
M183.468658,209.000000 
	C184.721970,208.668457 186.442810,208.055664 188.166077,208.048767 
	C205.823517,207.977951 223.481323,208.005447 241.613129,207.992371 
	C242.087204,207.979233 242.543350,208.001114 242.771667,208.000549 
	C241.844177,208.333313 240.689301,208.953354 239.532394,208.957153 
	C221.000854,209.017899 202.469055,209.000000 183.468658,209.000000 
z"/>
<path fill="#FFC14A" opacity="1.000000" stroke="none" 
	d="
M86.390381,1.960189 
	C85.915947,1.955714 85.917236,1.474274 85.958618,1.237137 
	C104.687561,1.000000 123.375122,1.000000 142.531342,1.000000 
	C142.887558,1.285072 142.739273,1.550100 142.357971,1.909639 
	C123.728783,2.004349 105.296791,1.984506 86.390381,1.960189 
z"/>
<path fill="#FFBD39" opacity="1.000000" stroke="none" 
	d="
M1.000000,208.500000 
	C1.000000,208.000000 1.405025,207.888733 1.613065,207.917023 
	C18.218935,207.963745 34.616802,207.969955 51.014549,208.017944 
	C52.815292,208.023209 54.615334,208.268036 56.707851,208.700867 
	C38.333332,209.000000 19.666666,209.000000 1.000000,208.500000 
z"/>
</svg>