<svg version="1.1" id="Layer_1" xmlns="http://www.w3.org/2000/svg" xmlns:xlink="http://www.w3.org/1999/xlink" x="0px" y="0px"
	 width="100%" viewBox="0 0 304 166" enable-background="new 0 0 304 166" xml:space="preserve">
<path fill="#FEFDFE" opacity="1.000000" stroke="none" 
	d="
M224.000000,167.000000 
	C219.310745,167.000000 214.621490,167.000000 209.421204,166.691437 
	C208.830902,166.190735 208.751648,165.998566 208.715942,165.379288 
	C209.064362,162.801743 208.608536,161.496384 205.956284,161.652939 
	C202.686859,161.845901 199.397400,161.699051 195.646149,161.699051 
	C195.646149,154.497757 195.646149,147.772461 195.646149,140.929840 
	C193.562332,140.929840 191.961136,140.929840 190.118256,140.929840 
	C190.118256,149.365356 190.118256,157.639481 190.049377,166.180923 
	C189.987000,166.632156 189.993500,166.816086 190.000000,167.000000 
	C184.311966,167.000000 178.623917,167.000000 172.608978,166.680511 
	C179.367874,163.426788 182.635864,158.022766 181.408463,151.269455 
	C180.247299,144.880661 175.327667,140.565720 168.646088,140.075745 
	C162.195007,139.602676 156.364120,143.762329 154.478119,150.182907 
	C152.658417,156.377731 155.412354,162.309738 161.744705,165.903503 
	C162.218094,166.172165 162.584076,166.630066 163.000000,167.000000 
	C156.978851,167.000000 150.957703,167.000000 144.688950,166.623886 
	C144.859161,157.913589 145.276978,149.579422 145.707016,141.001724 
	C143.363205,141.001724 141.823013,141.001724 139.744019,141.001724 
	C139.744019,146.063995 139.744019,150.894806 139.744019,156.650177 
	C136.068558,151.815308 132.892975,147.956039 130.090042,143.842834 
	C128.109314,140.936203 125.856163,139.960693 122.462921,141.298309 
	C122.462921,149.491806 122.462921,157.638397 122.332291,166.083054 
	C122.134453,166.587418 122.067230,166.793716 122.000000,167.000000 
	C118.638710,167.000000 115.277428,167.000000 111.606293,166.598694 
	C111.296440,157.849411 111.296440,149.501434 111.296440,141.096680 
	C109.957176,141.096680 108.241112,141.096680 106.226471,141.096680 
	C106.226471,144.536972 106.226471,147.626175 106.226471,150.639862 
	C102.535683,150.639862 99.158127,150.639862 95.438187,150.639862 
	C95.438187,147.217056 95.438187,144.129028 95.438187,140.956665 
	C93.489365,140.956665 91.894363,140.956665 90.000000,140.956665 
	C90.000000,149.778702 90.000000,158.389343 90.000000,167.000000 
	C85.643097,167.000000 81.286201,167.000000 76.563431,166.653961 
	C78.066620,165.183884 79.935684,164.059830 82.124649,162.743393 
	C80.528297,161.142563 79.496101,160.107468 78.489136,159.097672 
	C72.352333,162.780151 69.018730,162.843903 65.896713,159.412216 
	C63.335075,156.596497 63.114357,151.449570 65.423248,148.371246 
	C68.205048,144.662399 71.869087,144.504425 78.398705,147.933060 
	C79.362770,146.721069 80.352905,145.476318 81.331345,144.246277 
	C76.118240,139.608414 70.374939,138.835876 64.751450,141.839142 
	C59.859524,144.451675 57.263103,149.702682 57.972408,155.634888 
	C58.645786,161.266663 62.413128,164.464493 67.000000,167.000000 
	C61.645069,167.000000 56.290142,167.000000 50.547329,166.747849 
	C50.103977,166.328354 50.048504,166.160995 50.059998,165.541046 
	C50.371826,163.022858 50.133492,161.597687 47.375248,161.768692 
	C43.757427,161.992996 40.115204,161.823715 36.302299,161.823715 
	C36.302299,159.704987 36.302299,158.002151 36.302299,155.962250 
	C40.342159,155.962250 44.122940,155.962250 48.049301,155.962250 
	C48.049301,154.214584 48.049301,152.808090 48.049301,150.904419 
	C43.992756,150.904419 40.085072,150.904419 35.941357,150.904419 
	C36.076874,148.824738 36.178116,147.271103 36.295002,145.477356 
	C41.056530,145.477356 45.351528,145.477356 49.766815,145.477356 
	C49.766815,143.808609 49.766815,142.417572 49.766815,141.042084 
	C43.246544,141.042084 37.000168,141.042084 30.843412,141.042084 
	C30.843412,149.626740 30.843412,157.916946 30.731773,166.435135 
	C30.746756,166.775436 30.873377,166.887726 31.000000,167.000000 
	C25.977907,167.000000 20.955816,167.000000 15.367687,166.690491 
	C14.716945,166.181564 14.632239,165.982132 14.610232,165.332428 
	C14.672932,158.630737 14.672932,152.379318 14.672932,145.811295 
	C17.537088,145.811295 19.805410,145.811295 22.252537,145.811295 
	C22.252537,143.969208 22.252537,142.461761 22.252537,141.000000 
	C14.925583,141.000000 7.962791,141.000000 1.000000,141.000000 
	C1.000000,133.979050 1.000000,126.958107 1.267436,119.480377 
	C1.707667,118.978981 1.880461,118.934349 2.516556,118.934250 
	C15.768129,118.981346 28.556767,119.047127 41.344604,118.973701 
	C70.453461,118.806587 93.904121,100.227554 100.912369,71.509399 
	C100.735863,70.417061 100.446945,69.179352 100.184166,69.184875 
	C92.346474,69.349632 84.511375,69.637489 76.430077,70.152771 
	C72.723122,75.792374 70.193230,82.258850 65.548668,86.287125 
	C60.529041,90.640694 53.710995,94.827919 47.364769,95.360191 
	C32.729717,96.587654 17.905382,95.558289 2.814983,95.304611 
	C1.981418,95.109810 1.490709,95.054909 1.000000,95.000000 
	C1.000000,71.645775 1.000000,48.291542 1.153319,24.660400 
	C1.306639,24.383488 1.756706,24.187201 2.078525,24.241886 
	C2.612086,24.246330 2.823828,24.196091 3.490112,24.262444 
	C17.597164,24.365255 31.249674,24.351479 45.131786,24.467621 
	C45.536900,24.586229 45.712414,24.574915 46.230301,24.711441 
	C62.064209,26.762886 71.271278,36.153217 76.761124,50.376057 
	C77.239265,50.720684 77.605156,50.794888 78.436874,50.938862 
	C85.938507,50.962521 92.974335,50.916412 100.372025,50.839455 
	C100.767349,49.888817 100.800797,48.969032 100.845688,47.671669 
	C94.868637,26.947208 83.269371,11.756530 62.251892,5.165273 
	C58.137188,3.874867 54.082413,2.393364 50.000000,0.999999 
	C63.354229,1.000000 76.708458,1.000000 90.621552,1.325725 
	C106.562744,21.042171 121.945076,40.432896 137.433914,59.957878 
	C121.858849,79.600441 106.519272,98.946014 90.627380,118.988152 
	C100.326279,118.988152 109.091202,119.179634 117.836273,118.847839 
	C119.913322,118.769035 122.491203,117.425003 123.865005,115.826248 
	C129.282730,109.521393 134.305298,102.877426 139.488892,96.370773 
	C143.887695,90.849213 148.306351,85.343468 152.921295,79.574379 
	C162.822235,92.058830 172.300018,104.057899 181.860443,115.990776 
	C182.824097,117.193565 184.266617,118.821487 185.522049,118.853020 
	C195.069992,119.092896 204.626678,118.984367 215.104034,118.984367 
	C199.117065,98.821251 183.767990,79.462662 168.334137,59.997139 
	C184.067429,40.106369 199.533722,20.553185 215.000000,1.000000 
	C228.020889,1.000000 241.041794,1.000000 254.390869,1.341384 
	C229.100830,6.859527 212.107101,21.455496 205.074951,47.347641 
	C205.312286,48.724564 205.652756,49.797527 206.457642,50.940346 
	C213.954788,50.965878 220.987503,50.921555 228.296570,50.901577 
	C228.730911,50.623543 228.888931,50.321167 229.017944,50.021057 
	C228.988968,50.023327 229.021851,50.071289 229.151718,49.948395 
	C229.422531,49.624233 229.492233,49.400761 229.711594,48.840744 
	C233.053116,39.936760 238.230957,32.858143 246.553253,28.930393 
	C251.389130,26.648069 256.867828,25.727770 262.306030,24.267601 
	C262.717072,24.281122 262.879364,24.221642 263.497009,24.272913 
	C276.955963,24.315237 289.959595,24.246811 303.260223,24.249168 
	C303.746246,24.244253 303.935211,24.168558 304.352783,24.160557 
	C304.581390,24.228249 305.000000,24.000000 305.000000,24.000000 
	C305.000000,47.354229 305.000000,70.708458 304.628601,94.580383 
	C303.774628,95.189491 303.292053,95.280899 302.354706,95.354782 
	C290.289520,95.333519 278.669891,95.034500 267.070709,95.393753 
	C248.673706,95.963554 236.341873,87.692558 229.464005,70.648689 
	C229.365494,70.236725 229.222366,70.053856 228.997772,69.953339 
	C228.986572,69.980759 229.045441,69.974365 228.846939,69.582748 
	C220.698898,69.191139 212.749359,69.191139 204.497879,69.191139 
	C204.782532,70.713295 204.990036,71.822868 205.195831,73.304703 
	C213.169022,99.347343 230.111786,115.244980 257.025665,118.118744 
	C272.502655,119.771332 288.270111,118.703690 304.178802,118.905579 
	C304.633881,118.967072 304.816925,118.983536 305.000000,119.000000 
	C305.000000,126.020950 305.000000,133.041901 304.845276,140.499420 
	C304.690552,140.935989 304.375458,140.911896 303.936981,140.825317 
	C295.649078,139.037262 296.156708,147.576157 291.962402,150.372726 
	C285.007050,140.487686 285.007050,140.487686 279.502441,141.244431 
	C284.926849,149.152573 291.191803,156.634796 289.000000,167.000000 
	C282.312347,167.000000 275.624725,167.000000 268.504059,166.630188 
	C274.747223,163.495880 275.507202,161.434784 273.382355,152.112625 
	C269.898163,152.112625 266.452972,152.112625 262.798309,152.112625 
	C262.900909,153.653488 262.985229,154.919510 263.080872,156.355835 
	C264.913971,156.507675 266.518585,156.640594 269.882294,156.919220 
	C267.927917,159.154388 267.012573,161.181442 265.600769,161.623657 
	C262.023499,162.744141 257.994049,162.066864 256.637360,158.408295 
	C255.576752,155.548111 255.652725,151.546173 256.852753,148.750961 
	C258.341217,145.284012 262.081757,144.427032 265.851807,145.937256 
	C267.157166,146.460159 268.411316,147.111038 269.794342,147.752365 
	C270.889252,146.235931 271.850098,144.905182 272.816742,143.566406 
	C262.455688,136.729385 250.894531,140.880814 249.237930,151.988892 
	C248.167618,159.165741 252.376053,163.570511 258.000000,167.000000 
	C249.979095,167.000000 241.958191,167.000000 233.477814,166.641296 
	C240.871277,162.630249 243.962357,155.856613 241.085785,148.604111 
	C238.407257,141.850967 231.276291,138.640503 223.927536,140.879211 
	C216.795776,143.051819 213.126389,149.811798 214.927246,157.341461 
	C216.116699,162.314804 219.983871,164.713211 224.000000,167.000000 
z"/>
<path fill="#5F249F" opacity="1.000000" stroke="none" 
	d="
M214.531342,1.000000 
	C199.533722,20.553185 184.067429,40.106369 168.334137,59.997139 
	C183.767990,79.462662 199.117065,98.821251 215.104034,118.984367 
	C204.626678,118.984367 195.069992,119.092896 185.522049,118.853020 
	C184.266617,118.821487 182.824097,117.193565 181.860443,115.990776 
	C172.300018,104.057899 162.822235,92.058830 152.921295,79.574379 
	C148.306351,85.343468 143.887695,90.849213 139.488892,96.370773 
	C134.305298,102.877426 129.282730,109.521393 123.865005,115.826248 
	C122.491203,117.425003 119.913322,118.769035 117.836273,118.847839 
	C109.091202,119.179634 100.326279,118.988152 90.627380,118.988152 
	C106.519272,98.946014 121.858849,79.600441 137.433914,59.957878 
	C121.945076,40.432896 106.562744,21.042171 91.090210,1.325725 
	C101.020897,1.000000 111.041786,1.000000 121.615433,1.328168 
	C132.331528,14.444422 142.494888,27.232508 152.954193,40.392979 
	C163.532608,26.970379 173.766312,13.985190 184.000000,1.000001 
	C194.020889,1.000000 204.041794,1.000000 214.531342,1.000000 
z"/>
<path fill="#5F259F" opacity="1.000000" stroke="none" 
	d="
M302.963196,24.178389 
	C289.959595,24.246811 276.955963,24.315237 263.404053,24.088089 
	C262.589600,23.926540 262.323425,24.060564 262.057251,24.194592 
	C256.867828,25.727770 251.389130,26.648069 246.553253,28.930393 
	C238.230957,32.858143 233.053116,39.936760 229.618271,48.983929 
	C229.192627,49.643620 229.098557,49.853565 229.021851,50.071289 
	C229.021851,50.071289 228.988968,50.023327 228.798950,50.100632 
	C228.321457,50.334206 228.125229,50.567307 228.020233,50.877235 
	C220.987503,50.921555 213.954788,50.965878 206.464386,50.596577 
	C205.730515,49.136528 205.454315,48.090107 205.178101,47.043682 
	C212.107101,21.455496 229.100830,6.859527 254.859528,1.341384 
	C270.687561,1.000000 286.375122,1.000000 302.622986,1.205456 
	C303.350800,1.674882 303.582581,1.857108 303.942017,2.425062 
	C303.980621,9.603258 303.955841,16.313984 303.704041,23.153290 
	C303.305756,23.580709 303.134491,23.879549 302.963196,24.178389 
z"/>
<path fill="#5F249F" opacity="1.000000" stroke="none" 
	d="
M76.648872,50.105637 
	C71.271278,36.153217 62.064209,26.762886 46.193317,24.474323 
	C45.510029,24.172142 45.206108,24.254921 44.902184,24.337700 
	C31.249674,24.351479 17.597164,24.365255 3.372189,24.006470 
	C2.505556,23.407309 2.211388,23.180710 1.887056,22.489128 
	C1.904594,15.016095 1.952297,8.008048 2.000000,1.000000 
	C17.687561,1.000000 33.375122,1.000000 49.531342,0.999999 
	C54.082413,2.393364 58.137188,3.874867 62.251892,5.165273 
	C83.269371,11.756530 94.868637,26.947208 100.613434,47.874706 
	C100.249870,49.260311 100.130013,50.065304 100.010155,50.870300 
	C92.974335,50.916412 85.938507,50.962521 78.276672,50.725121 
	C77.316734,50.329617 76.982803,50.217628 76.648872,50.105637 
z"/>
<path fill="#FEFDFE" opacity="1.000000" stroke="none" 
	d="
M183.531342,1.000001 
	C173.766312,13.985190 163.532608,26.970379 152.954193,40.392979 
	C142.494888,27.232508 132.331528,14.444422 122.084091,1.328168 
	C142.354233,1.000000 162.708450,1.000000 183.531342,1.000001 
z"/>
<path fill="#090909" opacity="1.000000" stroke="none" 
	d="
M224.449982,167.000000 
	C219.983871,164.713211 216.116699,162.314804 214.927246,157.341461 
	C213.126389,149.811798 216.795776,143.051819 223.927536,140.879211 
	C231.276291,138.640503 238.407257,141.850967 241.085785,148.604111 
	C243.962357,155.856613 240.871277,162.630249 233.009186,166.641296 
	C230.299988,167.000000 227.599976,167.000000 224.449982,167.000000 
M221.871246,158.532959 
	C222.563293,159.235992 223.155304,160.094223 223.964340,160.615784 
	C227.935883,163.176147 232.760620,161.970673 235.064606,157.925751 
	C237.479218,153.686615 235.819199,148.106400 231.534363,146.058685 
	C227.184937,143.980072 222.222519,145.949997 220.907516,150.817474 
	C220.322342,152.983490 221.189270,155.541809 221.871246,158.532959 
z"/>
<path fill="#080808" opacity="1.000000" stroke="none" 
	d="
M163.449982,167.000000 
	C162.584076,166.630066 162.218094,166.172165 161.744705,165.903503 
	C155.412354,162.309738 152.658417,156.377731 154.478119,150.182907 
	C156.364120,143.762329 162.195007,139.602676 168.646088,140.075745 
	C175.327667,140.565720 180.247299,144.880661 181.408463,151.269455 
	C182.635864,158.022766 179.367874,163.426788 172.141052,166.680511 
	C169.299988,167.000000 166.599976,167.000000 163.449982,167.000000 
M168.335739,145.206970 
	C166.899857,145.542145 165.307465,145.588455 164.057083,146.265976 
	C160.103760,148.408096 159.203796,152.142471 160.258087,156.079529 
	C161.298325,159.964127 164.225189,162.240555 168.419128,161.898529 
	C172.833618,161.538467 175.382416,158.690567 175.768112,154.473709 
	C176.202087,149.728928 173.605911,146.697235 168.335739,145.206970 
z"/>
<path fill="#030303" opacity="1.000000" stroke="none" 
	d="
M122.462921,165.784973 
	C122.462921,157.638397 122.462921,149.491806 122.462921,141.298309 
	C125.856163,139.960693 128.109314,140.936203 130.090042,143.842834 
	C132.892975,147.956039 136.068558,151.815308 139.744019,156.650177 
	C139.744019,150.894806 139.744019,146.063995 139.744019,141.001724 
	C141.823013,141.001724 143.363205,141.001724 145.707016,141.001724 
	C145.276978,149.579422 144.859161,157.913589 144.220673,166.623886 
	C142.933334,167.000000 141.866653,167.000000 140.389404,166.644318 
	C136.292450,161.186798 132.606094,156.084961 128.919724,150.983109 
	C128.565765,151.095657 128.211792,151.208191 127.857826,151.320740 
	C127.857826,156.184601 127.857826,161.048477 127.471756,165.941849 
	C125.544762,165.909225 124.003838,165.847092 122.462921,165.784973 
z"/>
<path fill="#080808" opacity="1.000000" stroke="none" 
	d="
M258.454102,167.000000 
	C252.376053,163.570511 248.167618,159.165741 249.237930,151.988892 
	C250.894531,140.880814 262.455688,136.729385 272.816742,143.566406 
	C271.850098,144.905182 270.889252,146.235931 269.794342,147.752365 
	C268.411316,147.111038 267.157166,146.460159 265.851807,145.937256 
	C262.081757,144.427032 258.341217,145.284012 256.852753,148.750961 
	C255.652725,151.546173 255.576752,155.548111 256.637360,158.408295 
	C257.994049,162.066864 262.023499,162.744141 265.600769,161.623657 
	C267.012573,161.181442 267.927917,159.154388 269.882294,156.919220 
	C266.518585,156.640594 264.913971,156.507675 263.080872,156.355835 
	C262.985229,154.919510 262.900909,153.653488 262.798309,152.112625 
	C266.452972,152.112625 269.898163,152.112625 273.382355,152.112625 
	C275.507202,161.434784 274.747223,163.495880 268.035522,166.630188 
	C264.969391,167.000000 261.938812,167.000000 258.454102,167.000000 
z"/>
<path fill="#060606" opacity="1.000000" stroke="none" 
	d="
M90.399994,167.000000 
	C90.000000,158.389343 90.000000,149.778702 90.000000,140.956665 
	C91.894363,140.956665 93.489365,140.956665 95.438187,140.956665 
	C95.438187,144.129028 95.438187,147.217056 95.438187,150.639862 
	C99.158127,150.639862 102.535683,150.639862 106.226471,150.639862 
	C106.226471,147.626175 106.226471,144.536972 106.226471,141.096680 
	C108.241112,141.096680 109.957176,141.096680 111.296440,141.096680 
	C111.296440,149.501434 111.296440,157.849411 111.148224,166.598694 
	C109.611107,167.000000 108.222221,167.000000 106.413239,166.537704 
	C105.993156,162.830627 105.993156,159.585861 105.993156,156.298584 
	C102.084702,156.298584 98.702629,156.298584 95.522980,156.298584 
	C94.991402,160.033813 94.495697,163.516907 94.000000,167.000000 
	C92.933327,167.000000 91.866661,167.000000 90.399994,167.000000 
z"/>
<path fill="#0A0A0A" opacity="1.000000" stroke="none" 
	d="
M67.449982,167.000000 
	C62.413128,164.464493 58.645786,161.266663 57.972408,155.634888 
	C57.263103,149.702682 59.859524,144.451675 64.751450,141.839142 
	C70.374939,138.835876 76.118240,139.608414 81.331345,144.246277 
	C80.352905,145.476318 79.362770,146.721069 78.398705,147.933060 
	C71.869087,144.504425 68.205048,144.662399 65.423248,148.371246 
	C63.114357,151.449570 63.335075,156.596497 65.896713,159.412216 
	C69.018730,162.843903 72.352333,162.780151 78.489136,159.097672 
	C79.496101,160.107468 80.528297,161.142563 82.124649,162.743393 
	C79.935684,164.059830 78.066620,165.183884 76.098778,166.653961 
	C73.299988,167.000000 70.599968,167.000000 67.449982,167.000000 
z"/>
<path fill="#050505" opacity="1.000000" stroke="none" 
	d="
M289.416656,167.000000 
	C291.191803,156.634796 284.926849,149.152573 279.502441,141.244431 
	C285.007050,140.487686 285.007050,140.487686 291.962402,150.372726 
	C296.156708,147.576157 295.649078,139.037262 303.808167,141.168350 
	C299.933228,149.070541 293.030426,155.478851 294.865784,165.325851 
	C294.956604,165.813187 294.305603,166.438782 294.000000,167.000000 
	C292.611115,167.000000 291.222198,167.000000 289.416656,167.000000 
z"/>
<path fill="#060606" opacity="1.000000" stroke="none" 
	d="
M1.000000,141.416656 
	C7.962791,141.000000 14.925583,141.000000 22.252537,141.000000 
	C22.252537,142.461761 22.252537,143.969208 22.252537,145.811295 
	C19.805410,145.811295 17.537088,145.811295 14.672932,145.811295 
	C14.672932,152.379318 14.672932,158.630737 14.224473,165.362030 
	C12.226321,165.869308 10.676628,165.896698 9.062381,165.464294 
	C8.997827,158.655151 8.997827,152.305771 8.997827,146.000000 
	C5.922355,146.000000 3.461178,146.000000 1.000000,146.000000 
	C1.000000,144.611115 1.000000,143.222214 1.000000,141.416656 
z"/>
<path fill="#FAFAFA" opacity="1.000000" stroke="none" 
	d="
M294.482971,167.000000 
	C294.305603,166.438782 294.956604,165.813187 294.865784,165.325851 
	C293.030426,155.478851 299.933228,149.070541 304.246643,141.254929 
	C304.375458,140.911896 304.690552,140.935989 304.845276,140.967987 
	C305.000000,149.556046 305.000000,158.112076 305.000000,167.000000 
	C301.662628,167.000000 298.314270,167.000000 294.482971,167.000000 
z"/>
<path fill="#FFFFFF" opacity="1.000000" stroke="none" 
	d="
M1.000000,146.468918 
	C3.461178,146.000000 5.922355,146.000000 8.997827,146.000000 
	C8.997827,152.305771 8.997827,158.655151 8.999914,165.729660 
	C9.001334,166.636520 9.000667,166.818253 9.000000,167.000000 
	C6.374300,167.000000 3.748601,167.000000 1.000000,167.000000 
	C1.000000,160.312973 1.000000,153.625397 1.000000,146.468918 
z"/>
<path fill="#FCFCFC" opacity="1.000000" stroke="none" 
	d="
M94.460632,167.000000 
	C94.495697,163.516907 94.991402,160.033813 95.522980,156.298584 
	C98.702629,156.298584 102.084702,156.298584 105.993156,156.298584 
	C105.993156,159.585861 105.993156,162.830627 105.996582,166.537704 
	C102.307091,167.000000 98.614182,167.000000 94.460632,167.000000 
z"/>
<path fill="#FAFAFA" opacity="1.000000" stroke="none" 
	d="
M127.857826,165.912338 
	C127.857826,161.048477 127.857826,156.184601 127.857826,151.320740 
	C128.211792,151.208191 128.565765,151.095657 128.919724,150.983109 
	C132.606094,156.084961 136.292450,161.186798 139.989410,166.644318 
	C136.307098,167.000000 132.614182,167.000000 128.448883,166.724976 
	C127.936928,166.270752 127.897377,166.091553 127.857826,165.912338 
z"/>
<path fill="#9172BA" opacity="1.000000" stroke="none" 
	d="
M1.000000,95.468636 
	C1.490709,95.054909 1.981418,95.109810 2.801123,95.487762 
	C3.130119,95.810822 3.002138,96.155304 2.756973,96.193375 
	C2.172979,96.382683 1.993478,96.643600 1.948614,97.481377 
	C1.967034,104.928955 2.010145,111.909340 2.053256,118.889725 
	C1.880461,118.934349 1.707667,118.978981 1.267436,119.011803 
	C1.000000,111.312424 1.000000,103.624847 1.000000,95.468636 
z"/>
<path fill="#A189C4" opacity="1.000000" stroke="none" 
	d="
M305.000000,118.531364 
	C304.816925,118.983536 304.633881,118.967072 304.185059,118.674950 
	C303.919342,118.399292 303.841003,117.944519 303.876221,117.721695 
	C303.911438,117.498863 303.857605,117.050911 303.911560,116.582108 
	C303.941956,109.730042 303.918427,103.346786 303.863251,96.716492 
	C303.653595,96.128166 303.374451,95.987495 302.925293,95.884865 
	C302.856445,95.722282 302.809448,95.372307 302.809448,95.372307 
	C303.292053,95.280899 303.774628,95.189491 304.628601,95.049042 
	C305.000000,102.687576 305.000000,110.375153 305.000000,118.531364 
z"/>
<path fill="#9C82C1" opacity="1.000000" stroke="none" 
	d="
M1.500000,1.000000 
	C1.952297,8.008048 1.904594,15.016095 1.847737,22.797714 
	C1.811290,23.776592 1.783998,23.981895 1.756706,24.187201 
	C1.756706,24.187201 1.306639,24.383488 1.153319,24.191744 
	C1.000000,16.333334 1.000000,8.666667 1.500000,1.000000 
z"/>
<path fill="#AC98CA" opacity="1.000000" stroke="none" 
	d="
M303.931091,23.024710 
	C303.955841,16.313984 303.980621,9.603258 303.989685,2.187910 
	C303.973969,1.483287 304.000000,1.000000 304.000000,0.999997 
	C304.333344,1.648045 304.949432,2.293097 304.956360,2.944609 
	C305.027466,9.649986 305.000000,16.356401 305.000000,23.531263 
	C305.000000,24.000000 304.581390,24.228249 304.309692,23.892551 
	C304.002350,23.379471 303.966705,23.202091 303.931091,23.024710 
z"/>
<path fill="#747474" opacity="1.000000" stroke="none" 
	d="
M190.468277,167.000000 
	C189.993500,166.816086 189.987000,166.632156 190.507858,166.226593 
	C196.914276,165.938766 202.793320,165.872574 208.672379,165.806396 
	C208.751648,165.998566 208.830902,166.190735 208.955078,166.691437 
	C202.978851,167.000000 196.957703,167.000000 190.468277,167.000000 
z"/>
<path fill="#7C7C7C" opacity="1.000000" stroke="none" 
	d="
M49.993034,165.993652 
	C50.048504,166.160995 50.103977,166.328354 50.079723,166.747849 
	C43.978848,167.000000 37.957695,167.000000 31.468271,167.000000 
	C30.873377,166.887726 30.746756,166.775436 31.208555,166.387787 
	C37.862331,166.072845 43.927681,166.033249 49.993034,165.993652 
z"/>
<path fill="#686868" opacity="1.000000" stroke="none" 
	d="
M127.471756,165.941849 
	C127.897377,166.091553 127.936928,166.270752 127.988235,166.724976 
	C126.285622,167.000000 124.571251,167.000000 122.428436,167.000000 
	C122.067230,166.793716 122.134453,166.587418 122.332291,166.083054 
	C124.003838,165.847092 125.544762,165.909225 127.471756,165.941849 
z"/>
<path fill="#696969" opacity="1.000000" stroke="none" 
	d="
M9.428437,167.000000 
	C9.000667,166.818253 9.001334,166.636520 9.064468,166.189423 
	C10.676628,165.896698 12.226321,165.869308 14.161774,165.812317 
	C14.632239,165.982132 14.716945,166.181564 14.900826,166.690491 
	C13.285625,167.000000 11.571250,167.000000 9.428437,167.000000 
z"/>
<path fill="#58129B" opacity="1.000000" stroke="none" 
	d="
M303.750000,1.000000 
	C304.000000,1.000000 303.973969,1.483287 303.926300,1.720440 
	C303.582581,1.857108 303.350800,1.674882 303.091614,1.205456 
	C303.000000,1.000000 303.500000,1.000000 303.750000,1.000000 
z"/>
<path fill="#60259F" opacity="1.000000" stroke="none" 
	d="
M303.841003,117.944519 
	C303.841003,117.944519 303.919342,118.399292 303.913086,118.629929 
	C288.270111,118.703690 272.502655,119.771332 257.025665,118.118744 
	C230.111786,115.244980 213.169022,99.347343 205.450241,73.035156 
	C207.072708,71.597580 208.413788,70.170090 209.809784,70.114189 
	C216.213272,69.857727 222.632111,69.984909 229.045441,69.974365 
	C229.045441,69.974365 228.986572,69.980759 229.088577,70.098335 
	C229.299850,70.413506 229.399551,70.615814 229.489655,70.822845 
	C236.341873,87.692558 248.673706,95.963554 267.070709,95.393753 
	C278.669891,95.034500 290.289520,95.333519 302.354706,95.354782 
	C302.809448,95.372307 302.856445,95.722282 303.020569,96.086349 
	C303.359528,96.707108 303.596283,96.878136 303.894897,96.963524 
	C303.918427,103.346786 303.941956,109.730042 303.769653,116.661179 
	C303.371918,117.532097 303.460999,117.777245 303.841003,117.944519 
z"/>
<path fill="#5F249F" opacity="1.000000" stroke="none" 
	d="
M3.002138,96.155304 
	C3.002138,96.155304 3.130119,95.810822 3.143979,95.627663 
	C17.905382,95.558289 32.729717,96.587654 47.364769,95.360191 
	C53.710995,94.827919 60.529041,90.640694 65.548668,86.287125 
	C70.193230,82.258850 72.723122,75.792374 76.920120,70.181442 
	C83.631973,69.975533 89.613907,69.843773 95.580368,70.088799 
	C97.346695,70.161331 99.069420,71.295731 100.812126,71.943542 
	C93.904121,100.227554 70.453461,118.806587 41.344604,118.973701 
	C28.556767,119.047127 15.768129,118.981346 2.516556,118.934250 
	C2.010145,111.909340 1.967034,104.928955 2.159857,97.389458 
	C2.666300,96.666756 2.868416,96.441742 3.002138,96.155304 
z"/>
<path fill="#050505" opacity="1.000000" stroke="none" 
	d="
M50.059998,165.541046 
	C43.927681,166.033249 37.862331,166.072845 31.320194,166.159790 
	C30.843412,157.916946 30.843412,149.626740 30.843412,141.042084 
	C37.000168,141.042084 43.246544,141.042084 49.766815,141.042084 
	C49.766815,142.417572 49.766815,143.808609 49.766815,145.477356 
	C45.351528,145.477356 41.056530,145.477356 36.295002,145.477356 
	C36.178116,147.271103 36.076874,148.824738 35.941357,150.904419 
	C40.085072,150.904419 43.992756,150.904419 48.049301,150.904419 
	C48.049301,152.808090 48.049301,154.214584 48.049301,155.962250 
	C44.122940,155.962250 40.342159,155.962250 36.302299,155.962250 
	C36.302299,158.002151 36.302299,159.704987 36.302299,161.823715 
	C40.115204,161.823715 43.757427,161.992996 47.375248,161.768692 
	C50.133492,161.597687 50.371826,163.022858 50.059998,165.541046 
z"/>
<path fill="#000000" opacity="1.000000" stroke="none" 
	d="
M208.715942,165.379288 
	C202.793320,165.872574 196.914276,165.938766 190.576736,165.959274 
	C190.118256,157.639481 190.118256,149.365356 190.118256,140.929840 
	C191.961136,140.929840 193.562332,140.929840 195.646149,140.929840 
	C195.646149,147.772461 195.646149,154.497757 195.646149,161.699051 
	C199.397400,161.699051 202.686859,161.845901 205.956284,161.652939 
	C208.608536,161.496384 209.064362,162.801743 208.715942,165.379288 
z"/>
<path fill="#520599" opacity="1.000000" stroke="none" 
	d="
M228.846939,69.582748 
	C222.632111,69.984909 216.213272,69.857727 209.809784,70.114189 
	C208.413788,70.170090 207.072708,71.597580 205.451935,72.662903 
	C204.990036,71.822868 204.782532,70.713295 204.497879,69.191139 
	C212.749359,69.191139 220.698898,69.191139 228.846939,69.582748 
z"/>
<path fill="#500098" opacity="1.000000" stroke="none" 
	d="
M100.912369,71.509399 
	C99.069420,71.295731 97.346695,70.161331 95.580368,70.088799 
	C89.613907,69.843773 83.631973,69.975533 77.165909,69.934578 
	C84.511375,69.637489 92.346474,69.349632 100.184166,69.184875 
	C100.446945,69.179352 100.735863,70.417061 100.912369,71.509399 
z"/>
<path fill="#58119C" opacity="1.000000" stroke="none" 
	d="
M205.074951,47.347641 
	C205.454315,48.090107 205.730515,49.136528 205.999985,50.526726 
	C205.652756,49.797527 205.312286,48.724564 205.074951,47.347641 
z"/>
<path fill="#560E9A" opacity="1.000000" stroke="none" 
	d="
M100.372025,50.839455 
	C100.130013,50.065304 100.249870,49.260311 100.601982,48.252281 
	C100.800797,48.969032 100.767349,49.888817 100.372025,50.839455 
z"/>
<path fill="#58129B" opacity="1.000000" stroke="none" 
	d="
M303.704041,23.153290 
	C303.966705,23.202091 304.002350,23.379471 304.081116,23.824860 
	C303.935211,24.168558 303.746246,24.244253 303.260223,24.249168 
	C303.134491,23.879549 303.305756,23.580709 303.704041,23.153290 
z"/>
<path fill="#57109B" opacity="1.000000" stroke="none" 
	d="
M2.078525,24.241886 
	C1.783998,23.981895 1.811290,23.776592 1.877902,23.262699 
	C2.211388,23.180710 2.505556,23.407309 2.917647,23.889879 
	C2.823828,24.196091 2.612086,24.246330 2.078525,24.241886 
z"/>
<path fill="#57109B" opacity="1.000000" stroke="none" 
	d="
M45.131786,24.467621 
	C45.206108,24.254921 45.510029,24.172142 45.850937,24.326483 
	C45.712414,24.574915 45.536900,24.586229 45.131786,24.467621 
z"/>
<path fill="#58129B" opacity="1.000000" stroke="none" 
	d="
M262.306030,24.267597 
	C262.323425,24.060564 262.589600,23.926540 262.948730,23.977341 
	C262.879364,24.221642 262.717072,24.281122 262.306030,24.267597 
z"/>
<path fill="#58119C" opacity="1.000000" stroke="none" 
	d="
M229.151718,49.948395 
	C229.098557,49.853565 229.192627,49.643620 229.397369,49.298271 
	C229.492233,49.400761 229.422531,49.624233 229.151718,49.948395 
z"/>
<path fill="#560E9A" opacity="1.000000" stroke="none" 
	d="
M76.761124,50.376057 
	C76.982803,50.217628 77.316734,50.329617 77.810860,50.655350 
	C77.605156,50.794888 77.239265,50.720684 76.761124,50.376057 
z"/>
<path fill="#58119C" opacity="1.000000" stroke="none" 
	d="
M228.296570,50.901581 
	C228.125229,50.567307 228.321457,50.334206 228.827942,50.098362 
	C228.888931,50.321167 228.730911,50.623543 228.296570,50.901581 
z"/>
<path fill="#520599" opacity="1.000000" stroke="none" 
	d="
M229.464005,70.648689 
	C229.399551,70.615814 229.299850,70.413506 229.099777,70.070923 
	C229.222366,70.053856 229.365494,70.236725 229.464005,70.648689 
z"/>
<path fill="#F7F7F7" opacity="1.000000" stroke="none" 
	d="
M221.634186,158.227509 
	C221.189270,155.541809 220.322342,152.983490 220.907516,150.817474 
	C222.222519,145.949997 227.184937,143.980072 231.534363,146.058685 
	C235.819199,148.106400 237.479218,153.686615 235.064606,157.925751 
	C232.760620,161.970673 227.935883,163.176147 223.964340,160.615784 
	C223.155304,160.094223 222.563293,159.235992 221.634186,158.227509 
z"/>
<path fill="#F6F6F6" opacity="1.000000" stroke="none" 
	d="
M168.713196,145.255829 
	C173.605911,146.697235 176.202087,149.728928 175.768112,154.473709 
	C175.382416,158.690567 172.833618,161.538467 168.419128,161.898529 
	C164.225189,162.240555 161.298325,159.964127 160.258087,156.079529 
	C159.203796,152.142471 160.103760,148.408096 164.057083,146.265976 
	C165.307465,145.588455 166.899857,145.542145 168.713196,145.255829 
z"/>
<path fill="#59169C" opacity="1.000000" stroke="none" 
	d="
M2.756973,96.193375 
	C2.868416,96.441742 2.666300,96.666756 2.184547,96.922264 
	C1.993478,96.643600 2.172979,96.382683 2.756973,96.193375 
z"/>
<path fill="#59169C" opacity="1.000000" stroke="none" 
	d="
M303.876221,117.721695 
	C303.460999,117.777245 303.371918,117.532097 303.715698,117.129990 
	C303.857605,117.050911 303.911438,117.498863 303.876221,117.721695 
z"/>
<path fill="#59169C" opacity="1.000000" stroke="none" 
	d="
M303.863281,96.716492 
	C303.596283,96.878136 303.359528,96.707108 303.089417,96.248932 
	C303.374451,95.987495 303.653595,96.128166 303.863281,96.716492 
z"/>
</svg>