<svg version="1.1" id="Layer_1" xmlns="http://www.w3.org/2000/svg" xmlns:xlink="http://www.w3.org/1999/xlink" x="0px" y="0px"
	 width="100%" viewBox="0 0 234 215" enable-background="new 0 0 234 215" xml:space="preserve">
<path fill="#E21E39" opacity="1.000000" stroke="none" 
	d="
M100.000000,216.000000 
	C99.555664,216.000000 99.111328,216.000000 98.161781,215.637634 
	C72.265030,212.243179 37.787174,194.600586 33.493282,182.912735 
	C53.630207,184.656418 74.028625,186.422745 94.677544,188.210770 
	C94.677544,184.675064 94.677544,182.453842 94.677544,180.468948 
	C89.088341,179.581284 83.823456,178.875000 78.615585,177.872513 
	C75.124519,177.200485 72.372223,175.364639 72.089546,171.392822 
	C71.700325,165.924088 71.464005,160.444443 71.255447,154.858917 
	C71.483383,154.466232 71.409927,154.224579 71.043930,153.570160 
	C70.977081,149.743561 70.994659,146.370148 71.254272,142.685303 
	C71.271500,139.560333 71.046684,136.746826 70.674271,133.508331 
	C70.526680,120.202721 70.526680,107.322090 70.526680,94.088104 
	C74.588860,94.088104 78.125427,93.646782 81.508720,94.179283 
	C88.720734,95.314400 95.318573,94.285568 101.748161,90.736092 
	C107.729362,87.434143 108.086037,87.143402 106.288986,79.833054 
	C101.214584,79.833054 96.089821,79.833054 90.854584,79.742569 
	C90.469734,79.516617 90.230927,79.586639 89.564301,79.944199 
	C83.396637,79.997681 77.692360,79.969124 72.000504,79.587906 
	C71.684425,78.159340 71.355934,77.083420 70.930046,75.584480 
	C70.931076,73.431976 71.029503,71.702499 71.227875,69.870232 
	C71.481361,69.502182 71.427307,69.258003 71.096848,68.586159 
	C71.322678,63.148598 71.676071,58.162403 71.899742,53.170399 
	C72.363167,42.827343 78.057495,38.320023 87.830414,41.481823 
	C94.886673,43.764721 101.624847,47.064610 108.424660,50.091152 
	C111.522606,51.470020 113.861076,51.590733 116.276093,48.622093 
	C121.927368,41.675316 122.193642,41.576134 114.763847,36.259312 
	C110.813805,33.432621 106.402229,29.706211 101.969063,29.363935 
	C81.662300,27.796093 63.142128,33.581741 46.888515,45.917843 
	C37.510971,53.035172 31.304083,62.199692 30.536362,74.402260 
	C30.362410,77.167175 29.876591,79.912468 29.549957,82.541000 
	C24.441759,83.108948 19.847248,83.619774 14.896621,84.170204 
	C14.592584,88.475410 14.308990,92.491142 14.035471,96.364197 
	C19.413553,96.364197 24.040606,96.364197 28.689266,96.364197 
	C28.689266,105.322350 28.402245,114.315880 28.754356,123.284317 
	C29.329111,137.923599 30.371759,152.543961 31.105158,167.177902 
	C31.325207,171.568604 29.042830,173.946869 25.354584,172.942612 
	C23.724688,172.498810 22.226078,170.704605 21.161448,169.179001 
	C-12.372147,121.126045 0.557110,53.083206 49.442390,20.054598 
	C60.524345,12.567243 72.593269,7.253210 85.636459,4.424664 
	C90.620697,3.343783 95.856621,3.454059 100.955803,2.838873 
	C101.700317,2.749052 102.321663,1.638336 103.000000,1.000001 
	C103.000000,1.000000 103.500000,1.000000 103.961258,1.370831 
	C107.966461,1.773596 111.510391,1.805530 115.492081,1.900468 
	C147.343445,3.922671 172.684723,17.566664 193.740524,42.316921 
	C191.066803,41.939213 189.649338,41.704430 188.223541,41.542828 
	C171.872498,39.689575 155.515884,37.884209 139.171936,35.970531 
	C135.998550,35.598965 134.544846,36.650398 133.517181,39.814663 
	C127.837791,57.302082 121.868446,74.695198 116.026817,92.130127 
	C113.041954,101.038773 110.116272,109.967255 107.061638,119.195526 
	C108.519524,119.457405 109.454277,119.640450 110.394127,119.791824 
	C121.195343,121.531425 132.114990,122.745453 142.765335,125.151726 
	C152.997894,127.463608 162.911118,131.150528 170.837631,138.541870 
	C181.932434,148.887604 181.538132,163.765869 170.296875,173.447861 
	C159.437759,182.800705 136.409515,182.436493 127.641472,167.359756 
	C123.579865,160.375778 118.868820,153.769470 113.860252,146.083572 
	C109.819786,150.031982 106.517014,153.464203 102.985878,156.642715 
	C100.360626,159.005783 99.877831,161.358688 101.459747,164.561798 
	C103.589577,168.874268 105.619629,173.277283 107.181015,177.817352 
	C108.666336,182.136215 111.623848,183.973877 115.786743,184.947449 
	C125.694244,187.264542 135.697678,188.378265 145.869766,188.168182 
	C148.098434,188.122147 150.468811,189.067383 152.544937,188.580215 
	C159.421432,186.966690 166.193314,184.907349 173.115326,183.347534 
	C174.921295,184.187515 176.617264,184.699051 178.604401,185.298386 
	C178.922623,186.448654 179.345398,187.976898 179.728271,189.625763 
	C179.688370,189.746399 179.435959,189.775787 179.210510,189.775253 
	C178.671875,189.915558 178.522446,190.157669 178.520386,190.526962 
	C178.504044,190.552841 178.447510,190.576385 178.033661,190.450562 
	C174.326004,189.810898 172.651779,190.880905 173.542023,194.517883 
	C173.524155,194.559509 173.436249,194.581406 173.040253,194.454544 
	C168.822403,193.844940 166.666748,195.459915 166.151947,199.203995 
	C165.984512,199.056503 166.324356,199.342072 165.909042,199.265442 
	C162.040573,198.571106 159.796722,199.717087 159.296478,203.380432 
	C159.281555,203.333084 159.380859,203.335007 159.117188,203.385544 
	C158.566879,203.643066 158.280258,203.850067 157.935669,204.155884 
	C157.877701,204.254684 157.656876,204.193558 157.189438,204.153381 
	C152.536438,203.786819 148.443344,203.648453 146.677948,209.083374 
	C137.920532,211.198151 129.484329,213.125061 120.630249,214.977386 
	C118.526817,214.977234 116.841240,215.051666 114.693176,215.080414 
	C111.447441,215.075760 108.664192,215.116791 105.509308,215.120712 
	C104.389656,215.117523 103.641647,215.151474 102.562820,215.152130 
	C101.487999,215.412552 100.743996,215.706268 100.000000,216.000000 
z"/>
<path fill="#FFFDFD" opacity="1.000000" stroke="none" 
	d="
M173.005341,183.019073 
	C166.193314,184.907349 159.421432,186.966690 152.544937,188.580215 
	C150.468811,189.067383 148.098434,188.122147 145.869766,188.168182 
	C135.697678,188.378265 125.694244,187.264542 115.786743,184.947449 
	C111.623848,183.973877 108.666336,182.136215 107.181015,177.817352 
	C105.619629,173.277283 103.589577,168.874268 101.459747,164.561798 
	C99.877831,161.358688 100.360626,159.005783 102.985878,156.642715 
	C106.517014,153.464203 109.819786,150.031982 113.860252,146.083572 
	C118.868820,153.769470 123.579865,160.375778 127.641472,167.359756 
	C136.409515,182.436493 159.437759,182.800705 170.296875,173.447861 
	C181.538132,163.765869 181.932434,148.887604 170.837631,138.541870 
	C162.911118,131.150528 152.997894,127.463608 142.765335,125.151726 
	C132.114990,122.745453 121.195343,121.531425 110.394127,119.791824 
	C109.454277,119.640450 108.519524,119.457405 107.061638,119.195526 
	C110.116272,109.967255 113.041954,101.038773 116.026817,92.130127 
	C121.868446,74.695198 127.837791,57.302082 133.517181,39.814663 
	C134.544846,36.650398 135.998550,35.598965 139.171936,35.970531 
	C155.515884,37.884209 171.872498,39.689575 188.223541,41.542828 
	C189.649338,41.704430 191.066803,41.939213 193.740524,42.316921 
	C172.684723,17.566664 147.343445,3.922671 115.477066,1.691195 
	C115.024292,1.418919 115.000000,1.000000 115.000000,1.000000 
	C154.960983,1.000000 194.921982,1.000000 234.941483,1.000000 
	C234.941483,72.557716 234.941483,144.115494 234.941483,216.000000 
	C197.313065,216.000000 159.625198,216.000000 121.402092,215.759003 
	C120.927277,215.362656 120.987686,215.207321 121.048103,215.051971 
	C129.484329,213.125061 137.920532,211.198151 147.045502,209.083771 
	C151.041794,207.328720 154.349335,205.761124 157.656876,204.193542 
	C157.656876,204.193558 157.877701,204.254684 158.216385,204.145325 
	C158.830322,203.802307 159.105591,203.568649 159.380859,203.335007 
	C159.380859,203.335007 159.281555,203.333084 159.628387,203.283600 
	C162.091583,201.936752 164.207977,200.639404 166.324356,199.342072 
	C166.324356,199.342072 165.984512,199.056503 166.476425,199.108322 
	C169.124313,197.633896 171.280289,196.107651 173.436249,194.581406 
	C173.436249,194.581406 173.524155,194.559509 173.822266,194.372192 
	C175.562759,192.982040 177.005127,191.779205 178.447510,190.576385 
	C178.447510,190.576385 178.504044,190.552841 178.699677,190.445694 
	C179.120529,190.194183 179.300735,190.006592 179.435959,189.775787 
	C179.435959,189.775787 179.688370,189.746399 179.989655,189.447037 
	C189.974091,180.504761 198.183426,170.707184 204.137695,158.702667 
	C206.859879,151.953064 209.371506,145.478760 212.105194,138.690369 
	C213.556122,131.252548 214.784988,124.128784 216.127274,116.613739 
	C216.161133,110.814613 216.081543,105.406784 216.061432,99.624794 
	C216.051086,98.498528 215.981293,97.746407 215.958069,96.645607 
	C215.701874,95.185425 215.399109,94.073929 215.125763,92.542557 
	C212.986679,77.348419 208.132782,63.683468 198.872116,50.334473 
	C197.612259,56.580963 196.680038,61.203041 195.766510,65.732468 
	C192.427994,65.390022 189.792679,65.002388 187.144577,64.869598 
	C178.419983,64.432076 169.689178,64.119362 160.963867,63.695183 
	C154.662888,63.388866 148.369156,62.919888 142.066193,62.682941 
	C141.077560,62.645779 139.408493,63.221565 139.156540,63.914684 
	C137.530548,68.387848 136.210892,72.972359 135.111435,76.493263 
	C148.041489,79.387337 160.928696,81.295876 173.155792,85.247108 
	C189.718597,90.599449 202.635529,100.965195 207.170074,118.717117 
	C208.825333,125.197144 208.400848,132.208420 208.741058,139.307251 
	C206.670441,145.690750 204.783951,151.744339 202.627548,158.007843 
	C195.736771,170.228546 185.072128,177.453522 173.005341,183.019073 
M219.690582,170.845657 
	C219.688538,170.294861 219.686493,169.744049 219.684448,169.193253 
	C218.736847,169.715393 217.471100,170.007385 216.897583,170.800171 
	C214.611008,173.960922 216.543121,180.890381 220.255508,182.614868 
	C221.804276,183.334305 223.677155,183.356003 225.402664,183.694946 
	C225.455109,183.250076 225.507553,182.805191 225.559998,182.360306 
	C217.321518,177.831253 216.924805,177.139526 219.690582,170.845657 
M223.856857,176.741776 
	C227.329437,175.952637 226.843292,173.933655 225.161819,170.101471 
	C223.751755,173.106064 222.865433,174.994644 221.979111,176.883240 
	C222.453140,176.926926 222.927155,176.970612 223.856857,176.741776 
M230.686615,180.410187 
	C231.143112,178.257599 231.599609,176.105011 232.056091,173.952423 
	C231.445099,173.888962 230.834106,173.825500 230.223114,173.762054 
	C230.223114,176.121124 230.223114,178.480194 230.686615,180.410187 
M227.860489,169.523697 
	C228.498886,170.279678 229.137283,171.035660 229.775681,171.791641 
	C230.135788,171.383820 230.495895,170.975998 230.856003,170.568176 
	C230.001114,170.089691 229.146225,169.611221 227.860489,169.523697 
z"/>
<path fill="#FFFDFD" opacity="1.000000" stroke="none" 
	d="
M102.531342,1.000001 
	C102.321663,1.638336 101.700317,2.749052 100.955803,2.838873 
	C95.856621,3.454059 90.620697,3.343783 85.636459,4.424664 
	C72.593269,7.253210 60.524345,12.567243 49.442390,20.054598 
	C0.557110,53.083206 -12.372147,121.126045 21.161448,169.179001 
	C22.226078,170.704605 23.724688,172.498810 25.354584,172.942612 
	C29.042830,173.946869 31.325207,171.568604 31.105158,167.177902 
	C30.371759,152.543961 29.329111,137.923599 28.754356,123.284317 
	C28.402245,114.315880 28.689266,105.322350 28.689266,96.364197 
	C24.040606,96.364197 19.413553,96.364197 14.035471,96.364197 
	C14.308990,92.491142 14.592584,88.475410 14.896621,84.170204 
	C19.847248,83.619774 24.441759,83.108948 29.549957,82.541000 
	C29.876591,79.912468 30.362410,77.167175 30.536362,74.402260 
	C31.304083,62.199692 37.510971,53.035172 46.888515,45.917843 
	C63.142128,33.581741 81.662300,27.796093 101.969063,29.363935 
	C106.402229,29.706211 110.813805,33.432621 114.763847,36.259312 
	C122.193642,41.576134 121.927368,41.675316 116.276093,48.622093 
	C113.861076,51.590733 111.522606,51.470020 108.424660,50.091152 
	C101.624847,47.064610 94.886673,43.764721 87.830414,41.481823 
	C78.057495,38.320023 72.363167,42.827343 71.899742,53.170399 
	C71.676071,58.162403 71.322678,63.148598 71.033157,68.818512 
	C71.038292,69.499603 71.127930,69.973022 71.127930,69.973022 
	C71.029503,71.702499 70.931076,73.431976 70.842400,75.976212 
	C71.230789,77.840843 71.609436,78.890709 71.988083,79.940567 
	C77.692360,79.969124 83.396637,79.997681 89.800385,79.992615 
	C90.499855,79.959000 90.965065,79.833054 90.965065,79.833054 
	C96.089821,79.833054 101.214584,79.833054 106.288986,79.833054 
	C108.086037,87.143402 107.729362,87.434143 101.748161,90.736092 
	C95.318573,94.285568 88.720734,95.314400 81.508720,94.179283 
	C78.125427,93.646782 74.588860,94.088104 70.526680,94.088104 
	C70.526680,107.322090 70.526680,120.202721 70.584045,133.955917 
	C70.765022,137.551239 70.888626,140.273987 71.012238,142.996750 
	C70.994659,146.370148 70.977081,149.743561 70.996750,153.808685 
	C71.033989,154.500412 71.162178,154.969482 71.162178,154.969482 
	C71.464005,160.444443 71.700325,165.924088 72.089546,171.392822 
	C72.372223,175.364639 75.124519,177.200485 78.615585,177.872513 
	C83.823456,178.875000 89.088341,179.581284 94.677544,180.468948 
	C94.677544,182.453842 94.677544,184.675064 94.677544,188.210770 
	C74.028625,186.422745 53.630207,184.656418 33.493282,182.912735 
	C37.787174,194.600586 72.265030,212.243179 97.828285,215.637634 
	C65.700859,216.000000 33.401714,216.000000 1.051286,216.000000 
	C1.051286,144.443344 1.051286,72.886635 1.051286,1.000000 
	C34.686844,1.000000 68.374763,1.000000 102.531342,1.000001 
z"/>
<path fill="#F6C6CB" opacity="1.000000" stroke="none" 
	d="
M114.541931,1.000000 
	C115.000000,1.000000 115.024292,1.418919 115.039307,1.628192 
	C111.510391,1.805530 107.966461,1.773596 104.211258,1.370831 
	C107.361290,1.000000 110.722572,1.000000 114.541931,1.000000 
z"/>
<path fill="#E53F52" opacity="1.000000" stroke="none" 
	d="
M105.880951,215.157837 
	C108.664192,215.116791 111.447441,215.075760 114.645264,215.297119 
	C115.059837,215.559525 115.000000,216.000000 115.000000,216.000000 
	C112.299370,216.000000 109.598747,216.000000 106.421249,215.789185 
	C105.944389,215.578369 105.880951,215.157837 105.880951,215.157837 
z"/>
<path fill="#ED8590" opacity="1.000000" stroke="none" 
	d="
M115.428467,216.000000 
	C115.000000,216.000000 115.059837,215.559525 115.107758,215.342804 
	C116.841240,215.051666 118.526817,214.977234 120.630249,214.977386 
	C120.987686,215.207321 120.927277,215.362656 120.933434,215.759003 
	C119.285645,216.000000 117.571281,216.000000 115.428467,216.000000 
z"/>
<path fill="#EE8D97" opacity="1.000000" stroke="none" 
	d="
M100.375000,216.000000 
	C100.743996,215.706268 101.487999,215.412552 102.595314,215.354889 
	C102.958626,215.590942 103.000000,216.000000 103.000000,216.000000 
	C102.250000,216.000000 101.500000,216.000000 100.375000,216.000000 
z"/>
<path fill="#E8606F" opacity="1.000000" stroke="none" 
	d="
M103.375000,216.000000 
	C103.000000,216.000000 102.958626,215.590942 102.926132,215.388184 
	C103.641647,215.151474 104.389656,215.117523 105.509308,215.120712 
	C105.880951,215.157837 105.944389,215.578369 105.972198,215.789185 
	C105.250000,216.000000 104.500000,216.000000 103.375000,216.000000 
z"/>
<path fill="#E3203B" opacity="1.000000" stroke="none" 
	d="
M203.927155,158.977951 
	C198.183426,170.707184 189.974091,180.504761 180.029572,189.326416 
	C179.345398,187.976898 178.922623,186.448654 178.604401,185.298386 
	C176.617264,184.699051 174.921295,184.187515 173.115326,183.347534 
	C185.072128,177.453522 195.736771,170.228546 202.767151,158.231415 
	C203.426819,158.489349 203.676987,158.733643 203.927155,158.977951 
z"/>
<path fill="#E3203B" opacity="1.000000" stroke="none" 
	d="
M157.189438,204.153381 
	C154.349335,205.761124 151.041794,207.328720 147.366699,208.895905 
	C148.443344,203.648453 152.536438,203.786819 157.189438,204.153381 
z"/>
<path fill="#E3203B" opacity="1.000000" stroke="none" 
	d="
M173.040253,194.454544 
	C171.280289,196.107651 169.124313,197.633896 166.643860,199.255814 
	C166.666748,195.459915 168.822403,193.844940 173.040253,194.454544 
z"/>
<path fill="#E3203B" opacity="1.000000" stroke="none" 
	d="
M165.909042,199.265442 
	C164.207977,200.639404 162.091583,201.936752 159.643311,203.330948 
	C159.796722,199.717087 162.040573,198.571106 165.909042,199.265442 
z"/>
<path fill="#E3203B" opacity="1.000000" stroke="none" 
	d="
M178.033661,190.450562 
	C177.005127,191.779205 175.562759,192.982040 173.840149,194.330566 
	C172.651779,190.880905 174.326004,189.810898 178.033661,190.450562 
z"/>
<path fill="#E10327" opacity="1.000000" stroke="none" 
	d="
M71.254272,142.685303 
	C70.888626,140.273987 70.765022,137.551239 70.731644,134.380890 
	C71.046684,136.746826 71.271500,139.560333 71.254272,142.685303 
z"/>
<path fill="#E00022" opacity="1.000000" stroke="none" 
	d="
M72.000504,79.587914 
	C71.609436,78.890709 71.230789,77.840843 70.939796,76.399246 
	C71.355934,77.083420 71.684425,78.159340 72.000504,79.587914 
z"/>
<path fill="#E10327" opacity="1.000000" stroke="none" 
	d="
M71.255447,154.858917 
	C71.162178,154.969482 71.033989,154.500412 71.081169,154.261871 
	C71.409927,154.224579 71.483383,154.466232 71.255447,154.858917 
z"/>
<path fill="#E3203B" opacity="1.000000" stroke="none" 
	d="
M179.210510,189.775253 
	C179.300735,190.006592 179.120529,190.194183 178.716034,190.419815 
	C178.522446,190.157669 178.671875,189.915558 179.210510,189.775253 
z"/>
<path fill="#E00022" opacity="1.000000" stroke="none" 
	d="
M90.854584,79.742569 
	C90.965065,79.833054 90.499855,79.959000 90.263763,79.910583 
	C90.230927,79.586639 90.469734,79.516617 90.854584,79.742569 
z"/>
<path fill="#E3203B" opacity="1.000000" stroke="none" 
	d="
M159.117188,203.385544 
	C159.105591,203.568649 158.830322,203.802307 158.274353,204.046509 
	C158.280258,203.850067 158.566879,203.643066 159.117188,203.385544 
z"/>
<path fill="#E00022" opacity="1.000000" stroke="none" 
	d="
M71.227875,69.870232 
	C71.127930,69.973022 71.038292,69.499603 71.101974,69.267250 
	C71.427307,69.258003 71.481361,69.502182 71.227875,69.870232 
z"/>
<path fill="#E21F3A" opacity="1.000000" stroke="none" 
	d="
M208.925171,138.977356 
	C208.400848,132.208420 208.825333,125.197144 207.170074,118.717117 
	C202.635529,100.965195 189.718597,90.599449 173.155792,85.247108 
	C160.928696,81.295876 148.041489,79.387337 135.111435,76.493263 
	C136.210892,72.972359 137.530548,68.387848 139.156540,63.914684 
	C139.408493,63.221565 141.077560,62.645779 142.066193,62.682941 
	C148.369156,62.919888 154.662888,63.388866 160.963867,63.695183 
	C169.689178,64.119362 178.419983,64.432076 187.144577,64.869598 
	C189.792679,65.002388 192.427994,65.390022 195.766510,65.732468 
	C196.680038,61.203041 197.612259,56.580963 198.872116,50.334473 
	C208.132782,63.683468 212.986679,77.348419 214.925507,92.748589 
	C215.101044,94.581100 215.506271,95.787697 215.911499,96.994293 
	C215.981293,97.746407 216.051086,98.498528 215.821869,99.961502 
	C215.686508,106.116585 215.850174,111.560806 216.013840,117.005020 
	C214.784988,124.128784 213.556122,131.252548 211.735443,138.690414 
	C210.404114,138.995468 209.664642,138.986404 208.925171,138.977356 
z"/>
<path fill="#E21835" opacity="1.000000" stroke="none" 
	d="
M208.741043,139.307251 
	C209.664642,138.986404 210.404114,138.995468 211.513367,139.004486 
	C209.371506,145.478760 206.859879,151.953064 204.137695,158.702667 
	C203.676987,158.733643 203.426819,158.489349 203.037048,158.021484 
	C204.783951,151.744339 206.670441,145.690750 208.741043,139.307251 
z"/>
<path fill="#FCEBED" opacity="1.000000" stroke="none" 
	d="
M219.475784,171.111374 
	C216.924805,177.139526 217.321518,177.831253 225.559998,182.360306 
	C225.507553,182.805191 225.455109,183.250076 225.402664,183.694946 
	C223.677155,183.356003 221.804276,183.334305 220.255508,182.614868 
	C216.543121,180.890381 214.611008,173.960922 216.897583,170.800171 
	C217.471100,170.007385 218.736847,169.715393 219.684448,169.193253 
	C219.686493,169.744049 219.688538,170.294861 219.475784,171.111374 
z"/>
<path fill="#E31F3E" opacity="1.000000" stroke="none" 
	d="
M216.127274,116.613739 
	C215.850174,111.560806 215.686508,106.116585 215.762405,100.335663 
	C216.081543,105.406784 216.161133,110.814613 216.127274,116.613739 
z"/>
<path fill="#FCEBED" opacity="1.000000" stroke="none" 
	d="
M223.629028,176.878036 
	C222.927155,176.970612 222.453140,176.926926 221.979111,176.883240 
	C222.865433,174.994644 223.751755,173.106064 225.161819,170.101471 
	C226.843292,173.933655 227.329437,175.952637 223.629028,176.878036 
z"/>
<path fill="#FCEBED" opacity="1.000000" stroke="none" 
	d="
M230.454865,180.624725 
	C230.223114,178.480194 230.223114,176.121124 230.223114,173.762054 
	C230.834106,173.825500 231.445099,173.888962 232.056091,173.952423 
	C231.599609,176.105011 231.143112,178.257599 230.454865,180.624725 
z"/>
<path fill="#FCEBED" opacity="1.000000" stroke="none" 
	d="
M228.075912,169.328217 
	C229.146225,169.611221 230.001114,170.089691 230.856003,170.568176 
	C230.495895,170.975998 230.135788,171.383820 229.775681,171.791641 
	C229.137283,171.035660 228.498886,170.279678 228.075912,169.328217 
z"/>
<path fill="#E31F3E" opacity="1.000000" stroke="none" 
	d="
M215.958069,96.645607 
	C215.506271,95.787697 215.101044,94.581100 214.896072,93.168472 
	C215.399109,94.073929 215.701874,95.185425 215.958069,96.645607 
z"/>
</svg>