<svg version="1.1" id="Layer_1" xmlns="http://www.w3.org/2000/svg" xmlns:xlink="http://www.w3.org/1999/xlink" x="0px" y="0px"
	 width="100%" viewBox="0 0 225 225" enable-background="new 0 0 225 225" xml:space="preserve">
<path fill="#FEFEFF" opacity="1.000000" stroke="none" 
	d="
M226.000000,60.000000 
	C226.000000,115.666664 226.000000,170.833328 226.000000,226.000000 
	C151.000000,226.000000 76.000000,226.000000 1.000000,226.000000 
	C1.000000,151.000000 1.000000,76.000000 1.000000,1.000000 
	C76.000000,1.000000 151.000000,1.000000 226.000000,1.000000 
	C226.000000,20.500000 226.000000,40.000000 226.000000,60.000000 
M182.224838,199.739319 
	C213.710373,173.298141 227.842941,139.501099 222.678696,98.780624 
	C214.848846,37.041759 157.267242,-4.977520 95.359283,4.834177 
	C37.050362,14.075468 -4.283805,70.238800 4.214093,128.678879 
	C16.491642,213.111633 114.214027,252.479401 182.224838,199.739319 
z"/>
<path fill="#3E76BA" opacity="1.000000" stroke="none" 
	d="
M181.937744,199.949539 
	C114.214027,252.479401 16.491642,213.111633 4.214093,128.678879 
	C-4.283805,70.238800 37.050362,14.075468 95.359283,4.834177 
	C157.267242,-4.977520 214.848846,37.041759 222.678696,98.780624 
	C227.842941,139.501099 213.710373,173.298141 181.937744,199.949539 
M36.505344,184.981934 
	C61.429020,210.752167 91.818047,222.329605 127.327553,217.630829 
	C186.670258,209.778320 226.263901,155.618484 217.051636,96.183487 
	C208.109756,38.492836 150.240646,-1.868993 93.124527,10.452427 
	C53.765587,18.943165 26.439411,42.498032 13.886413,80.828613 
	C1.342314,119.132019 9.610866,153.984238 36.505344,184.981934 
z"/>
<path fill="#FAFBFD" opacity="1.000000" stroke="none" 
	d="
M36.260582,184.726654 
	C9.610866,153.984238 1.342314,119.132019 13.886413,80.828613 
	C26.439411,42.498032 53.765587,18.943165 93.124527,10.452427 
	C150.240646,-1.868993 208.109756,38.492836 217.051636,96.183487 
	C226.263901,155.618484 186.670258,209.778320 127.327553,217.630829 
	C91.818047,222.329605 61.429020,210.752167 36.260582,184.726654 
M210.873093,100.260513 
	C210.625214,98.952782 210.334061,97.651581 210.135742,96.336380 
	C204.761642,60.697346 180.566116,35.246025 145.153778,28.221891 
	C133.677460,25.945532 122.720474,26.296518 113.229958,34.784496 
	C109.063622,38.510719 103.470604,37.771782 100.818062,34.113911 
	C98.120735,30.394291 99.092613,25.008045 103.822433,22.027571 
	C107.213074,19.890966 111.326538,18.901432 116.002777,17.306242 
	C119.894463,17.306242 123.786140,17.306242 127.677826,17.306242 
	C127.686043,16.926224 127.694267,16.546204 127.702484,16.166185 
	C123.474297,16.166185 119.246101,16.166185 114.097374,16.024578 
	C110.056938,16.053591 106.016510,16.082603 101.502266,16.038422 
	C101.502266,16.038422 101.038353,16.159456 100.232597,16.081413 
	C98.762329,16.351355 97.296448,16.648462 95.821144,16.887255 
	C60.274967,22.640791 35.417877,46.440037 28.227417,81.814873 
	C25.894749,93.290878 26.365122,104.215042 34.618496,113.792175 
	C38.483604,118.277214 37.868004,123.453758 34.163967,126.162971 
	C30.305067,128.985474 25.055138,127.678841 21.639025,122.951431 
	C20.771154,121.750435 19.964376,120.426491 19.488493,119.036179 
	C18.191227,115.246147 17.085777,111.390450 15.904329,107.560776 
	C15.253098,112.957451 15.386026,118.334900 15.837253,123.685509 
	C18.418636,154.295334 36.349907,189.125778 78.979095,198.358063 
	C91.604347,201.092331 103.764038,201.878021 114.045876,191.983200 
	C114.399338,191.643021 114.842606,191.375000 115.283081,191.149719 
	C119.074707,189.210571 122.694923,189.221222 125.727814,192.517654 
	C128.481995,195.511169 128.420654,200.225800 125.109726,203.289627 
	C122.747490,205.475571 119.603508,206.816742 115.982681,208.717072 
	C109.185707,209.117310 102.388733,209.517548 95.591751,209.917786 
	C95.577965,210.308472 95.564171,210.699142 95.550377,211.089828 
	C104.380714,211.089828 113.211044,211.089828 122.699142,211.218430 
	C123.135773,211.136032 123.572395,211.053635 124.813148,211.069595 
	C126.071510,210.742371 127.329880,210.415146 129.147827,210.399139 
	C129.766205,210.263306 130.384583,210.127487 131.769867,210.070816 
	C132.708130,209.746185 133.646393,209.421555 135.339890,209.251617 
	C166.104889,204.566589 190.784683,180.478516 198.112793,148.127411 
	C200.974182,135.495407 201.433136,123.382042 191.901962,112.970337 
	C191.356522,112.374489 190.946472,111.587151 190.677032,110.817635 
	C189.379593,107.111931 189.299683,103.523674 192.746353,100.899971 
	C196.169846,98.293900 199.878250,98.888054 202.771118,101.559319 
	C204.883438,103.509834 206.171875,106.360977 207.788071,108.836456 
	C208.481445,109.898514 209.074615,111.026001 209.713333,112.123749 
	C210.125275,111.982140 210.537201,111.840530 210.949142,111.698929 
	C210.949142,109.126541 210.949142,106.554161 211.046570,103.251892 
	C210.969574,102.522102 210.892563,101.792305 210.873093,100.260513 
M209.310715,116.017029 
	C209.310715,119.951721 209.310715,123.886421 209.310715,127.821114 
	C209.715607,127.816078 210.120483,127.811035 210.525375,127.805992 
	C210.525375,123.007782 210.525375,118.209564 210.525375,113.411354 
	C210.234192,113.390785 209.943008,113.370216 209.651840,113.349648 
	C209.467636,113.932762 209.283432,114.515877 209.310715,116.017029 
z"/>
<path fill="#3C74B9" opacity="1.000000" stroke="none" 
	d="
M124.009026,210.971237 
	C123.572395,211.053635 123.135773,211.136032 122.126831,210.859039 
	C119.972473,209.844727 118.390419,209.189804 116.808372,208.534882 
	C119.603508,206.816742 122.747490,205.475571 125.109726,203.289627 
	C128.420654,200.225800 128.481995,195.511169 125.727814,192.517654 
	C122.694923,189.221222 119.074707,189.210571 115.283081,191.149719 
	C114.842606,191.375000 114.399338,191.643021 114.045876,191.983200 
	C103.764038,201.878021 91.604347,201.092331 78.979095,198.358063 
	C36.349907,189.125778 18.418636,154.295334 15.837253,123.685509 
	C15.386026,118.334900 15.253098,112.957451 15.904329,107.560776 
	C17.085777,111.390450 18.191227,115.246147 19.488493,119.036179 
	C19.964376,120.426491 20.771154,121.750435 21.639025,122.951431 
	C25.055138,127.678841 30.305067,128.985474 34.163967,126.162971 
	C37.868004,123.453758 38.483604,118.277214 34.618496,113.792175 
	C26.365122,104.215042 25.894749,93.290878 28.227417,81.814873 
	C35.417877,46.440037 60.274967,22.640791 95.821144,16.887255 
	C97.296448,16.648462 98.762329,16.351355 100.725830,16.267015 
	C101.471397,16.338951 101.723732,16.225283 101.976074,16.111614 
	C106.016510,16.082603 110.056938,16.053591 114.581909,16.403923 
	C115.083473,16.988894 115.100502,17.194521 115.117523,17.400145 
	C111.326538,18.901432 107.213074,19.890966 103.822433,22.027571 
	C99.092613,25.008045 98.120735,30.394291 100.818062,34.113911 
	C103.470604,37.771782 109.063622,38.510719 113.229958,34.784496 
	C122.720474,26.296518 133.677460,25.945532 145.153778,28.221891 
	C180.566116,35.246025 204.761642,60.697346 210.135742,96.336380 
	C210.334061,97.651581 210.625214,98.952782 210.623657,100.856377 
	C210.565842,102.295418 210.757492,103.138603 210.949142,103.981781 
	C210.949142,106.554161 210.949142,109.126541 210.949142,111.698929 
	C210.537201,111.840530 210.125275,111.982140 209.713333,112.123749 
	C209.074615,111.026001 208.481445,109.898514 207.788071,108.836456 
	C206.171875,106.360977 204.883438,103.509834 202.771118,101.559319 
	C199.878250,98.888054 196.169846,98.293900 192.746353,100.899971 
	C189.299683,103.523674 189.379593,107.111931 190.677032,110.817635 
	C190.946472,111.587151 191.356522,112.374489 191.901962,112.970337 
	C201.433136,123.382042 200.974182,135.495407 198.112793,148.127411 
	C190.784683,180.478516 166.104889,204.566589 134.564865,209.159744 
	C132.860886,209.375793 131.931915,209.683731 131.002960,209.991669 
	C130.384583,210.127487 129.766205,210.263306 128.452591,210.230209 
	C126.507919,210.364594 125.258469,210.667908 124.009026,210.971237 
M139.831665,58.258705 
	C131.485443,66.097435 128.401840,75.909966 128.836868,87.121346 
	C128.902100,88.802582 128.833420,91.355774 127.816383,92.072998 
	C120.677315,97.107590 113.273132,101.766251 105.953712,106.545113 
	C105.358437,106.121704 104.763161,105.698296 104.167885,105.274887 
	C105.631790,101.828209 106.891418,98.274590 108.622566,94.967812 
	C110.075386,92.192680 112.648521,89.902916 113.645271,87.024178 
	C114.361320,84.956131 113.297066,82.271652 113.026993,79.862175 
	C110.631149,80.441536 107.348541,80.247551 106.026535,81.763412 
	C103.383385,84.794167 101.453110,88.611397 99.886429,92.377571 
	C97.533386,98.034088 93.235191,100.920448 87.616020,102.129150 
	C84.537727,102.791298 82.207664,101.642265 81.469383,98.132149 
	C82.701218,97.468056 83.733131,96.949074 84.729424,96.368912 
	C95.540031,90.073639 103.242798,81.225670 106.458755,68.987564 
	C107.657036,64.427559 108.051750,59.528595 103.700554,56.128422 
	C99.400490,52.768196 94.104416,52.807461 90.140251,55.723316 
	C85.319511,59.269226 80.495705,63.659321 77.613457,68.776962 
	C74.034241,75.132118 72.441238,82.605904 69.979370,89.627831 
	C66.577316,88.557892 65.115128,87.109062 65.023087,82.928825 
	C64.950821,79.646545 65.760880,76.353424 65.904274,73.053177 
	C65.954582,71.895355 65.512550,70.160385 64.703438,69.674393 
	C63.863209,69.169716 62.032024,69.472565 61.129147,70.116379 
	C59.848022,71.029915 58.732742,72.441017 58.044170,73.877945 
	C53.240818,83.901711 58.050858,94.851280 68.510902,98.430382 
	C70.097931,98.973419 71.776512,100.416473 72.575546,101.895515 
	C76.307274,108.803101 82.098923,111.539017 89.667366,109.549156 
	C90.629265,109.296249 91.567551,108.616669 92.494949,108.655540 
	C93.628227,108.703026 94.738464,109.300354 95.858673,109.659912 
	C95.330803,110.580826 95.023819,111.840012 94.232162,112.356964 
	C92.154327,113.713745 89.770042,114.598076 87.677292,115.935715 
	C79.709953,121.028290 71.347420,125.650185 64.011314,131.542114 
	C56.348717,137.696243 51.784466,146.032104 53.033840,156.480743 
	C53.948982,164.134140 63.390640,172.726166 69.484352,171.879639 
	C84.329582,169.817444 94.255569,161.434052 98.810547,147.575928 
	C101.575424,139.164032 102.254364,130.078049 104.088196,121.340599 
	C104.553879,119.121826 105.252777,116.189362 106.866631,115.102432 
	C115.126610,109.539360 123.720909,104.472679 132.476944,99.060226 
	C132.969055,99.613518 133.643341,100.291794 134.214264,101.048080 
	C134.489395,101.412529 134.569824,101.923973 134.772888,102.459831 
	C119.605873,111.088051 112.485886,124.017975 114.083672,141.407227 
	C114.925316,150.567093 118.720284,158.513443 126.028770,164.201492 
	C132.600510,169.316162 139.978058,172.272415 148.755081,170.973892 
	C161.698135,169.059006 171.843262,160.009888 174.593979,147.246704 
	C178.088562,131.031998 166.215210,116.787575 150.939682,119.080467 
	C143.980072,120.125122 139.099472,124.093155 136.826080,130.903000 
	C134.919113,136.615311 136.128616,141.811905 140.068192,146.216980 
	C142.579361,149.024887 146.196457,150.604080 149.427521,148.228378 
	C153.128952,145.506805 150.170044,142.696182 148.240036,140.211105 
	C147.833344,139.687454 147.423508,139.149231 147.123749,138.562241 
	C144.762146,133.937775 147.378098,128.778046 152.549133,128.068680 
	C157.283264,127.419243 160.586548,129.664078 162.683777,133.747559 
	C166.761032,141.686157 163.724411,153.079941 156.225433,158.285065 
	C149.036224,163.275177 138.919479,162.095612 132.506958,155.519653 
	C119.843864,142.533737 123.866257,117.285416 140.080658,109.099854 
	C142.403259,107.927307 145.402390,108.015579 148.109589,107.704056 
	C151.554565,107.307632 155.101944,107.437485 158.438675,106.642052 
	C159.777298,106.322945 161.347626,104.241096 161.550247,102.785835 
	C161.703033,101.688515 160.031616,99.477905 158.849915,99.215805 
	C155.357437,98.441162 151.530884,97.549805 148.156662,98.251251 
	C143.289398,99.263084 141.677658,97.009796 140.379639,93.713058 
	C145.106659,89.293213 149.930206,85.580460 153.705872,81.003296 
	C156.788528,77.266266 159.086441,72.679840 160.869644,68.131775 
	C162.536011,63.881729 161.654343,59.464489 157.875626,56.338226 
	C153.997894,53.130062 149.546768,53.371902 145.140137,55.084633 
	C143.464676,55.735828 141.986343,56.894169 139.831665,58.258705 
z"/>
<path fill="#3171B8" opacity="1.000000" stroke="none" 
	d="
M116.395523,208.625977 
	C118.390419,209.189804 119.972473,209.844727 121.797958,210.794739 
	C113.211044,211.089828 104.380714,211.089828 95.550377,211.089828 
	C95.564171,210.699142 95.577965,210.308472 95.591751,209.917786 
	C102.388733,209.517548 109.185707,209.117310 116.395523,208.625977 
z"/>
<path fill="#2569B5" opacity="1.000000" stroke="none" 
	d="
M209.204987,115.558014 
	C209.283432,114.515877 209.467636,113.932762 209.651840,113.349648 
	C209.943008,113.370216 210.234192,113.390785 210.525375,113.411354 
	C210.525375,118.209564 210.525375,123.007782 210.525375,127.805992 
	C210.120483,127.811035 209.715607,127.816078 209.310715,127.821114 
	C209.310715,123.886421 209.310715,119.951721 209.204987,115.558014 
z"/>
<path fill="#276BB6" opacity="1.000000" stroke="none" 
	d="
M115.560150,17.353195 
	C115.100502,17.194521 115.083473,16.988894 115.042175,16.474728 
	C119.246101,16.166185 123.474297,16.166185 127.702484,16.166185 
	C127.694267,16.546204 127.686043,16.926224 127.677826,17.306242 
	C123.786140,17.306242 119.894463,17.306242 115.560150,17.353195 
z"/>
<path fill="#3171B8" opacity="1.000000" stroke="none" 
	d="
M124.411087,211.020416 
	C125.258469,210.667908 126.507919,210.364594 128.172806,210.074600 
	C127.329880,210.415146 126.071510,210.742371 124.411087,211.020416 
z"/>
<path fill="#2569B5" opacity="1.000000" stroke="none" 
	d="
M210.997864,103.616837 
	C210.757492,103.138603 210.565842,102.295418 210.594879,101.257378 
	C210.892563,101.792305 210.969574,102.522102 210.997864,103.616837 
z"/>
<path fill="#3171B8" opacity="1.000000" stroke="none" 
	d="
M131.386414,210.031250 
	C131.931915,209.683731 132.860886,209.375793 134.187256,209.082397 
	C133.646393,209.421555 132.708130,209.746185 131.386414,210.031250 
z"/>
<path fill="#276BB6" opacity="1.000000" stroke="none" 
	d="
M101.739166,16.075020 
	C101.723732,16.225283 101.471397,16.338951 101.128708,16.306038 
	C101.038353,16.159456 101.502266,16.038422 101.739166,16.075020 
z"/>
<path fill="#FBFCFD" opacity="1.000000" stroke="none" 
	d="
M140.124908,58.040035 
	C141.986343,56.894169 143.464676,55.735828 145.140137,55.084633 
	C149.546768,53.371902 153.997894,53.130062 157.875626,56.338226 
	C161.654343,59.464489 162.536011,63.881729 160.869644,68.131775 
	C159.086441,72.679840 156.788528,77.266266 153.705872,81.003296 
	C149.930206,85.580460 145.106659,89.293213 140.379639,93.713058 
	C141.677658,97.009796 143.289398,99.263084 148.156662,98.251251 
	C151.530884,97.549805 155.357437,98.441162 158.849915,99.215805 
	C160.031616,99.477905 161.703033,101.688515 161.550247,102.785835 
	C161.347626,104.241096 159.777298,106.322945 158.438675,106.642052 
	C155.101944,107.437485 151.554565,107.307632 148.109589,107.704056 
	C145.402390,108.015579 142.403259,107.927307 140.080658,109.099854 
	C123.866257,117.285416 119.843864,142.533737 132.506958,155.519653 
	C138.919479,162.095612 149.036224,163.275177 156.225433,158.285065 
	C163.724411,153.079941 166.761032,141.686157 162.683777,133.747559 
	C160.586548,129.664078 157.283264,127.419243 152.549133,128.068680 
	C147.378098,128.778046 144.762146,133.937775 147.123749,138.562241 
	C147.423508,139.149231 147.833344,139.687454 148.240036,140.211105 
	C150.170044,142.696182 153.128952,145.506805 149.427521,148.228378 
	C146.196457,150.604080 142.579361,149.024887 140.068192,146.216980 
	C136.128616,141.811905 134.919113,136.615311 136.826080,130.903000 
	C139.099472,124.093155 143.980072,120.125122 150.939682,119.080467 
	C166.215210,116.787575 178.088562,131.031998 174.593979,147.246704 
	C171.843262,160.009888 161.698135,169.059006 148.755081,170.973892 
	C139.978058,172.272415 132.600510,169.316162 126.028770,164.201492 
	C118.720284,158.513443 114.925316,150.567093 114.083672,141.407227 
	C112.485886,124.017975 119.605873,111.088051 134.772888,102.459831 
	C134.569824,101.923973 134.489395,101.412529 134.214264,101.048080 
	C133.643341,100.291794 132.969055,99.613518 132.476944,99.060226 
	C123.720909,104.472679 115.126610,109.539360 106.866631,115.102432 
	C105.252777,116.189362 104.553879,119.121826 104.088196,121.340599 
	C102.254364,130.078049 101.575424,139.164032 98.810547,147.575928 
	C94.255569,161.434052 84.329582,169.817444 69.484352,171.879639 
	C63.390640,172.726166 53.948982,164.134140 53.033840,156.480743 
	C51.784466,146.032104 56.348717,137.696243 64.011314,131.542114 
	C71.347420,125.650185 79.709953,121.028290 87.677292,115.935715 
	C89.770042,114.598076 92.154327,113.713745 94.232162,112.356964 
	C95.023819,111.840012 95.330803,110.580826 95.858673,109.659912 
	C94.738464,109.300354 93.628227,108.703026 92.494949,108.655540 
	C91.567551,108.616669 90.629265,109.296249 89.667366,109.549156 
	C82.098923,111.539017 76.307274,108.803101 72.575546,101.895515 
	C71.776512,100.416473 70.097931,98.973419 68.510902,98.430382 
	C58.050858,94.851280 53.240818,83.901711 58.044170,73.877945 
	C58.732742,72.441017 59.848022,71.029915 61.129147,70.116379 
	C62.032024,69.472565 63.863209,69.169716 64.703438,69.674393 
	C65.512550,70.160385 65.954582,71.895355 65.904274,73.053177 
	C65.760880,76.353424 64.950821,79.646545 65.023087,82.928825 
	C65.115128,87.109062 66.577316,88.557892 69.979370,89.627831 
	C72.441238,82.605904 74.034241,75.132118 77.613457,68.776962 
	C80.495705,63.659321 85.319511,59.269226 90.140251,55.723316 
	C94.104416,52.807461 99.400490,52.768196 103.700554,56.128422 
	C108.051750,59.528595 107.657036,64.427559 106.458755,68.987564 
	C103.242798,81.225670 95.540031,90.073639 84.729424,96.368912 
	C83.733131,96.949074 82.701218,97.468056 81.469383,98.132149 
	C82.207664,101.642265 84.537727,102.791298 87.616020,102.129150 
	C93.235191,100.920448 97.533386,98.034088 99.886429,92.377571 
	C101.453110,88.611397 103.383385,84.794167 106.026535,81.763412 
	C107.348541,80.247551 110.631149,80.441536 113.026993,79.862167 
	C113.297066,82.271652 114.361320,84.956131 113.645271,87.024178 
	C112.648521,89.902916 110.075386,92.192680 108.622566,94.967812 
	C106.891418,98.274590 105.631790,101.828209 104.167885,105.274887 
	C104.763161,105.698296 105.358437,106.121704 105.953712,106.545113 
	C113.273132,101.766251 120.677315,97.107590 127.816383,92.072998 
	C128.833420,91.355774 128.902100,88.802582 128.836868,87.121346 
	C128.401840,75.909966 131.485443,66.097435 140.124908,58.040035 
M66.968346,142.599075 
	C65.637253,145.947586 63.618885,149.198456 63.126129,152.666092 
	C62.250839,158.825638 65.420944,161.632095 71.590942,161.152802 
	C78.024178,160.653061 82.874710,157.040359 85.274033,151.605392 
	C88.788872,143.643600 91.115005,135.151474 93.801758,126.838188 
	C94.072052,126.001839 93.559898,124.149002 93.023163,123.976875 
	C91.956696,123.634880 90.283615,123.704033 89.447571,124.355629 
	C82.021873,130.143173 74.724541,136.095413 66.968346,142.599075 
M91.636063,64.018433 
	C85.594757,70.744072 81.849823,78.392288 81.771645,87.606850 
	C89.527367,82.831551 95.043961,76.414673 97.953667,68.054443 
	C98.491516,66.509087 97.470230,64.421082 97.168564,62.583534 
	C95.509506,62.899616 93.850456,63.215698 91.636063,64.018433 
M140.177811,73.943230 
	C139.692535,76.518974 139.207260,79.094711 138.624969,82.185440 
	C144.186371,80.308716 152.743454,69.884911 152.802292,65.608429 
	C152.815918,64.618614 152.208878,63.081680 151.464767,62.752773 
	C150.476074,62.315762 148.483597,62.336761 147.947403,62.995426 
	C145.289627,66.260208 142.969238,69.799637 140.177811,73.943230 
z"/>
<path fill="#3C74B9" opacity="1.000000" stroke="none" 
	d="
M67.178841,142.299072 
	C74.724541,136.095413 82.021873,130.143173 89.447571,124.355629 
	C90.283615,123.704033 91.956696,123.634880 93.023163,123.976875 
	C93.559898,124.149002 94.072052,126.001839 93.801758,126.838188 
	C91.115005,135.151474 88.788872,143.643600 85.274033,151.605392 
	C82.874710,157.040359 78.024178,160.653061 71.590942,161.152802 
	C65.420944,161.632095 62.250839,158.825638 63.126129,152.666092 
	C63.618885,149.198456 65.637253,145.947586 67.178841,142.299072 
z"/>
<path fill="#3E75BA" opacity="1.000000" stroke="none" 
	d="
M91.913727,63.775108 
	C93.850456,63.215698 95.509506,62.899616 97.168564,62.583534 
	C97.470230,64.421082 98.491516,66.509087 97.953667,68.054443 
	C95.043961,76.414673 89.527367,82.831551 81.771645,87.606850 
	C81.849823,78.392288 85.594757,70.744072 91.913727,63.775108 
z"/>
<path fill="#3E76BA" opacity="1.000000" stroke="none" 
	d="
M140.353882,73.592758 
	C142.969238,69.799637 145.289627,66.260208 147.947403,62.995426 
	C148.483597,62.336761 150.476074,62.315762 151.464767,62.752773 
	C152.208878,63.081680 152.815918,64.618614 152.802292,65.608429 
	C152.743454,69.884911 144.186371,80.308716 138.624969,82.185440 
	C139.207260,79.094711 139.692535,76.518974 140.353882,73.592758 
z"/>
</svg>