<svg version="1.1" id="Layer_1" xmlns="http://www.w3.org/2000/svg" xmlns:xlink="http://www.w3.org/1999/xlink" x="0px" y="0px"
	 width="100%" viewBox="0 0 222 227" enable-background="new 0 0 222 227" xml:space="preserve">
<path fill="#FFFEFE" opacity="1.000000" stroke="none" 
	d="
M126.000000,1.000001 
	C158.262817,1.000000 190.525620,1.000000 223.000000,1.000000 
	C223.000000,35.353939 223.000000,69.708313 222.662109,104.323891 
	C221.832367,101.377518 221.340530,98.169945 220.852966,94.718750 
	C220.683945,94.120316 220.409622,94.004250 219.570175,94.041878 
	C184.728134,94.007439 150.350189,94.058067 115.737564,94.070564 
	C115.502869,94.032440 115.055412,94.193466 114.686447,94.384247 
	C114.317490,108.935081 114.317490,123.295135 114.317490,138.000092 
	C134.853943,138.000092 154.752563,138.000092 175.017014,138.000092 
	C172.293427,152.756332 164.120392,163.380600 152.498856,172.067963 
	C130.367386,185.266205 107.910141,187.544479 84.822418,175.832047 
	C67.986244,167.291046 57.007160,153.530228 50.440739,135.575531 
	C45.893475,121.154526 46.203285,107.153938 50.661263,92.882553 
	C61.966686,63.120152 87.066124,45.241405 116.537872,46.131893 
	C132.200424,46.605137 145.899704,52.319218 156.830170,62.333565 
	C167.775970,51.574345 178.548889,40.985058 189.519485,30.201462 
	C184.863190,26.568930 180.376343,22.513666 175.365158,19.267944 
	C162.635880,11.023250 149.052338,4.823831 133.686813,3.250940 
	C131.075104,2.983593 128.559830,1.774184 126.000000,1.000001 
z"/>
<path fill="#EA4335" opacity="1.000000" stroke="none" 
	d="
M125.531464,1.000001 
	C128.559830,1.774184 131.075104,2.983593 133.686813,3.250940 
	C149.052338,4.823831 162.635880,11.023250 175.365158,19.267944 
	C180.376343,22.513666 184.863190,26.568930 189.519485,30.201462 
	C178.548889,40.985058 167.775970,51.574345 156.830170,62.333565 
	C145.899704,52.319218 132.200424,46.605137 116.537872,46.131893 
	C87.066124,45.241405 61.966686,63.120152 50.444641,92.586884 
	C37.768318,83.017403 25.510464,73.462639 13.319319,63.582184 
	C20.781507,48.696068 30.660034,36.067360 43.546883,26.039579 
	C55.852676,16.463942 68.913101,8.295036 84.821198,5.736457 
	C90.325676,4.851145 95.613312,2.617673 101.000000,1.000000 
	C101.000000,1.000000 101.500000,1.000000 101.862297,1.305383 
	C103.149727,1.407177 104.074867,1.203589 105.000000,1.000000 
	C111.687645,1.000000 118.375290,1.000000 125.531464,1.000001 
z"/>
<path fill="#34A853" opacity="1.000000" stroke="none" 
	d="
M50.530365,135.983643 
	C57.007160,153.530228 67.986244,167.291046 84.822418,175.832047 
	C107.910141,187.544479 130.367386,185.266205 152.682510,172.359604 
	C165.151917,181.796646 177.105331,191.026718 188.905518,200.539917 
	C175.131516,213.268768 159.198715,221.185349 141.211014,225.058334 
	C136.482117,226.076523 131.737427,227.021439 127.000000,228.000000 
	C118.979103,228.000000 110.958199,228.000000 102.289719,227.636383 
	C98.855522,226.849976 96.040634,226.561890 93.286545,225.984039 
	C57.003178,218.371490 30.233215,198.214706 13.588070,164.986237 
	C26.119246,155.193008 38.324806,145.588333 50.530365,135.983643 
z"/>
<path fill="#4385F4" opacity="1.000000" stroke="none" 
	d="
M189.058762,200.256775 
	C177.105331,191.026718 165.151917,181.796646 153.014832,172.274948 
	C164.120392,163.380600 172.293427,152.756332 175.017014,138.000092 
	C154.752563,138.000092 134.853943,138.000092 114.317490,138.000092 
	C114.317490,123.295135 114.317490,108.935081 114.781868,94.521065 
	C115.246246,94.467102 115.688255,94.501442 115.688255,94.501442 
	C115.688255,94.501442 115.972260,94.108688 115.972260,94.108688 
	C150.350189,94.058067 184.728134,94.007439 219.655609,94.224945 
	C220.366501,94.722397 220.581009,94.878822 220.848679,94.962364 
	C221.340530,98.169945 221.832367,101.377518 222.662109,104.792549 
	C223.000000,107.700012 223.000000,110.400032 222.703506,113.832092 
	C222.294449,117.731506 222.181870,120.898857 222.056091,124.430725 
	C222.361923,125.863487 222.680969,126.931747 223.000000,128.000000 
	C223.000000,128.444443 223.000000,128.888901 222.652527,129.870087 
	C221.550003,135.154236 221.034012,139.954453 219.998993,144.639999 
	C215.227600,166.239990 205.827728,185.309906 189.058762,200.256775 
z"/>
<path fill="#FBBC06" opacity="1.000000" stroke="none" 
	d="
M50.440742,135.575531 
	C38.324806,145.588333 26.119246,155.193008 13.430182,164.710999 
	C9.940370,156.307770 6.818418,148.030457 3.979965,139.657043 
	C2.696155,135.869827 1.975915,131.891586 1.000000,128.000000 
	C1.000000,119.312439 1.000000,110.624870 1.347321,101.289566 
	C3.883793,87.873772 7.004564,75.398842 13.252609,63.907883 
	C25.510464,73.462639 37.768318,83.017403 50.242790,92.867844 
	C46.203285,107.153938 45.893475,121.154526 50.440742,135.575531 
z"/>
<path fill="#FEFEFE" opacity="1.000000" stroke="none" 
	d="
M1.000000,128.468658 
	C1.975915,131.891586 2.696155,135.869827 3.979965,139.657043 
	C6.818418,148.030457 9.940370,156.307770 13.104568,164.899521 
	C30.233215,198.214706 57.003178,218.371490 93.286545,225.984039 
	C96.040634,226.561890 98.855522,226.849976 101.821075,227.636383 
	C68.406761,228.000000 34.813522,228.000000 1.000000,228.000000 
	C1.000000,194.979431 1.000000,161.958374 1.000000,128.468658 
z"/>
<path fill="#FFFEFE" opacity="1.000000" stroke="none" 
	d="
M13.319317,63.582184 
	C7.004564,75.398842 3.883793,87.873772 1.347321,100.820908 
	C1.000000,67.739731 1.000000,34.479462 1.000000,1.000000 
	C34.020573,1.000000 67.041626,1.000000 100.531342,1.000000 
	C95.613312,2.617673 90.325676,4.851145 84.821198,5.736457 
	C68.913101,8.295036 55.852676,16.463942 43.546883,26.039579 
	C30.660034,36.067360 20.781507,48.696068 13.319317,63.582184 
z"/>
<path fill="#FEFEFE" opacity="1.000000" stroke="none" 
	d="
M188.905518,200.539917 
	C205.827728,185.309906 215.227600,166.239990 219.998993,144.639999 
	C221.034012,139.954453 221.550003,135.154236 222.652527,130.203415 
	C223.000000,162.592834 223.000000,195.185684 223.000000,228.000000 
	C191.312790,228.000000 159.625046,228.000000 127.468658,228.000000 
	C131.737427,227.021439 136.482117,226.076523 141.211014,225.058334 
	C159.198715,221.185349 175.131516,213.268768 188.905518,200.539917 
z"/>
<path fill="#709EF6" opacity="1.000000" stroke="none" 
	d="
M222.069305,124.066216 
	C222.181870,120.898857 222.294449,117.731506 222.703506,114.282074 
	C223.000000,117.030594 223.000000,120.061188 222.766739,123.554176 
	C222.533478,124.016571 222.069305,124.066216 222.069305,124.066216 
z"/>
<path fill="#A5C0F9" opacity="1.000000" stroke="none" 
	d="
M222.056091,124.430725 
	C222.069305,124.066216 222.533478,124.016571 222.766739,124.008286 
	C223.000000,125.066673 223.000000,126.133339 223.000000,127.600006 
	C222.680969,126.931747 222.361923,125.863487 222.056091,124.430725 
z"/>
<path fill="#F6B7B3" opacity="1.000000" stroke="none" 
	d="
M104.625000,1.000000 
	C104.074867,1.203589 103.149727,1.407177 102.112297,1.305383 
	C102.750000,1.000000 103.500000,1.000000 104.625000,1.000000 
z"/>
<path fill="#2B7BF3" opacity="1.000000" stroke="none" 
	d="
M115.737564,94.070564 
	C115.972260,94.108688 115.688255,94.501442 115.688255,94.501442 
	C115.688255,94.501442 115.246246,94.467102 115.150833,94.330284 
	C115.055412,94.193466 115.502869,94.032440 115.737564,94.070564 
z"/>
<path fill="#2B7BF3" opacity="1.000000" stroke="none" 
	d="
M220.852966,94.718750 
	C220.581009,94.878822 220.366501,94.722397 220.119720,94.310013 
	C220.409622,94.004250 220.683945,94.120316 220.852966,94.718750 
z"/>
</svg>