<svg version="1.1" id="Layer_1" xmlns="http://www.w3.org/2000/svg" xmlns:xlink="http://www.w3.org/1999/xlink" x="0px" y="0px"
	 width="100%" viewBox="0 0 225 225" enable-background="new 0 0 225 225" xml:space="preserve">
<path fill="#0196D6" opacity="1.000000" stroke="none" 
	d="
M1.000000,109.000000 
	C1.000000,106.629440 1.000000,104.258888 1.356508,101.291306 
	C2.070843,99.070801 2.483616,97.457230 2.778462,95.822395 
	C10.099705,55.228264 32.757542,26.691439 70.371490,9.975946 
	C74.225525,8.263231 78.309669,7.068344 83.138603,5.325894 
	C63.819351,58.423084 44.901855,110.416092 25.874619,162.710693 
	C34.205582,162.710693 41.850895,162.710693 49.684689,162.710693 
	C50.466972,160.644196 51.247192,158.644409 51.983562,156.628616 
	C60.926414,132.147812 69.920212,107.685280 78.725349,83.155022 
	C79.779167,80.219170 80.971115,78.835709 84.268761,79.073196 
	C88.571564,79.383072 92.913528,79.149040 97.926796,79.149040 
	C87.763321,107.146187 77.745529,134.742035 67.542557,162.847992 
	C75.217560,162.847992 81.879837,163.001480 88.523575,162.718964 
	C89.857719,162.662216 91.769287,161.221024 92.304779,159.950409 
	C94.559044,154.601593 96.392563,149.075455 98.380356,143.614334 
	C105.420052,124.273941 112.507378,104.950706 119.482422,85.587036 
	C123.904457,73.310860 117.968819,64.701683 104.942650,64.335983 
	C101.779732,64.247192 98.612343,64.317039 95.447006,64.315720 
	C92.370720,64.314438 89.294434,64.315445 85.657799,64.315445 
	C87.302635,59.759975 88.621300,56.031170 89.992996,52.321980 
	C96.320587,35.211662 102.662941,18.106813 109.000000,1.000000 
	C114.022095,1.000000 119.044182,1.000000 124.700226,1.364422 
	C127.293121,2.081718 129.256226,2.413127 131.210419,2.790613 
	C178.475983,11.920759 208.750092,39.689026 222.158249,85.858292 
	C223.698898,91.163330 224.731720,96.615860 226.000000,102.000000 
	C226.000000,104.041664 226.000000,106.083336 225.709930,108.834473 
	C225.613235,112.362625 225.806625,115.181313 226.000000,118.000000 
	C226.000000,120.370560 226.000000,122.741112 225.640015,125.714981 
	C224.924835,127.941513 224.535583,129.558105 224.219376,131.188889 
	C215.058060,178.435944 187.336014,208.757767 141.144989,222.157867 
	C135.838394,223.697327 130.385208,224.731537 125.000000,226.000000 
	C120.643097,226.000000 116.286201,226.000000 111.439896,225.601959 
	C111.003960,224.546356 110.914803,223.837128 111.131577,223.238739 
	C118.088593,204.034729 125.016708,184.819504 132.186356,165.694885 
	C132.674423,164.392975 134.985519,163.025391 136.489563,162.977844 
	C144.813919,162.714691 153.150925,162.861038 161.483582,162.848526 
	C171.198624,162.833954 175.842178,159.650513 179.152283,150.607422 
	C186.970810,129.247406 194.757599,107.875740 202.540924,86.502846 
	C207.448257,73.027458 201.513824,64.401337 187.228241,64.328751 
	C174.896210,64.266090 162.557968,64.526062 150.234467,64.196182 
	C146.153107,64.086922 144.466187,65.477905 143.145767,69.152214 
	C130.844711,103.382294 118.376198,137.552216 105.942940,171.734741 
	C99.822624,188.561234 93.674423,205.377563 87.483055,222.351410 
	C85.880989,222.057404 84.550667,221.949081 83.305389,221.565018 
	C42.973351,209.125397 16.851692,182.638947 5.008905,142.134781 
	C3.454986,136.820145 2.325870,131.381317 1.000000,126.000000 
	C1.000000,123.629440 1.000000,121.258888 1.290023,118.172089 
	C1.386697,114.637230 1.193348,111.818611 1.000000,109.000000 
z"/>
<path fill="#FCFEFE" opacity="1.000000" stroke="none" 
	d="
M1.000000,126.468658 
	C2.325870,131.381317 3.454986,136.820145 5.008905,142.134781 
	C16.851692,182.638947 42.973351,209.125397 83.305389,221.565018 
	C84.550667,221.949081 85.880989,222.057404 87.483055,222.351410 
	C93.674423,205.377563 99.822624,188.561234 105.942940,171.734741 
	C118.376198,137.552216 130.844711,103.382294 143.145767,69.152214 
	C144.466187,65.477905 146.153107,64.086922 150.234467,64.196182 
	C162.557968,64.526062 174.896210,64.266090 187.228241,64.328751 
	C201.513824,64.401337 207.448257,73.027458 202.540924,86.502846 
	C194.757599,107.875740 186.970810,129.247406 179.152283,150.607422 
	C175.842178,159.650513 171.198624,162.833954 161.483582,162.848526 
	C153.150925,162.861038 144.813919,162.714691 136.489563,162.977844 
	C134.985519,163.025391 132.674423,164.392975 132.186356,165.694885 
	C125.016708,184.819504 118.088593,204.034729 111.131577,223.238739 
	C110.914803,223.837128 111.003960,224.546356 110.975250,225.601959 
	C74.409866,226.000000 37.819736,226.000000 1.000000,226.000000 
	C1.000000,192.979462 1.000000,159.958389 1.000000,126.468658 
M151.275314,112.815308 
	C147.115707,124.380165 142.956085,135.945023 138.640533,147.943436 
	C143.843765,147.943436 148.175674,147.729919 152.474472,148.015350 
	C155.556870,148.220001 156.803680,146.949997 157.775375,144.203857 
	C163.192368,128.894623 168.785065,113.647537 174.324280,98.381592 
	C176.612076,92.076439 178.916321,85.777237 181.356125,79.082878 
	C176.119598,79.082878 171.619751,79.308113 167.155991,79.003830 
	C164.171432,78.800385 163.138260,80.179886 162.270615,82.652031 
	C158.812149,92.506088 155.197540,102.305344 151.275314,112.815308 
z"/>
<path fill="#FCFEFE" opacity="1.000000" stroke="none" 
	d="
M108.531342,1.000000 
	C102.662941,18.106813 96.320587,35.211662 89.992996,52.321980 
	C88.621300,56.031170 87.302635,59.759975 85.657799,64.315445 
	C89.294434,64.315445 92.370720,64.314438 95.447006,64.315720 
	C98.612343,64.317039 101.779732,64.247192 104.942650,64.335983 
	C117.968819,64.701683 123.904457,73.310860 119.482422,85.587036 
	C112.507378,104.950706 105.420052,124.273941 98.380356,143.614334 
	C96.392563,149.075455 94.559044,154.601593 92.304779,159.950409 
	C91.769287,161.221024 89.857719,162.662216 88.523575,162.718964 
	C81.879837,163.001480 75.217560,162.847992 67.542557,162.847992 
	C77.745529,134.742035 87.763321,107.146187 97.926796,79.149040 
	C92.913528,79.149040 88.571564,79.383072 84.268761,79.073196 
	C80.971115,78.835709 79.779167,80.219170 78.725349,83.155022 
	C69.920212,107.685280 60.926414,132.147812 51.983562,156.628616 
	C51.247192,158.644409 50.466972,160.644196 49.684689,162.710693 
	C41.850895,162.710693 34.205582,162.710693 25.874619,162.710693 
	C44.901855,110.416092 63.819351,58.423084 83.138603,5.325894 
	C78.309669,7.068344 74.225525,8.263231 70.371490,9.975946 
	C32.757542,26.691439 10.099705,55.228264 2.778462,95.822395 
	C2.483616,97.457230 2.070843,99.070801 1.356508,100.847137 
	C1.000000,67.736916 1.000000,34.473824 1.000000,1.000000 
	C36.687286,1.000000 72.374985,1.000000 108.531342,1.000000 
z"/>
<path fill="#FDFEFF" opacity="1.000000" stroke="none" 
	d="
M226.000000,101.531342 
	C224.731720,96.615860 223.698898,91.163330 222.158249,85.858292 
	C208.750092,39.689026 178.475983,11.920759 131.210419,2.790613 
	C129.256226,2.413127 127.293121,2.081718 125.167084,1.364422 
	C158.593597,1.000000 192.187195,1.000000 226.000000,1.000000 
	C226.000000,34.353909 226.000000,67.708298 226.000000,101.531342 
z"/>
<path fill="#FDFEFF" opacity="1.000000" stroke="none" 
	d="
M125.468658,226.000000 
	C130.385208,224.731537 135.838394,223.697327 141.144989,222.157867 
	C187.336014,208.757767 215.058060,178.435944 224.219376,131.188889 
	C224.535583,129.558105 224.924835,127.941513 225.640015,126.159149 
	C226.000000,159.260635 226.000000,192.521255 226.000000,226.000000 
	C192.646088,226.000000 159.291702,226.000000 125.468658,226.000000 
z"/>
<path fill="#66B6E2" opacity="1.000000" stroke="none" 
	d="
M1.000000,109.449982 
	C1.193348,111.818611 1.386697,114.637230 1.290023,117.727921 
	C1.000000,115.299988 1.000000,112.599968 1.000000,109.449982 
z"/>
<path fill="#66B6E2" opacity="1.000000" stroke="none" 
	d="
M226.000000,117.550018 
	C225.806625,115.181313 225.613235,112.362625 225.709930,109.271973 
	C226.000000,111.700012 226.000000,114.400032 226.000000,117.550018 
z"/>
<path fill="#0497D6" opacity="1.000000" stroke="none" 
	d="
M151.458023,112.470093 
	C155.197540,102.305344 158.812149,92.506088 162.270615,82.652031 
	C163.138260,80.179886 164.171432,78.800385 167.155991,79.003830 
	C171.619751,79.308113 176.119598,79.082878 181.356125,79.082878 
	C178.916321,85.777237 176.612076,92.076439 174.324280,98.381592 
	C168.785065,113.647537 163.192368,128.894623 157.775375,144.203857 
	C156.803680,146.949997 155.556870,148.220001 152.474472,148.015350 
	C148.175674,147.729919 143.843765,147.943436 138.640533,147.943436 
	C142.956085,135.945023 147.115707,124.380165 151.458023,112.470093 
z"/>
</svg>