<svg version="1.1" id="Layer_1" xmlns="http://www.w3.org/2000/svg" xmlns:xlink="http://www.w3.org/1999/xlink" x="0px" y="0px"
	 width="100%" viewBox="0 0 376 134" enable-background="new 0 0 376 134" xml:space="preserve">
<path fill="#FDFDFD" opacity="1.000000" stroke="none" 
	d="
M246.000000,135.000000 
	C164.000015,135.000000 82.500023,135.000000 1.000022,135.000000 
	C1.000015,90.333351 1.000015,45.666698 1.000007,1.000034 
	C126.333305,1.000023 251.666611,1.000023 376.999939,1.000011 
	C376.999939,45.666630 376.999939,90.333260 376.999969,134.999939 
	C333.500000,135.000000 290.000000,135.000000 246.000000,135.000000 
M289.234558,80.614059 
	C288.460388,80.621101 287.686188,80.628151 286.268555,80.978470 
	C286.432861,81.863853 286.597137,82.749237 286.761444,83.634621 
	C287.650452,82.787529 288.539459,81.940445 289.234558,80.614059 
M152.914093,98.040504 
	C152.914093,98.040504 153.073074,98.165009 153.073074,98.165009 
	C153.073074,98.165009 152.856628,98.136276 152.926575,97.421783 
	C151.743912,95.684761 150.561234,93.947739 149.378571,92.210716 
	C149.009109,92.417999 148.639633,92.625275 148.270172,92.832558 
	C148.270172,97.871857 148.270172,102.911156 148.270172,107.950455 
	C148.652512,107.988792 149.034836,108.027130 149.417175,108.065460 
	C149.618179,104.383904 149.819199,100.702347 150.033630,96.774719 
	C151.289551,97.390427 152.135696,97.805244 152.914093,98.040504 
M228.784286,107.091484 
	C232.610168,104.211525 233.446442,98.021408 230.467758,94.630196 
	C227.721451,91.503525 222.669464,91.473831 218.950272,94.796745 
	C223.166977,94.559944 228.114929,91.857231 229.979095,97.917046 
	C230.951996,101.079651 231.398087,104.565178 226.217300,105.995247 
	C223.922409,106.192955 221.627518,106.390663 218.573608,106.653755 
	C223.464737,109.788994 225.177673,109.798286 228.784286,107.091484 
M249.493744,58.020958 
	C254.112045,58.020958 258.730347,58.020958 263.301575,58.020958 
	C265.229156,32.459579 255.308914,25.714478 234.440536,27.935434 
	C224.857773,28.955296 217.728226,34.668591 216.137039,44.190617 
	C214.917862,51.486568 214.648865,59.108360 215.214661,66.488838 
	C215.787888,73.966438 218.867249,80.881950 226.509506,84.023911 
	C239.030182,89.171539 251.040375,87.903625 262.926788,80.205811 
	C261.724609,78.695511 260.791504,77.523285 259.931091,76.442360 
	C249.475616,83.277962 238.799713,84.618614 228.272995,79.203026 
	C220.081406,74.988777 219.819290,66.518860 219.841629,58.452904 
	C220.412231,58.257915 220.719162,58.062046 221.026596,58.061199 
	C230.182846,58.035927 239.339157,58.029968 249.493744,58.020958 
M179.509827,66.029785 
	C182.336517,66.029778 185.163239,66.034821 187.989914,66.028908 
	C203.104279,65.997330 209.578140,58.971107 208.289795,44.000790 
	C207.607620,36.074097 203.902817,30.643131 196.069061,29.964161 
	C185.103439,29.013742 173.993866,29.724352 163.096313,29.724352 
	C163.096313,48.279964 163.096313,66.997612 163.096313,85.946136 
	C164.812302,85.829010 166.209702,85.733627 168.077667,85.606125 
	C168.077667,78.898560 168.077667,72.519730 168.077667,66.029785 
	C171.889008,66.029785 175.202881,66.029785 179.509827,66.029785 
M82.321793,71.699745 
	C82.321793,57.466572 82.321793,43.233398 82.321793,28.828775 
	C80.876015,28.911097 79.446243,28.992508 77.751854,29.088984 
	C77.751854,30.718529 77.752174,32.025124 77.751793,33.331718 
	C77.748589,44.480854 77.893585,55.632603 77.697548,66.778351 
	C77.524002,76.645027 74.127571,80.734856 65.326675,81.742790 
	C61.554085,82.174866 57.647346,82.155663 53.874374,81.716255 
	C45.728016,80.767517 42.361847,77.426826 41.636017,69.285522 
	C41.135342,63.669746 41.362743,57.985764 41.334953,52.331921 
	C41.296909,44.591507 41.325447,36.850761 41.325447,29.054966 
	C39.265720,29.054966 37.828842,29.054966 36.762550,29.054966 
	C36.762550,43.676064 36.357296,58.128113 36.924564,72.541885 
	C37.232372,80.363083 42.105057,85.041061 49.907772,85.905586 
	C56.111488,86.592949 62.500626,86.615601 68.711159,85.985054 
	C77.044243,85.138992 80.800468,80.928413 82.321793,71.699745 
M127.024879,29.122217 
	C120.745064,28.739704 114.437401,27.792414 108.191643,28.100491 
	C97.499168,28.627905 92.156693,34.358334 91.961823,44.992115 
	C91.720932,58.137405 91.832756,71.289246 91.822037,84.438286 
	C91.821671,84.882103 92.144356,85.326187 92.379883,85.933754 
	C93.827400,85.837601 95.232155,85.744286 97.007782,85.626335 
	C97.007782,71.988213 96.904213,58.693962 97.049683,45.402439 
	C97.127213,38.318249 100.463203,34.234890 107.053635,33.215282 
	C110.794624,32.636509 114.697006,32.457878 118.462570,32.801620 
	C129.747192,33.831753 132.947952,37.482410 132.966003,48.676006 
	C132.985825,60.956276 132.970520,73.236603 132.970520,85.561417 
	C134.912567,85.561417 136.432251,85.561417 138.027130,85.561417 
	C138.027130,71.443451 138.240051,57.635124 137.936172,43.838173 
	C137.787048,37.067413 134.721298,31.713060 127.024879,29.122217 
M299.467163,31.362078 
	C299.584930,29.475935 299.830597,27.538157 296.899109,27.812494 
	C291.949890,28.275650 286.881409,28.173979 282.073212,29.249378 
	C276.433014,30.510864 272.305450,34.604404 272.131195,40.391899 
	C271.676849,55.477844 271.978302,70.586555 271.978302,85.685898 
	C273.165100,85.685898 274.606934,85.685898 276.340973,85.685898 
	C276.340973,83.486710 276.323608,81.499519 276.343811,79.512718 
	C276.463928,67.690704 276.247040,55.851154 276.848419,44.053440 
	C277.207916,37.001678 280.971100,33.861931 288.064911,33.042492 
	C291.793610,32.611774 295.553772,32.453903 299.467163,31.362078 
M27.075872,65.499374 
	C27.075872,53.401215 27.075872,41.303059 27.075872,28.868328 
	C25.094219,28.964872 23.585234,29.038391 21.957850,29.117678 
	C21.957850,45.890545 22.015921,62.178978 21.936110,78.466736 
	C21.888092,88.266060 17.900314,92.384850 8.217931,93.017464 
	C6.263953,93.145126 4.310821,93.285706 2.292552,93.424797 
	C2.292552,95.071106 2.292552,96.449875 2.292552,97.976334 
	C4.866585,97.976334 7.189680,98.147697 9.480297,97.947487 
	C21.124395,96.929749 26.438408,91.812912 26.966934,80.965370 
	C27.201416,76.152878 27.051373,71.321640 27.075872,65.499374 
M149.568283,28.985123 
	C149.045547,30.291607 148.079788,31.594299 148.068573,32.905155 
	C147.955948,46.068005 148.000061,59.232197 148.000046,72.396011 
	C148.000046,76.841454 148.000046,81.286896 148.000046,85.614182 
	C149.983749,85.614182 151.386322,85.614182 153.048553,85.614182 
	C153.048553,67.392769 153.082199,49.418556 152.941055,31.445707 
	C152.934555,30.617811 151.359116,29.802240 149.568283,28.985123 
M244.269592,104.560875 
	C244.975052,103.300903 245.905228,102.111786 246.330353,100.763428 
	C246.889587,98.989655 247.588135,96.963333 247.191422,95.291283 
	C246.936691,94.217720 244.895676,93.079681 243.517212,92.867340 
	C240.999634,92.479530 238.379547,92.757042 236.058105,92.757042 
	C236.058105,98.282928 236.058105,103.127167 236.058105,107.971413 
	C236.333359,107.987396 236.608597,108.003380 236.883850,108.019363 
	C237.045074,106.148102 237.206284,104.276848 237.495621,100.918427 
	C240.884567,102.867035 243.738388,104.507942 246.592209,106.148857 
	C246.398911,106.440575 246.205612,106.732292 246.012314,107.024002 
	C245.547119,106.363228 245.081940,105.702454 244.269592,104.560875 
M168.114517,106.767899 
	C167.487305,105.055077 166.860092,103.342247 165.902145,100.726212 
	C169.709976,100.726212 172.271957,100.726212 174.833954,100.726212 
	C174.830856,100.374916 174.827759,100.023621 174.824661,99.672325 
	C172.157990,99.465218 169.491318,99.258110 166.587509,99.032585 
	C166.686813,97.273674 166.766174,95.868217 166.882690,93.804443 
	C169.727921,93.804443 172.267654,93.804443 174.807388,93.804443 
	C174.777344,93.516937 174.747299,93.229439 174.717239,92.941933 
	C171.519562,92.941933 168.321869,92.941933 165.125458,92.941933 
	C165.125458,98.136780 165.125458,103.053551 165.125458,107.745895 
	C168.572723,107.745895 171.772018,107.745895 174.971329,107.745895 
	C174.952225,107.429039 174.933136,107.112175 174.914032,106.795319 
	C172.969864,106.795319 171.025696,106.795319 168.114517,106.767899 
M253.105804,96.342484 
	C252.959457,95.137489 252.813110,93.932495 252.666779,92.727501 
	C252.411697,92.808670 252.156631,92.889847 251.901550,92.971016 
	C251.901550,98.007225 251.901550,103.043442 251.901550,108.079651 
	C252.437988,108.057159 252.974411,108.034676 253.510849,108.012184 
	C253.375824,104.370789 253.240784,100.729385 253.105804,96.342484 
M160.045776,108.132858 
	C160.452652,103.084930 160.859543,98.036995 161.266418,92.989067 
	C160.504333,92.960709 159.742249,92.932350 158.980164,92.903992 
	C159.073883,97.917603 159.167603,102.931206 160.045776,108.132858 
M181.702637,92.776627 
	C180.569016,92.887871 179.435394,92.999123 178.301773,93.110367 
	C178.308899,93.383011 178.316010,93.655647 178.323135,93.928284 
	C180.053726,94.029350 181.784302,94.130424 184.108185,94.266136 
	C184.108185,98.942795 184.108185,103.341499 184.108185,107.740204 
	C184.482803,107.726494 184.857437,107.712791 185.232056,107.699081 
	C185.232056,103.297073 185.232056,98.895065 185.232056,94.379333 
	C187.399429,94.140900 189.101181,93.953690 190.802948,93.766479 
	C190.795563,93.436516 190.788177,93.106560 190.780807,92.776596 
	C188.066177,92.776596 185.351532,92.776596 181.702637,92.776627 
M218.997421,100.533394 
	C218.893478,99.233345 218.789551,97.933296 218.685623,96.633247 
	C218.145096,96.615936 217.604584,96.598625 217.064056,96.581314 
	C216.858780,98.921219 216.653488,101.261131 216.448196,103.601036 
	C216.861435,103.763145 217.274689,103.925247 217.687943,104.087357 
	C218.123642,103.163979 218.559357,102.240601 218.997421,100.533394 
z"/>
<path fill="#0B0B0B" opacity="1.000000" stroke="none" 
	d="
M248.994598,58.020958 
	C239.339157,58.029968 230.182846,58.035927 221.026596,58.061199 
	C220.719162,58.062046 220.412231,58.257915 219.841629,58.452904 
	C219.819290,66.518860 220.081406,74.988777 228.272995,79.203026 
	C238.799713,84.618614 249.475616,83.277962 259.931091,76.442360 
	C260.791504,77.523285 261.724609,78.695511 262.926788,80.205811 
	C251.040375,87.903625 239.030182,89.171539 226.509506,84.023911 
	C218.867249,80.881950 215.787888,73.966438 215.214661,66.488838 
	C214.648865,59.108360 214.917862,51.486568 216.137039,44.190617 
	C217.728226,34.668591 224.857773,28.955296 234.440536,27.935434 
	C255.308914,25.714478 265.229156,32.459579 263.301575,58.020958 
	C258.730347,58.020958 254.112045,58.020958 248.994598,58.020958 
M232.505463,53.297314 
	C241.188675,53.297314 249.871902,53.297314 258.536377,53.297314 
	C258.376495,37.156799 253.603775,31.108278 237.378647,32.333256 
	C225.379684,33.239162 218.513855,42.171806 220.629303,53.297325 
	C224.233612,53.297325 227.871445,53.297325 232.505463,53.297314 
z"/>
<path fill="#060606" opacity="1.000000" stroke="none" 
	d="
M179.013306,66.029785 
	C175.202881,66.029785 171.889008,66.029785 168.077667,66.029785 
	C168.077667,72.519730 168.077667,78.898560 168.077667,85.606125 
	C166.209702,85.733627 164.812302,85.829010 163.096313,85.946136 
	C163.096313,66.997612 163.096313,48.279964 163.096313,29.724352 
	C173.993866,29.724352 185.103439,29.013742 196.069061,29.964161 
	C203.902817,30.643131 207.607620,36.074097 208.289795,44.000790 
	C209.578140,58.971107 203.104279,65.997330 187.989914,66.028908 
	C185.163239,66.034821 182.336517,66.029778 179.013306,66.029785 
M190.981903,60.926971 
	C199.633377,59.708443 202.917709,56.259571 203.181015,48.116699 
	C203.435379,40.250160 200.154434,34.961395 193.223145,34.391068 
	C184.859741,33.702900 176.396500,34.228096 168.058151,34.228096 
	C168.058151,43.283070 168.058151,51.897808 168.058151,60.940369 
	C175.512848,60.940369 182.794647,60.940369 190.981903,60.926971 
z"/>
<path fill="#090909" opacity="1.000000" stroke="none" 
	d="
M82.264870,72.125732 
	C80.800468,80.928413 77.044243,85.138992 68.711159,85.985054 
	C62.500626,86.615601 56.111488,86.592949 49.907772,85.905586 
	C42.105057,85.041061 37.232372,80.363083 36.924564,72.541885 
	C36.357296,58.128113 36.762550,43.676064 36.762550,29.054966 
	C37.828842,29.054966 39.265720,29.054966 41.325447,29.054966 
	C41.325447,36.850761 41.296909,44.591507 41.334953,52.331921 
	C41.362743,57.985764 41.135342,63.669746 41.636017,69.285522 
	C42.361847,77.426826 45.728016,80.767517 53.874374,81.716255 
	C57.647346,82.155663 61.554085,82.174866 65.326675,81.742790 
	C74.127571,80.734856 77.524002,76.645027 77.697548,66.778351 
	C77.893585,55.632603 77.748589,44.480854 77.751793,33.331718 
	C77.752174,32.025124 77.751854,30.718529 77.751854,29.088984 
	C79.446243,28.992508 80.876015,28.911097 82.321793,28.828775 
	C82.321793,43.233398 82.321793,57.466572 82.264870,72.125732 
z"/>
<path fill="#060606" opacity="1.000000" stroke="none" 
	d="
M127.393692,29.277485 
	C134.721298,31.713060 137.787048,37.067413 137.936172,43.838173 
	C138.240051,57.635124 138.027130,71.443451 138.027130,85.561417 
	C136.432251,85.561417 134.912567,85.561417 132.970520,85.561417 
	C132.970520,73.236603 132.985825,60.956276 132.966003,48.676006 
	C132.947952,37.482410 129.747192,33.831753 118.462570,32.801620 
	C114.697006,32.457878 110.794624,32.636509 107.053635,33.215282 
	C100.463203,34.234890 97.127213,38.318249 97.049683,45.402439 
	C96.904213,58.693962 97.007782,71.988213 97.007782,85.626335 
	C95.232155,85.744286 93.827400,85.837601 92.379883,85.933754 
	C92.144356,85.326187 91.821671,84.882103 91.822037,84.438286 
	C91.832756,71.289246 91.720932,58.137405 91.961823,44.992115 
	C92.156693,34.358334 97.499168,28.627905 108.191643,28.100491 
	C114.437401,27.792414 120.745064,28.739704 127.393692,29.277485 
z"/>
<path fill="#0E0E0E" opacity="1.000000" stroke="none" 
	d="
M299.383453,31.767452 
	C295.553772,32.453903 291.793610,32.611774 288.064911,33.042492 
	C280.971100,33.861931 277.207916,37.001678 276.848419,44.053440 
	C276.247040,55.851154 276.463928,67.690704 276.343811,79.512718 
	C276.323608,81.499519 276.340973,83.486710 276.340973,85.685898 
	C274.606934,85.685898 273.165100,85.685898 271.978302,85.685898 
	C271.978302,70.586555 271.676849,55.477844 272.131195,40.391899 
	C272.305450,34.604404 276.433014,30.510864 282.073212,29.249378 
	C286.881409,28.173979 291.949890,28.275650 296.899109,27.812494 
	C299.830597,27.538157 299.584930,29.475935 299.383453,31.767452 
z"/>
<path fill="#040404" opacity="1.000000" stroke="none" 
	d="
M27.075872,65.999146 
	C27.051373,71.321640 27.201416,76.152878 26.966934,80.965370 
	C26.438408,91.812912 21.124395,96.929749 9.480297,97.947487 
	C7.189680,98.147697 4.866585,97.976334 2.292552,97.976334 
	C2.292552,96.449875 2.292552,95.071106 2.292552,93.424797 
	C4.310821,93.285706 6.263953,93.145126 8.217931,93.017464 
	C17.900314,92.384850 21.888092,88.266060 21.936110,78.466736 
	C22.015921,62.178978 21.957850,45.890545 21.957850,29.117678 
	C23.585234,29.038391 25.094219,28.964872 27.075872,28.868328 
	C27.075872,41.303059 27.075872,53.401215 27.075872,65.999146 
z"/>
<path fill="#010101" opacity="1.000000" stroke="none" 
	d="
M150.041336,28.983027 
	C151.359116,29.802240 152.934555,30.617811 152.941055,31.445707 
	C153.082199,49.418556 153.048553,67.392769 153.048553,85.614182 
	C151.386322,85.614182 149.983749,85.614182 148.000046,85.614182 
	C148.000046,81.286896 148.000046,76.841454 148.000046,72.396011 
	C148.000061,59.232197 147.955948,46.068005 148.068573,32.905155 
	C148.079788,31.594299 149.045547,30.291607 150.041336,28.983027 
z"/>
<path fill="#1B1B1B" opacity="1.000000" stroke="none" 
	d="
M244.443176,104.801277 
	C245.081940,105.702454 245.547119,106.363228 246.012314,107.024002 
	C246.205612,106.732292 246.398911,106.440575 246.592209,106.148857 
	C243.738388,104.507942 240.884567,102.867035 237.495621,100.918427 
	C237.206284,104.276848 237.045074,106.148102 236.883850,108.019363 
	C236.608597,108.003380 236.333359,107.987396 236.058105,107.971413 
	C236.058105,103.127167 236.058105,98.282928 236.058105,92.757042 
	C238.379547,92.757042 240.999634,92.479530 243.517212,92.867340 
	C244.895676,93.079681 246.936691,94.217720 247.191422,95.291283 
	C247.588135,96.963333 246.889587,98.989655 246.330353,100.763428 
	C245.905228,102.111786 244.975052,103.300903 244.443176,104.801277 
M243.036316,94.121162 
	C241.153229,94.121162 239.270157,94.121162 237.430557,94.121162 
	C237.430557,96.536400 237.430557,98.266891 237.430557,101.168259 
	C240.558762,100.216888 243.177475,99.420471 245.796188,98.624054 
	C245.162125,97.158180 244.528076,95.692299 243.036316,94.121162 
z"/>
<path fill="#262626" opacity="1.000000" stroke="none" 
	d="
M168.598022,106.781609 
	C171.025696,106.795319 172.969864,106.795319 174.914032,106.795319 
	C174.933136,107.112175 174.952225,107.429039 174.971329,107.745895 
	C171.772018,107.745895 168.572723,107.745895 165.125458,107.745895 
	C165.125458,103.053551 165.125458,98.136780 165.125458,92.941933 
	C168.321869,92.941933 171.519562,92.941933 174.717239,92.941933 
	C174.747299,93.229439 174.777344,93.516937 174.807388,93.804443 
	C172.267654,93.804443 169.727921,93.804443 166.882690,93.804443 
	C166.766174,95.868217 166.686813,97.273674 166.587509,99.032585 
	C169.491318,99.258110 172.157990,99.465218 174.824661,99.672325 
	C174.827759,100.023621 174.830856,100.374916 174.833954,100.726212 
	C172.271957,100.726212 169.709976,100.726212 165.902145,100.726212 
	C166.860092,103.342247 167.487305,105.055077 168.598022,106.781609 
z"/>
<path fill="#212121" opacity="1.000000" stroke="none" 
	d="
M227.012695,106.004555 
	C231.398087,104.565178 230.951996,101.079651 229.979095,97.917046 
	C228.114929,91.857231 223.166977,94.559944 218.950272,94.796745 
	C222.669464,91.473831 227.721451,91.503525 230.467758,94.630196 
	C233.446442,98.021408 232.610168,104.211525 228.099823,107.067810 
	C227.281143,106.697601 227.146912,106.351074 227.012695,106.004555 
z"/>
<path fill="#313131" opacity="1.000000" stroke="none" 
	d="
M152.981842,98.220055 
	C152.135696,97.805244 151.289551,97.390427 150.033630,96.774719 
	C149.819199,100.702347 149.618179,104.383904 149.417175,108.065460 
	C149.034836,108.027130 148.652512,107.988792 148.270172,107.950455 
	C148.270172,102.911156 148.270172,97.871857 148.270172,92.832558 
	C148.639633,92.625275 149.009109,92.417999 149.378571,92.210716 
	C150.561234,93.947739 151.743912,95.684761 152.932129,97.786201 
	C152.937668,98.150620 152.981842,98.220055 152.981842,98.220055 
z"/>
<path fill="#383838" opacity="1.000000" stroke="none" 
	d="
M253.105774,96.715233 
	C253.240784,100.729385 253.375824,104.370789 253.510849,108.012184 
	C252.974411,108.034676 252.437988,108.057159 251.901550,108.079651 
	C251.901550,103.043442 251.901550,98.007225 251.901550,92.971016 
	C252.156631,92.889847 252.411697,92.808670 252.666779,92.727501 
	C252.813110,93.932495 252.959457,95.137489 253.105774,96.715233 
z"/>
<path fill="#363636" opacity="1.000000" stroke="none" 
	d="
M159.653534,108.038834 
	C159.167603,102.931206 159.073883,97.917603 158.980164,92.903992 
	C159.742249,92.932350 160.504333,92.960709 161.266418,92.989067 
	C160.859543,98.036995 160.452652,103.084930 159.653534,108.038834 
z"/>
<path fill="#000000" opacity="1.000000" stroke="none" 
	d="
M182.169769,92.776611 
	C185.351532,92.776596 188.066177,92.776596 190.780807,92.776596 
	C190.788177,93.106560 190.795563,93.436516 190.802948,93.766479 
	C189.101181,93.953690 187.399429,94.140900 185.232056,94.379333 
	C185.232056,98.895065 185.232056,103.297073 185.232056,107.699081 
	C184.857437,107.712791 184.482803,107.726494 184.108185,107.740204 
	C184.108185,103.341499 184.108185,98.942795 184.108185,94.266136 
	C181.784302,94.130424 180.053726,94.029350 178.323135,93.928284 
	C178.316010,93.655647 178.308899,93.383011 178.301773,93.110367 
	C179.435394,92.999123 180.569016,92.887871 182.169769,92.776611 
z"/>
<path fill="#F6F6F6" opacity="1.000000" stroke="none" 
	d="
M226.614990,105.999901 
	C227.146912,106.351074 227.281143,106.697601 227.711700,107.136917 
	C225.177673,109.798286 223.464737,109.788994 218.573608,106.653755 
	C221.627518,106.390663 223.922409,106.192955 226.614990,105.999901 
z"/>
<path fill="#F6F6F6" opacity="1.000000" stroke="none" 
	d="
M218.996246,100.925308 
	C218.559357,102.240601 218.123642,103.163979 217.687943,104.087357 
	C217.274689,103.925247 216.861435,103.763145 216.448196,103.601036 
	C216.653488,101.261131 216.858780,98.921219 217.064056,96.581314 
	C217.604584,96.598625 218.145096,96.615936 218.685623,96.633247 
	C218.789551,97.933296 218.893478,99.233345 218.996246,100.925308 
z"/>
<path fill="#686868" opacity="1.000000" stroke="none" 
	d="
M289.428467,81.093361 
	C288.539459,81.940445 287.650452,82.787529 286.761444,83.634621 
	C286.597137,82.749237 286.432861,81.863853 286.697174,81.265381 
	C287.893341,81.399315 288.660919,81.246338 289.428467,81.093361 
z"/>
<path fill="#9C9C9C" opacity="1.000000" stroke="none" 
	d="
M289.331512,80.853714 
	C288.660919,81.246338 287.893341,81.399315 287.018921,81.093750 
	C287.686188,80.628151 288.460388,80.621101 289.331512,80.853714 
z"/>
<path fill="#313131" opacity="1.000000" stroke="none" 
	d="
M152.897156,98.143448 
	C152.856628,98.136276 153.073074,98.165009 153.073074,98.165009 
	C153.073074,98.165009 152.914093,98.040504 152.947968,98.130280 
	C152.981842,98.220055 152.937668,98.150620 152.897156,98.143448 
z"/>
<path fill="#FBFBFB" opacity="1.000000" stroke="none" 
	d="
M232.007370,53.297318 
	C227.871445,53.297325 224.233612,53.297325 220.629303,53.297325 
	C218.513855,42.171806 225.379684,33.239162 237.378647,32.333256 
	C253.603775,31.108278 258.376495,37.156799 258.536377,53.297314 
	C249.871902,53.297314 241.188675,53.297314 232.007370,53.297318 
z"/>
<path fill="#FDFDFD" opacity="1.000000" stroke="none" 
	d="
M190.529175,60.933670 
	C182.794647,60.940369 175.512848,60.940369 168.058151,60.940369 
	C168.058151,51.897808 168.058151,43.283070 168.058151,34.228096 
	C176.396500,34.228096 184.859741,33.702900 193.223145,34.391068 
	C200.154434,34.961395 203.435379,40.250160 203.181015,48.116699 
	C202.917709,56.259571 199.633377,59.708443 190.529175,60.933670 
z"/>
<path fill="#F1F1F1" opacity="1.000000" stroke="none" 
	d="
M243.465179,94.173790 
	C244.528076,95.692299 245.162125,97.158180 245.796188,98.624054 
	C243.177475,99.420471 240.558762,100.216888 237.430557,101.168259 
	C237.430557,98.266891 237.430557,96.536400 237.430557,94.121162 
	C239.270157,94.121162 241.153229,94.121162 243.465179,94.173790 
z"/>
</svg>