<svg version="1.1" id="Layer_1" xmlns="http://www.w3.org/2000/svg" xmlns:xlink="http://www.w3.org/1999/xlink" x="0px" y="0px"
	 width="100%" viewBox="0 0 256 197" enable-background="new 0 0 256 197" xml:space="preserve">
<path fill="#E90129" opacity="1.000000" stroke="none" 
	d="
M103.000000,198.000000 
	C101.285835,198.000000 99.571678,198.000000 97.171959,197.764557 
	C89.058479,195.560104 85.953987,189.469467 84.104897,183.092560 
	C80.323723,170.052536 77.485001,156.742233 73.888206,143.644836 
	C70.781059,132.330460 67.460800,121.053024 63.618786,109.972839 
	C62.124371,105.663002 58.463291,102.579971 53.275200,102.645966 
	C48.273563,102.709587 45.207306,105.995468 43.385868,109.949471 
	C41.116074,114.876793 39.718090,120.209084 37.991493,125.382462 
	C35.589142,132.580597 33.894211,140.109024 30.659636,146.907608 
	C27.683010,153.163986 21.046991,152.737534 18.070171,146.417328 
	C16.118595,142.273849 15.220463,137.632706 13.866527,133.209549 
	C10.888393,123.480331 13.106258,112.099670 3.582486,103.832687 
	C6.413475,103.832687 8.220119,103.950089 10.005950,103.807251 
	C13.312256,103.542801 16.606384,103.126106 20.318619,102.797546 
	C28.018057,103.126152 33.295780,99.851593 36.389339,93.413734 
	C38.244835,89.552361 39.756992,85.461754 40.882515,81.326912 
	C43.409050,72.045166 45.242908,62.562805 48.055901,53.375572 
	C49.781456,47.739918 52.114098,42.038597 55.388607,37.186356 
	C60.601257,29.462135 69.170029,29.764011 74.450508,37.447628 
	C76.770851,40.823956 78.771889,44.618633 79.990845,48.513500 
	C82.959885,58.000294 85.082825,67.754890 88.135490,77.211494 
	C90.306000,83.935356 92.429413,91.046539 96.372543,96.738869 
	C102.289444,105.280548 109.891052,104.853798 116.194870,97.616913 
	C119.304451,94.047066 122.235519,89.803314 123.622101,85.357590 
	C126.623093,75.735626 128.438461,65.750854 130.992294,55.980743 
	C134.549957,42.370232 138.000183,28.714697 142.178558,15.290767 
	C144.159149,8.927685 148.541595,3.804133 155.000000,1.000000 
	C156.388885,1.000000 157.777786,1.000000 159.724609,1.330623 
	C163.438690,3.922823 167.307892,5.636734 169.571442,8.583863 
	C172.435181,12.312455 174.749908,16.840931 175.971039,21.382154 
	C179.671066,35.142147 182.522675,49.128365 186.103760,62.922878 
	C188.890091,73.655937 191.862915,84.382248 195.623367,94.797256 
	C196.872696,98.257423 200.628723,102.919876 203.587143,103.187958 
	C208.704788,103.651703 212.200012,99.121529 213.752975,93.940491 
	C214.181183,92.511856 214.574097,91.072662 214.985916,89.639084 
	C216.953674,82.788742 218.728653,75.874519 220.967239,69.113823 
	C222.204941,65.375885 223.821121,61.633835 225.970886,58.355408 
	C229.942108,52.299183 235.344162,52.558723 238.762436,58.856030 
	C240.407730,61.887035 241.586868,65.233681 242.549850,68.561043 
	C245.840897,79.932457 248.942413,91.358727 252.063660,102.575119 
	C249.028046,102.575119 245.197952,102.574944 241.367844,102.575150 
	C222.901962,102.576149 221.350296,104.032501 216.004501,121.590370 
	C213.025040,131.376221 209.223587,140.940094 205.291504,150.395615 
	C203.329605,155.113434 199.757584,158.991302 194.030090,158.919113 
	C188.294174,158.846832 185.026184,154.817474 182.971619,150.101852 
	C179.734283,142.671600 177.319336,134.872437 173.900635,127.534904 
	C170.708664,120.683945 167.419464,113.636169 162.798233,107.755402 
	C157.202881,100.635025 149.241074,100.781456 142.876480,107.289200 
	C139.795212,110.439766 136.872726,114.203194 135.264587,118.241203 
	C131.966507,126.522728 129.399139,135.117065 126.901268,143.690506 
	C122.828606,157.669098 119.236931,171.789276 115.064720,185.736755 
	C113.279167,191.705765 109.132286,195.988098 103.000000,198.000000 
z"/>
<path fill="#FFFEFE" opacity="1.000000" stroke="none" 
	d="
M103.468658,198.000000 
	C109.132286,195.988098 113.279167,191.705765 115.064720,185.736755 
	C119.236931,171.789276 122.828606,157.669098 126.901268,143.690506 
	C129.399139,135.117065 131.966507,126.522728 135.264587,118.241203 
	C136.872726,114.203194 139.795212,110.439766 142.876480,107.289200 
	C149.241074,100.781456 157.202881,100.635025 162.798233,107.755402 
	C167.419464,113.636169 170.708664,120.683945 173.900635,127.534904 
	C177.319336,134.872437 179.734283,142.671600 182.971619,150.101852 
	C185.026184,154.817474 188.294174,158.846832 194.030090,158.919113 
	C199.757584,158.991302 203.329605,155.113434 205.291504,150.395615 
	C209.223587,140.940094 213.025040,131.376221 216.004501,121.590370 
	C221.350296,104.032501 222.901962,102.576149 241.367844,102.575150 
	C245.197952,102.574944 249.028046,102.575119 252.063660,102.575119 
	C248.942413,91.358727 245.840897,79.932457 242.549850,68.561043 
	C241.586868,65.233681 240.407730,61.887035 238.762436,58.856030 
	C235.344162,52.558723 229.942108,52.299183 225.970886,58.355408 
	C223.821121,61.633835 222.204941,65.375885 220.967239,69.113823 
	C218.728653,75.874519 216.953674,82.788742 214.985916,89.639084 
	C214.574097,91.072662 214.181183,92.511856 213.752975,93.940491 
	C212.200012,99.121529 208.704788,103.651703 203.587143,103.187958 
	C200.628723,102.919876 196.872696,98.257423 195.623367,94.797256 
	C191.862915,84.382248 188.890091,73.655937 186.103760,62.922878 
	C182.522675,49.128365 179.671066,35.142147 175.971039,21.382154 
	C174.749908,16.840931 172.435181,12.312455 169.571442,8.583863 
	C167.307892,5.636734 163.438690,3.922823 160.141281,1.330623 
	C192.301743,1.000000 224.603470,1.000000 256.952606,1.000000 
	C256.952606,66.570869 256.952606,132.141785 256.952606,198.000000 
	C205.979462,198.000000 154.958389,198.000000 103.468658,198.000000 
z"/>
<path fill="#FFFEFE" opacity="1.000000" stroke="none" 
	d="
M154.531342,1.000000 
	C148.541595,3.804133 144.159149,8.927685 142.178558,15.290767 
	C138.000183,28.714697 134.549957,42.370232 130.992294,55.980743 
	C128.438461,65.750854 126.623093,75.735626 123.622101,85.357590 
	C122.235519,89.803314 119.304451,94.047066 116.194870,97.616913 
	C109.891052,104.853798 102.289444,105.280548 96.372543,96.738869 
	C92.429413,91.046539 90.306000,83.935356 88.135490,77.211494 
	C85.082825,67.754890 82.959885,58.000294 79.990845,48.513500 
	C78.771889,44.618633 76.770851,40.823956 74.450508,37.447628 
	C69.170029,29.764011 60.601257,29.462135 55.388607,37.186356 
	C52.114098,42.038597 49.781456,47.739918 48.055901,53.375572 
	C45.242908,62.562805 43.409050,72.045166 40.882515,81.326912 
	C39.756992,85.461754 38.244835,89.552361 36.389339,93.413734 
	C33.295780,99.851593 28.018057,103.126152 19.966492,102.600296 
	C13.134219,102.252197 7.067110,102.126099 1.000000,102.000000 
	C1.000000,68.391182 1.000000,34.782368 1.000000,1.000000 
	C52.020763,1.000000 103.041725,1.000000 154.531342,1.000000 
z"/>
<path fill="#FFFDFD" opacity="1.000000" stroke="none" 
	d="
M1.000000,102.468658 
	C7.067110,102.126099 13.134219,102.252197 19.553455,102.575562 
	C16.606384,103.126106 13.312256,103.542801 10.005950,103.807251 
	C8.220119,103.950089 6.413475,103.832687 3.582486,103.832687 
	C13.106258,112.099670 10.888393,123.480331 13.866527,133.209549 
	C15.220463,137.632706 16.118595,142.273849 18.070171,146.417328 
	C21.046991,152.737534 27.683010,153.163986 30.659636,146.907608 
	C33.894211,140.109024 35.589142,132.580597 37.991493,125.382462 
	C39.718090,120.209084 41.116074,114.876793 43.385868,109.949471 
	C45.207306,105.995468 48.273563,102.709587 53.275200,102.645966 
	C58.463291,102.579971 62.124371,105.663002 63.618786,109.972839 
	C67.460800,121.053024 70.781059,132.330460 73.888206,143.644836 
	C77.485001,156.742233 80.323723,170.052536 84.104897,183.092560 
	C85.953987,189.469467 89.058479,195.560104 96.743202,197.764557 
	C65.073067,198.000000 33.146141,198.000000 1.000000,198.000000 
	C1.000000,166.312775 1.000000,134.625046 1.000000,102.468658 
z"/>
</svg>