<svg version="1.1" id="Layer_1" xmlns="http://www.w3.org/2000/svg" xmlns:xlink="http://www.w3.org/1999/xlink" x="0px" y="0px"
	 width="100%" viewBox="0 0 229 220" enable-background="new 0 0 229 220" xml:space="preserve">
<path fill="#FCFCFC" opacity="1.000000" stroke="none" 
	d="
M230.000000,78.000000 
	C230.000000,126.000000 230.000000,173.500000 230.000000,221.000000 
	C153.666672,221.000000 77.333336,221.000000 1.000000,221.000000 
	C1.000000,147.666672 1.000000,74.333336 1.000000,1.000000 
	C77.333336,1.000000 153.666672,1.000000 230.000000,1.000000 
	C230.000000,26.500000 230.000000,52.000000 230.000000,78.000000 
M38.442844,17.039764 
	C38.287231,17.358166 38.131618,17.676567 38.001915,17.991468 
	C38.001915,17.991468 38.002998,17.965340 37.273407,17.880394 
	C36.149796,18.526657 34.649166,18.902821 33.962120,19.861839 
	C28.378649,27.655571 21.893681,35.036049 17.681732,43.533024 
	C7.863824,63.339191 3.809722,84.553055 6.028700,106.728996 
	C8.002772,126.457405 18.359646,143.999954 40.311073,146.426910 
	C47.306694,147.200363 54.523796,147.479904 60.593208,142.097260 
	C60.593208,142.097260 60.813736,142.053665 61.489132,142.153793 
	C62.013855,141.779984 62.538582,141.406174 63.008228,141.000595 
	C63.008228,141.000595 63.002090,141.063889 63.633385,141.113998 
	C64.098366,140.727554 64.563339,140.341095 65.486137,139.479385 
	C74.243713,134.175537 80.663597,126.489601 86.010468,118.052635 
	C94.619598,104.468079 102.662376,90.524605 111.673363,76.825630 
	C113.305176,78.825478 115.132881,80.697258 116.537453,82.845665 
	C126.763885,98.487877 136.574661,114.413383 147.170914,129.798843 
	C156.811462,143.796661 174.361649,150.013153 190.091507,145.763306 
	C192.534348,145.103302 194.637146,143.184769 196.991241,141.940948 
	C196.991241,141.940948 196.869934,141.888702 197.443054,141.909027 
	C197.699295,141.635727 197.955551,141.362427 198.424057,140.949554 
	C198.424057,140.949554 198.666656,140.874207 199.287766,140.899658 
	C199.583191,140.624481 199.878601,140.349304 200.416031,139.915436 
	C200.416031,139.915436 200.682068,139.801514 201.244690,139.775223 
	C201.484711,139.501511 201.724716,139.227798 202.244980,138.568756 
	C202.456787,138.317947 202.720581,138.147690 203.532654,137.986176 
	C203.723602,137.724716 203.914551,137.463272 204.568268,136.840866 
	C205.060822,136.251373 205.553375,135.661865 206.675583,134.816757 
	C210.124619,128.289215 214.970901,122.120544 216.757095,115.165924 
	C221.838837,95.380127 219.407959,75.628052 213.420212,56.305946 
	C208.731644,41.176258 201.492508,27.444345 189.413589,16.842289 
	C176.318161,5.347997 161.462799,0.677331 144.824524,8.158372 
	C133.367889,13.309597 124.863037,22.240063 117.274414,32.690025 
	C112.975288,28.399612 108.713509,24.070992 104.370331,19.825642 
	C88.648712,4.458134 67.505821,-0.659242 46.604511,11.076520 
	C46.368603,11.352189 46.132698,11.627859 45.972881,11.998302 
	C45.972881,11.998302 45.925964,11.886239 45.374416,11.908555 
	C45.145367,12.183437 44.916317,12.458320 44.434761,12.861810 
	C44.434761,12.861810 44.176640,12.978740 43.584557,13.029752 
	C43.360916,13.331074 43.137276,13.632397 42.988609,13.983087 
	C42.988609,13.983087 42.952595,13.900860 42.242500,13.842990 
	C41.504242,14.584484 40.765984,15.325978 39.998737,16.009142 
	C39.998737,16.009142 40.059929,16.031460 39.500851,16.085873 
	C39.326740,16.392593 39.152634,16.699316 38.990612,16.994396 
	C38.990612,16.994396 39.003628,16.983887 38.442844,17.039764 
M144.123138,206.710663 
	C146.845078,218.029922 155.062836,219.142044 164.607834,218.018402 
	C167.992310,217.619965 168.688293,214.900192 167.779709,212.524765 
	C167.281876,211.223221 164.457748,209.735077 163.068054,210.047195 
	C158.375595,211.101120 154.747223,208.946442 154.405136,205.165558 
	C153.608276,196.358505 154.151031,187.430252 154.151031,178.295975 
	C157.695602,178.295975 161.180557,178.187561 164.655472,178.327789 
	C167.858246,178.457016 167.992935,176.504440 168.033035,174.126175 
	C168.075073,171.635101 167.650894,169.884384 164.570297,169.989899 
	C160.976303,170.112991 157.374863,170.018631 153.214066,170.018631 
	C153.214066,165.098236 153.214066,160.716705 153.214066,156.299820 
	C149.862808,156.299820 147.098831,156.299820 143.843658,156.299820 
	C143.843658,160.861343 143.843658,165.257233 143.843658,170.193146 
	C140.311310,170.193146 137.264191,170.193146 134.381241,170.193146 
	C134.381241,173.190048 134.381241,175.624451 134.381241,177.898758 
	C137.761505,178.290222 140.856064,178.648621 143.872559,179.940979 
	C143.974075,188.619476 144.075592,197.297989 144.123138,206.710663 
M130.867966,195.642609 
	C132.087814,182.994461 124.985794,172.032837 114.190994,169.542633 
	C103.250160,167.018738 92.448357,172.526642 88.107254,182.853897 
	C83.201553,194.524292 87.001373,208.431747 96.646637,214.939148 
	C105.367172,220.822647 123.289810,219.252579 129.498093,210.956680 
	C125.451286,205.064484 125.544235,205.271210 119.526627,207.976898 
	C114.383034,210.289612 109.167351,212.284103 103.417931,208.859436 
	C99.863327,206.742096 96.434113,201.300888 98.023415,197.246338 
	C107.286766,197.254013 116.550682,197.314163 125.812881,197.214737 
	C127.259018,197.199234 128.697342,196.456863 130.867966,195.642609 
M76.783127,216.585007 
	C76.783127,195.818527 76.783127,175.052063 76.783127,154.564407 
	C68.367531,152.194519 63.130150,154.393799 59.460056,162.635010 
	C54.934471,172.797241 48.822468,182.252960 43.075851,192.589935 
	C35.757217,179.589066 28.834932,167.292282 21.611856,154.177933 
	C17.518616,154.177933 13.425373,154.177933 9.013228,154.177933 
	C9.013228,174.827347 9.006638,195.232819 9.054966,215.638153 
	C9.056064,216.101532 9.679272,216.563431 10.859419,217.264771 
	C12.901481,217.185089 14.943542,217.105423 17.884281,217.200928 
	C18.286449,216.267197 19.036894,215.334152 19.038715,214.399628 
	C19.067595,199.598679 19.000429,184.797531 19.391602,169.645096 
	C24.715633,178.930603 29.950792,188.269150 35.436737,197.457993 
	C36.569401,199.355179 39.048500,202.292969 40.196068,201.996780 
	C43.887405,201.043991 48.414772,202.516800 50.944595,197.189377 
	C55.528263,187.536835 61.273026,178.435684 66.735291,170.009995 
	C66.735291,185.626053 66.735291,201.242111 66.735291,216.959625 
	C70.130257,216.959625 73.066628,216.959625 76.783127,216.585007 
M179.189713,175.649658 
	C178.304321,176.853821 177.330322,178.003235 176.547485,179.270737 
	C170.008972,189.857300 172.049881,205.661469 180.953003,213.650085 
	C188.806931,220.697250 199.565689,220.067215 209.695358,211.966934 
	C210.406281,217.942322 211.238037,218.347549 219.712723,216.599442 
	C219.712723,202.215347 219.716492,187.754578 219.704224,173.293823 
	C219.703415,172.330658 219.580795,171.367569 219.509140,170.321304 
	C216.197784,170.321304 213.157120,170.321304 210.147690,170.321304 
	C210.005585,172.229782 209.886276,173.832047 209.756851,175.570374 
	C195.681458,167.043152 189.376556,166.982620 179.189713,175.649658 
z"/>
<path fill="#0467E2" opacity="1.000000" stroke="none" 
	d="
M47.163116,11.010613 
	C67.505821,-0.659242 88.648712,4.458134 104.370331,19.825642 
	C108.713509,24.070992 112.975288,28.399612 117.626381,33.064674 
	C121.239929,38.603481 124.501511,43.767639 127.983246,49.212265 
	C137.958450,65.283859 147.713501,81.074989 157.076477,96.923233 
	C154.816788,99.926979 153.112076,102.994324 151.040710,105.790009 
	C148.384583,109.374916 145.433533,112.741310 142.327332,116.021896 
	C137.362610,108.370445 132.689682,100.892921 127.994904,93.429161 
	C123.328560,86.010605 118.640251,78.605873 113.947250,70.826416 
	C110.342430,65.306496 106.751945,60.155247 103.145416,54.633934 
	C98.216171,44.892399 91.363503,37.119957 82.537193,31.433310 
	C79.276955,29.332796 74.852760,29.038864 70.550278,27.925209 
	C65.403389,29.565367 59.482426,27.921677 56.006111,33.024048 
	C56.014050,33.016129 56.033398,33.004787 55.763641,33.039135 
	C55.287392,33.349426 55.080894,33.625370 54.920456,33.940430 
	C54.966518,33.979549 54.913998,33.870697 54.643738,33.921322 
	C54.189053,34.275463 54.004631,34.578983 53.536522,35.055489 
	C45.355675,42.668797 41.336048,52.408142 36.890827,62.063969 
	C29.464907,60.344780 22.446732,58.698528 15.457276,56.701149 
	C20.075981,41.844742 27.829769,29.195402 38.002998,17.965340 
	C38.002998,17.965340 38.001915,17.991468 38.269585,17.964882 
	C38.692715,17.620161 38.848171,17.302025 39.003628,16.983887 
	C39.003628,16.983887 38.990612,16.994396 39.262520,16.973293 
	C39.709591,16.645279 39.884758,16.338369 40.059929,16.031460 
	C40.059929,16.031460 39.998737,16.009142 40.339233,16.024921 
	C41.437355,15.327420 42.194977,14.614141 42.952595,13.900860 
	C42.952595,13.900860 42.988609,13.983087 43.239239,13.926770 
	C43.718792,13.573215 43.947716,13.275978 44.176640,12.978741 
	C44.176640,12.978740 44.434761,12.861810 44.839394,12.784575 
	C45.471340,12.433639 45.698654,12.159939 45.925964,11.886239 
	C45.925964,11.886239 45.972881,11.998302 46.220211,11.934722 
	C46.699398,11.584298 46.931259,11.297456 47.163116,11.010613 
z"/>
<path fill="#0381FD" opacity="1.000000" stroke="none" 
	d="
M127.763092,48.931793 
	C124.501511,43.767639 121.239929,38.603481 117.958351,33.041603 
	C124.863037,22.240063 133.367889,13.309597 144.824524,8.158372 
	C161.462799,0.677331 176.318161,5.347997 189.413589,16.842289 
	C201.492508,27.444345 208.731644,41.176258 213.420212,56.305946 
	C219.407959,75.628052 221.838837,95.380127 216.757095,115.165924 
	C214.970901,122.120544 210.124619,128.289215 206.214722,134.620880 
	C203.827209,128.593964 202.002167,122.725952 199.904114,116.957237 
	C199.364090,115.472404 197.964691,114.300117 196.991974,112.588943 
	C197.355301,111.085510 197.799347,109.997475 198.001083,108.866234 
	C200.582932,94.388725 199.138367,80.116020 195.741638,65.582031 
	C192.798462,57.832039 189.984070,50.395844 186.832092,43.105602 
	C186.151093,41.530476 184.254974,40.480694 182.668884,38.956207 
	C179.038712,35.101345 176.155624,30.759930 172.174286,28.006626 
	C163.859009,22.256187 152.665985,20.065882 144.954514,27.971073 
	C144.986160,27.991108 144.971039,27.917749 144.707581,27.959934 
	C144.226501,28.269159 144.008881,28.536203 143.516037,28.989029 
	C138.081573,35.760475 132.922333,42.346134 127.763092,48.931793 
z"/>
<path fill="#0281FD" opacity="1.000000" stroke="none" 
	d="
M103.161453,55.003998 
	C106.751945,60.155247 110.342430,65.306496 113.815170,71.114044 
	C112.779755,73.424484 111.862091,75.078621 110.944427,76.732765 
	C102.662376,90.524605 94.619598,104.468079 86.010468,118.052635 
	C80.663597,126.489601 74.243713,134.175537 64.946831,139.739685 
	C63.939045,140.354614 63.470570,140.709244 63.002090,141.063889 
	C63.002090,141.063889 63.008228,141.000595 62.707169,141.011017 
	C61.875317,141.365524 61.344524,141.709595 60.813736,142.053665 
	C60.813736,142.053665 60.593208,142.097260 60.052902,142.103821 
	C45.868855,145.641846 32.913025,145.469208 21.877155,134.757568 
	C14.182674,124.602547 9.726211,113.629196 10.266296,100.992279 
	C14.570129,99.798668 18.502771,98.000717 21.812244,102.452393 
	C22.119143,102.865211 24.383232,102.092178 25.571566,101.521843 
	C27.729612,100.486099 29.762041,99.188622 31.925808,98.422791 
	C33.377625,104.065849 33.914635,109.714447 36.317478,114.407791 
	C40.009991,121.620178 49.000050,123.299835 55.249054,118.915932 
	C58.436325,116.834404 62.065105,115.239265 63.934349,112.460510 
	C76.232925,94.177773 88.152283,75.639946 100.515434,57.148994 
	C101.610847,56.409786 102.386147,55.706894 103.161453,55.003998 
z"/>
<path fill="#042930" opacity="1.000000" stroke="none" 
	d="
M66.533066,169.104340 
	C61.273026,178.435684 55.528263,187.536835 50.944595,197.189377 
	C48.414772,202.516800 43.887405,201.043991 40.196068,201.996780 
	C39.048500,202.292969 36.569401,199.355179 35.436737,197.457993 
	C29.950792,188.269150 24.715633,178.930603 18.880014,170.118896 
	C18.244606,183.981842 18.161760,197.371643 17.954348,210.759506 
	C17.921919,212.852753 17.322725,214.937210 16.985603,217.025742 
	C14.943542,217.105423 12.901481,217.185089 10.434671,216.675079 
	C10.007641,199.690536 10.004740,183.295700 10.003283,166.900864 
	C10.002229,155.046173 10.003085,155.046173 21.912643,154.995499 
	C28.834932,167.292282 35.757217,179.589066 43.075851,192.589935 
	C48.822468,182.252960 54.934471,172.797241 59.460056,162.635010 
	C63.130150,154.393799 68.367531,152.194519 76.783127,154.564407 
	C76.783127,175.052063 76.783127,195.818527 76.104996,216.487610 
	C73.051140,216.092682 70.675415,215.795135 68.001801,215.460281 
	C68.001801,201.495255 68.055351,187.952362 67.936760,174.410965 
	C67.921227,172.638123 67.022644,170.873032 66.533066,169.104340 
z"/>
<path fill="#042930" opacity="1.000000" stroke="none" 
	d="
M179.446136,175.387207 
	C189.376556,166.982620 195.681458,167.043152 209.756851,175.570374 
	C209.886276,173.832047 210.005585,172.229782 210.147690,170.321304 
	C213.157120,170.321304 216.197784,170.321304 219.509140,170.321304 
	C219.580795,171.367569 219.703415,172.330658 219.704224,173.293823 
	C219.716492,187.754578 219.712723,202.215347 219.712723,216.599442 
	C211.238037,218.347549 210.406281,217.942322 209.695358,211.966934 
	C199.565689,220.067215 188.806931,220.697250 180.953003,213.650085 
	C172.049881,205.661469 170.008972,189.857300 176.547485,179.270737 
	C177.330322,178.003235 178.304321,176.853821 179.446136,175.387207 
M187.256699,206.365952 
	C189.982101,207.817963 192.716568,210.524933 195.431366,210.505371 
	C207.375748,210.419296 215.175430,194.411972 208.605347,184.176880 
	C205.476852,179.303192 199.327499,176.882629 193.324417,178.161911 
	C188.366699,179.218445 183.932693,183.834854 183.209167,189.277435 
	C182.430252,195.136826 182.587646,200.932709 187.256699,206.365952 
z"/>
<path fill="#052930" opacity="1.000000" stroke="none" 
	d="
M97.114380,197.071564 
	C96.434113,201.300888 99.863327,206.742096 103.417931,208.859436 
	C109.167351,212.284103 114.383034,210.289612 119.526627,207.976898 
	C125.544235,205.271210 125.451286,205.064484 129.498093,210.956680 
	C123.289810,219.252579 105.367172,220.822647 96.646637,214.939148 
	C87.001373,208.431747 83.201553,194.524292 88.107254,182.853897 
	C92.448357,172.526642 103.250160,167.018738 114.190994,169.542633 
	C124.985794,172.032837 132.087814,182.994461 130.026489,195.830276 
	C119.448578,196.010986 109.711945,195.974136 99.976074,196.044067 
	C99.019775,196.050934 98.068169,196.713394 97.114380,197.071564 
M96.575745,190.510468 
	C104.718163,190.340302 112.860573,190.170151 121.136971,189.215576 
	C119.916740,180.746078 114.634705,176.492462 106.906593,177.811279 
	C100.146629,178.964874 97.490479,183.857056 96.575745,190.510468 
z"/>
<path fill="#032930" opacity="1.000000" stroke="none" 
	d="
M143.950638,179.007004 
	C140.856064,178.648621 137.761505,178.290222 134.381241,177.898758 
	C134.381241,175.624451 134.381241,173.190048 134.381241,170.193146 
	C137.264191,170.193146 140.311310,170.193146 143.843658,170.193146 
	C143.843658,165.257233 143.843658,160.861343 143.843658,156.299820 
	C147.098831,156.299820 149.862808,156.299820 153.214066,156.299820 
	C153.214066,160.716705 153.214066,165.098236 153.214066,170.018631 
	C157.374863,170.018631 160.976303,170.112991 164.570297,169.989899 
	C167.650894,169.884384 168.075073,171.635101 168.033035,174.126175 
	C167.992935,176.504440 167.858246,178.457016 164.655472,178.327789 
	C161.180557,178.187561 157.695602,178.295975 154.151031,178.295975 
	C154.151031,187.430252 153.608276,196.358505 154.405136,205.165558 
	C154.747223,208.946442 158.375595,211.101120 163.068054,210.047195 
	C164.457748,209.735077 167.281876,211.223221 167.779709,212.524765 
	C168.688293,214.900192 167.992310,217.619965 164.607834,218.018402 
	C155.062836,219.142044 146.845078,218.029922 144.417618,206.027893 
	C144.808273,199.254105 145.021088,193.161667 144.947098,187.072708 
	C144.914413,184.380493 144.300629,181.695358 143.950638,179.007004 
z"/>
<path fill="#027DF9" opacity="1.000000" stroke="none" 
	d="
M196.960068,112.984253 
	C197.964691,114.300117 199.364090,115.472404 199.904114,116.957237 
	C202.002167,122.725952 203.827209,128.593964 205.899872,134.748688 
	C205.553375,135.661865 205.060822,136.251373 204.089111,137.055573 
	C203.418747,137.532852 203.227554,137.795425 203.036362,138.057999 
	C202.720581,138.147690 202.456787,138.317947 201.834503,138.806000 
	C201.176712,139.296005 200.929398,139.548767 200.682068,139.801514 
	C200.682068,139.801514 200.416031,139.915436 199.985382,139.999771 
	C199.258713,140.347473 198.962677,140.610840 198.666656,140.874207 
	C198.666656,140.874207 198.424057,140.949554 198.020462,141.015808 
	C197.367889,141.350952 197.118912,141.619827 196.869934,141.888702 
	C196.869934,141.888702 196.991241,141.940948 196.540985,141.898163 
	C187.315018,144.289795 178.551437,145.504456 169.880371,141.117249 
	C170.231644,134.879486 170.201477,128.963821 175.644562,126.743614 
	C175.855392,123.794388 176.002625,121.734711 176.544434,119.775330 
	C180.260895,120.183731 183.582794,120.491844 187.213776,120.854340 
	C188.014053,120.586281 188.505264,120.263847 188.993149,119.972069 
	C188.989838,120.002731 188.936691,119.971390 189.287109,119.967667 
	C191.799393,117.726036 193.961273,115.488129 196.331070,113.179611 
	C196.538986,113.108994 196.960068,112.984261 196.960068,112.984253 
z"/>
<path fill="#A8AABB" opacity="1.000000" stroke="none" 
	d="
M169.838882,141.594025 
	C178.551437,145.504456 187.315018,144.289795 196.493958,141.851776 
	C194.637146,143.184769 192.534348,145.103302 190.091507,145.763306 
	C174.361649,150.013153 156.811462,143.796661 147.170914,129.798843 
	C136.574661,114.413383 126.763885,98.487877 116.537453,82.845665 
	C115.132881,80.697258 113.305176,78.825478 111.308891,76.779198 
	C111.862091,75.078621 112.779755,73.424484 113.829498,71.482712 
	C118.640251,78.605873 123.328560,86.010605 127.994904,93.429161 
	C132.689682,100.892921 137.362610,108.370445 142.434326,116.351196 
	C147.098206,121.976906 151.372849,127.093353 155.816559,132.509186 
	C160.603363,135.737045 165.221130,138.665527 169.838882,141.594025 
z"/>
<path fill="#9FA0B5" opacity="1.000000" stroke="none" 
	d="
M21.847994,135.115448 
	C32.913025,145.469208 45.868855,145.641846 59.945404,142.136627 
	C54.523796,147.479904 47.306694,147.200363 40.311073,146.426910 
	C18.359646,143.999954 8.002772,126.457405 6.028700,106.728996 
	C3.809722,84.553055 7.863824,63.339191 17.681732,43.533024 
	C21.893681,35.036049 28.378649,27.655571 33.962120,19.861839 
	C34.649166,18.902821 36.149796,18.526657 37.638203,17.922867 
	C27.829769,29.195402 20.075981,41.844742 15.356287,56.688965 
	C15.226578,57.027912 15.030092,56.984634 14.738595,57.196503 
	C13.983409,59.291458 13.519721,61.174545 13.031042,63.032196 
	C13.006051,63.006763 13.076980,63.014202 12.776326,63.228027 
	C12.342019,64.650986 12.208365,65.860115 12.047240,67.036140 
	C12.019769,67.003036 12.102587,67.026352 11.788322,67.246223 
	C10.476949,72.960686 9.126592,78.418846 8.555254,83.957359 
	C7.313005,95.999641 6.771119,108.148857 11.162260,119.705040 
	C13.391757,125.572418 15.390939,132.001633 21.847994,135.115448 
z"/>
<path fill="#00000E" opacity="1.000000" stroke="none" 
	d="
M21.762249,154.586716 
	C10.003085,155.046173 10.002229,155.046173 10.003283,166.900864 
	C10.004740,183.295700 10.007641,199.690536 10.011108,216.555695 
	C9.679272,216.563431 9.056064,216.101532 9.054966,215.638153 
	C9.006638,195.232819 9.013228,174.827347 9.013228,154.177933 
	C13.425373,154.177933 17.518616,154.177933 21.762249,154.586716 
z"/>
<path fill="#00121B" opacity="1.000000" stroke="none" 
	d="
M66.634178,169.557159 
	C67.022644,170.873032 67.921227,172.638123 67.936760,174.410965 
	C68.055351,187.952362 68.001801,201.495255 68.001801,215.460281 
	C70.675415,215.795135 73.051140,216.092682 75.714935,216.674927 
	C73.066628,216.959625 70.130257,216.959625 66.735291,216.959625 
	C66.735291,201.242111 66.735291,185.626053 66.634178,169.557159 
z"/>
<path fill="#00000E" opacity="1.000000" stroke="none" 
	d="
M17.434944,217.113342 
	C17.322725,214.937210 17.921919,212.852753 17.954348,210.759506 
	C18.161760,197.371643 18.244606,183.981842 18.661839,170.294556 
	C19.000429,184.797531 19.067595,199.598679 19.038715,214.399628 
	C19.036894,215.334152 18.286449,216.267197 17.434944,217.113342 
z"/>
<path fill="#00121C" opacity="1.000000" stroke="none" 
	d="
M97.568893,197.158951 
	C98.068169,196.713394 99.019775,196.050934 99.976074,196.044067 
	C109.711945,195.974136 119.448578,196.010986 129.662140,196.034271 
	C128.697342,196.456863 127.259018,197.199234 125.812881,197.214737 
	C116.550682,197.314163 107.286766,197.254013 97.568893,197.158951 
z"/>
<path fill="#000914" opacity="1.000000" stroke="none" 
	d="
M143.911591,179.473999 
	C144.300629,181.695358 144.914413,184.380493 144.947098,187.072708 
	C145.021088,193.161667 144.808273,199.254105 144.444611,205.660812 
	C144.075592,197.297989 143.974075,188.619476 143.911591,179.473999 
z"/>
<path fill="#9FA0B5" opacity="1.000000" stroke="none" 
	d="
M42.597549,13.871925 
	C42.194977,14.614141 41.437355,15.327420 40.353729,16.054085 
	C40.765984,15.325978 41.504242,14.584484 42.597549,13.871925 
z"/>
<path fill="#9FA0B5" opacity="1.000000" stroke="none" 
	d="
M63.317738,141.088943 
	C63.470570,140.709244 63.939045,140.354614 64.717926,139.977310 
	C64.563339,140.341095 64.098366,140.727554 63.317738,141.088943 
z"/>
<path fill="#9FA0B5" opacity="1.000000" stroke="none" 
	d="
M61.151432,142.103729 
	C61.344524,141.709595 61.875317,141.365524 62.734711,141.026917 
	C62.538582,141.406174 62.013855,141.779984 61.151432,142.103729 
z"/>
<path fill="#A8AABB" opacity="1.000000" stroke="none" 
	d="
M197.156494,141.898865 
	C197.118912,141.619827 197.367889,141.350952 197.914337,141.085602 
	C197.955551,141.362427 197.699295,141.635727 197.156494,141.898865 
z"/>
<path fill="#9FA0B5" opacity="1.000000" stroke="none" 
	d="
M45.650192,11.897397 
	C45.698654,12.159939 45.471340,12.433639 44.965649,12.720270 
	C44.916317,12.458320 45.145367,12.183437 45.650192,11.897397 
z"/>
<path fill="#9FA0B5" opacity="1.000000" stroke="none" 
	d="
M43.880600,13.004246 
	C43.947716,13.275978 43.718792,13.573215 43.201752,13.902086 
	C43.137276,13.632397 43.360916,13.331074 43.880600,13.004246 
z"/>
<path fill="#9FA0B5" opacity="1.000000" stroke="none" 
	d="
M46.883812,11.043567 
	C46.931259,11.297456 46.699398,11.584298 46.182167,11.887335 
	C46.132698,11.627859 46.368603,11.352189 46.883812,11.043567 
z"/>
<path fill="#9FA0B5" opacity="1.000000" stroke="none" 
	d="
M39.780388,16.058666 
	C39.884758,16.338369 39.709591,16.645279 39.256474,16.979115 
	C39.152634,16.699316 39.326740,16.392593 39.780388,16.058666 
z"/>
<path fill="#A8AABB" opacity="1.000000" stroke="none" 
	d="
M198.977203,140.886932 
	C198.962677,140.610840 199.258713,140.347473 199.864380,140.079117 
	C199.878601,140.349304 199.583191,140.624481 198.977203,140.886932 
z"/>
<path fill="#A8AABB" opacity="1.000000" stroke="none" 
	d="
M200.963379,139.788376 
	C200.929398,139.548767 201.176712,139.296005 201.694366,138.998657 
	C201.724716,139.227798 201.484711,139.501511 200.963379,139.788376 
z"/>
<path fill="#A8AABB" opacity="1.000000" stroke="none" 
	d="
M203.284515,138.022095 
	C203.227554,137.795425 203.418747,137.532852 203.857727,137.236053 
	C203.914551,137.463272 203.723602,137.724716 203.284515,138.022095 
z"/>
<path fill="#9FA0B5" opacity="1.000000" stroke="none" 
	d="
M38.723236,17.011826 
	C38.848171,17.302025 38.692715,17.620161 38.256630,17.966633 
	C38.131618,17.676567 38.287231,17.358166 38.723236,17.011826 
z"/>
<path fill="#FCFCFD" opacity="1.000000" stroke="none" 
	d="
M186.904694,120.799957 
	C183.582794,120.491844 180.260895,120.183731 176.345413,119.517014 
	C173.160553,116.799042 170.569260,114.439682 167.871185,111.756592 
	C164.332428,106.577286 160.900497,101.721703 157.468552,96.866119 
	C147.713501,81.074989 137.958450,65.283859 127.983246,49.212261 
	C132.922333,42.346134 138.081573,35.760475 143.788208,28.967270 
	C144.547424,28.479067 144.759232,28.198410 144.971039,27.917751 
	C144.971039,27.917749 144.986160,27.991108 145.358948,27.977444 
	C154.203720,24.404762 162.685486,24.710472 169.731537,30.495176 
	C174.879227,34.721359 179.884567,39.990055 182.799438,45.863071 
	C187.169708,54.668537 190.785385,64.188255 192.677673,73.806427 
	C195.729599,89.318771 198.772141,105.301888 188.936691,119.971390 
	C188.936691,119.971390 188.989838,120.002731 188.689789,119.937996 
	C187.894714,120.182159 187.399704,120.491058 186.904694,120.799957 
z"/>
<path fill="#FDFDFE" opacity="1.000000" stroke="none" 
	d="
M54.876713,118.854858 
	C49.000050,123.299835 40.009991,121.620178 36.317478,114.407791 
	C33.914635,109.714447 33.377625,104.065849 31.992825,97.967133 
	C32.245720,92.393982 32.510509,87.698921 32.882263,82.615570 
	C33.278450,80.143806 33.567673,78.060318 33.961929,75.599388 
	C34.748074,71.966499 35.429184,68.711052 36.331718,65.280235 
	C36.626930,64.746025 36.700718,64.387192 36.911659,63.727959 
	C37.132061,62.997341 37.215317,62.567123 37.298573,62.136906 
	C41.336048,52.408142 45.355675,42.668797 53.802948,34.994446 
	C54.540043,34.463840 54.727020,34.167271 54.913998,33.870697 
	C54.913998,33.870697 54.966518,33.979549 55.190105,33.914722 
	C55.620258,33.568192 55.826828,33.286488 56.033398,33.004787 
	C56.033398,33.004787 56.014050,33.016129 56.405075,33.031342 
	C65.653259,29.447256 74.002434,29.894695 81.729309,36.017921 
	C82.555885,36.672951 83.823845,36.771004 85.085030,37.258663 
	C85.532455,37.590824 85.739853,37.828461 85.937317,38.439072 
	C87.277222,39.883099 88.585007,40.990860 90.085068,42.238579 
	C90.518784,42.589539 90.717018,42.835381 90.882889,43.469254 
	C92.226578,45.245922 93.559433,46.669395 94.938126,48.045403 
	C94.983963,47.997936 94.899544,48.094517 94.905113,48.447655 
	C95.914482,49.890156 96.918282,50.979523 97.958809,52.038193 
	C97.995529,52.007504 97.924614,52.064743 97.915359,52.476387 
	C97.608414,54.786240 97.902679,57.088810 96.923874,58.521790 
	C83.097542,78.763588 72.560699,101.307838 54.876713,118.854858 
z"/>
<path fill="#016EEB" opacity="1.000000" stroke="none" 
	d="
M157.076477,96.923233 
	C160.900497,101.721703 164.332428,106.577286 167.658707,112.020363 
	C163.979080,114.161491 162.268524,116.379807 161.651978,120.733551 
	C161.081558,124.761627 157.758392,128.399887 155.647491,132.209808 
	C151.372849,127.093353 147.098206,121.976906 142.716553,116.531151 
	C145.433533,112.741310 148.384583,109.374916 151.040710,105.790009 
	C153.112076,102.994324 154.816788,99.926979 157.076477,96.923233 
z"/>
<path fill="#016FEC" opacity="1.000000" stroke="none" 
	d="
M36.110294,65.455612 
	C35.429184,68.711052 34.748074,71.966499 33.695820,75.360809 
	C31.874571,74.665108 30.515156,73.403488 28.958038,73.072800 
	C23.387943,71.889862 17.750822,71.022514 12.117809,69.659958 
	C12.098571,68.531532 12.100579,67.778938 12.102587,67.026352 
	C12.102587,67.026352 12.019769,67.003036 12.332044,66.809723 
	C12.788538,65.415680 12.932758,64.214943 13.076979,63.014202 
	C13.076980,63.014202 13.006051,63.006763 13.327124,62.828110 
	C14.108829,60.761181 14.569461,58.872906 15.030092,56.984634 
	C15.030092,56.984634 15.226578,57.027912 15.327567,57.040096 
	C22.446732,58.698528 29.464907,60.344780 36.890827,62.063969 
	C37.215317,62.567123 37.132061,62.997341 36.716175,63.918186 
	C36.292461,64.757744 36.201378,65.106682 36.110294,65.455612 
z"/>
<path fill="#6D778D" opacity="1.000000" stroke="none" 
	d="
M90.872047,43.116058 
	C90.717018,42.835381 90.518784,42.589539 90.109238,41.879993 
	C88.595810,40.288570 87.250504,39.195686 85.905190,38.102806 
	C85.739853,37.828461 85.532455,37.590824 85.012833,36.919014 
	C82.524216,34.818317 80.394348,33.045662 78.062027,31.599503 
	C75.802803,30.198658 73.335403,29.133545 70.959435,27.920979 
	C74.852760,29.038864 79.276955,29.332796 82.537193,31.433310 
	C91.363503,37.119957 98.216171,44.892399 103.145416,54.633938 
	C102.386147,55.706894 101.610847,56.409786 100.464241,56.761421 
	C99.370171,54.961693 98.647392,53.513218 97.924614,52.064743 
	C97.924614,52.064743 97.995529,52.007504 97.991196,51.696198 
	C96.957756,50.288097 95.928650,49.191307 94.899544,48.094517 
	C94.899544,48.094517 94.983963,47.997936 94.965302,47.697830 
	C93.588448,45.970505 92.230247,44.543282 90.872047,43.116058 
z"/>
<path fill="#B4B5C6" opacity="1.000000" stroke="none" 
	d="
M70.550278,27.925209 
	C73.335403,29.133545 75.802803,30.198658 78.062027,31.599503 
	C80.394348,33.045662 82.524216,34.818317 84.814850,36.787785 
	C83.823845,36.771004 82.555885,36.672951 81.729309,36.017921 
	C74.002434,29.894695 65.653259,29.447256 56.397141,33.039261 
	C59.482426,27.921677 65.403389,29.565367 70.550278,27.925209 
z"/>
<path fill="#B4B5C6" opacity="1.000000" stroke="none" 
	d="
M55.763641,33.039135 
	C55.826828,33.286488 55.620258,33.568192 55.144043,33.875603 
	C55.080894,33.625370 55.287392,33.349426 55.763641,33.039135 
z"/>
<path fill="#B4B5C6" opacity="1.000000" stroke="none" 
	d="
M54.643738,33.921322 
	C54.727020,34.167271 54.540043,34.463840 54.086639,34.821457 
	C54.004631,34.578983 54.189053,34.275463 54.643738,33.921322 
z"/>
<path fill="#A0A0B5" opacity="1.000000" stroke="none" 
	d="
M189.287109,119.967667 
	C198.772141,105.301888 195.729599,89.318771 192.677673,73.806427 
	C190.785385,64.188255 187.169708,54.668537 182.799438,45.863071 
	C179.884567,39.990055 174.879227,34.721359 169.731537,30.495176 
	C162.685486,24.710472 154.203720,24.404762 145.327301,27.957411 
	C152.665985,20.065882 163.859009,22.256187 172.174286,28.006626 
	C176.155624,30.759930 179.038712,35.101345 182.680450,39.314026 
	C186.580200,48.278015 190.218689,56.651459 193.882462,65.440079 
	C197.073318,81.540123 199.724884,97.249023 196.123154,113.250221 
	C193.961273,115.488129 191.799393,117.726036 189.287109,119.967667 
z"/>
<path fill="#68778F" opacity="1.000000" stroke="none" 
	d="
M196.331070,113.179611 
	C199.724884,97.249023 197.073318,81.540123 194.140060,65.513130 
	C194.831436,65.430046 195.290466,65.689079 195.749512,65.948120 
	C199.138367,80.116020 200.582932,94.388725 198.001083,108.866234 
	C197.799347,109.997475 197.355301,111.085510 196.991974,112.588943 
	C196.960068,112.984261 196.538986,113.108994 196.331070,113.179611 
z"/>
<path fill="#647490" opacity="1.000000" stroke="none" 
	d="
M195.741638,65.582031 
	C195.290466,65.689079 194.831436,65.430046 194.114792,65.097954 
	C190.218689,56.651459 186.580200,48.278015 182.930130,39.546753 
	C184.254974,40.480694 186.151093,41.530476 186.832092,43.105602 
	C189.984070,50.395844 192.798462,57.832039 195.741638,65.582031 
z"/>
<path fill="#A0A0B5" opacity="1.000000" stroke="none" 
	d="
M144.707581,27.959934 
	C144.759232,28.198410 144.547424,28.479067 144.063416,28.781487 
	C144.008881,28.536203 144.226501,28.269159 144.707581,27.959934 
z"/>
<path fill="#027CF8" opacity="1.000000" stroke="none" 
	d="
M32.775299,83.003853 
	C32.510509,87.698921 32.245720,92.393982 31.913914,97.544716 
	C29.762041,99.188622 27.729612,100.486099 25.571566,101.521843 
	C24.383232,102.092178 22.119143,102.865211 21.812244,102.452393 
	C18.502771,98.000717 14.570129,99.798668 10.205614,100.594620 
	C9.895633,94.483376 10.031930,88.766205 10.529295,83.217636 
	C18.185341,83.258781 25.480320,83.131317 32.775299,83.003853 
z"/>
<path fill="#B4B5C6" opacity="1.000000" stroke="none" 
	d="
M97.915359,52.476387 
	C98.647392,53.513218 99.370171,54.961693 100.144135,56.797741 
	C88.152283,75.639946 76.232925,94.177773 63.934349,112.460510 
	C62.065105,115.239265 58.436325,116.834404 55.249054,118.915932 
	C72.560699,101.307838 83.097542,78.763588 96.923874,58.521790 
	C97.902679,57.088810 97.608414,54.786240 97.915359,52.476387 
z"/>
<path fill="#657591" opacity="1.000000" stroke="none" 
	d="
M10.168228,83.049034 
	C10.031930,88.766205 9.895633,94.483376 9.820018,100.598206 
	C9.726211,113.629196 14.182674,124.602547 21.877155,134.757568 
	C15.390939,132.001633 13.391757,125.572418 11.162260,119.705040 
	C6.771119,108.148857 7.313005,95.999641 8.555254,83.957359 
	C9.126592,78.418846 10.476949,72.960686 11.788322,67.246223 
	C12.100579,67.778938 12.098571,68.531532 12.038992,70.063965 
	C11.377024,74.912216 10.772626,78.980629 10.168228,83.049034 
z"/>
<path fill="#FBFCFC" opacity="1.000000" stroke="none" 
	d="
M186.993164,206.086792 
	C182.587646,200.932709 182.430252,195.136826 183.209167,189.277435 
	C183.932693,183.834854 188.366699,179.218445 193.324417,178.161911 
	C199.327499,176.882629 205.476852,179.303192 208.605347,184.176880 
	C215.175430,194.411972 207.375748,210.419296 195.431366,210.505371 
	C192.716568,210.524933 189.982101,207.817963 186.993164,206.086792 
z"/>
<path fill="#FBFCFC" opacity="1.000000" stroke="none" 
	d="
M96.075012,189.844559 
	C97.490479,183.857056 100.146629,178.964874 106.906593,177.811279 
	C114.634705,176.492462 119.916740,180.746078 120.601021,189.610397 
	C112.068382,189.951675 104.071701,189.898117 96.075012,189.844559 
z"/>
<path fill="#000001" opacity="1.000000" stroke="none" 
	d="
M96.325378,190.177521 
	C104.071701,189.898117 112.068382,189.951675 120.534027,190.002594 
	C112.860573,190.170151 104.718163,190.340302 96.325378,190.177521 
z"/>
<path fill="#0273EF" opacity="1.000000" stroke="none" 
	d="
M155.816559,132.509186 
	C157.758392,128.399887 161.081558,124.761627 161.651978,120.733551 
	C162.268524,116.379807 163.979080,114.161491 167.765503,112.344086 
	C170.569260,114.439682 173.160553,116.799042 175.950851,119.416725 
	C176.002625,121.734711 175.855392,123.794388 175.644562,126.743614 
	C170.201477,128.963821 170.231644,134.879486 169.880371,141.117249 
	C165.221130,138.665527 160.603363,135.737045 155.816559,132.509186 
z"/>
<path fill="#A0A0B5" opacity="1.000000" stroke="none" 
	d="
M187.213776,120.854340 
	C187.399704,120.491058 187.894714,120.182159 188.693085,119.907333 
	C188.505264,120.263847 188.014053,120.586281 187.213776,120.854340 
z"/>
<path fill="#657591" opacity="1.000000" stroke="none" 
	d="
M14.738596,57.196503 
	C14.569461,58.872906 14.108829,60.761181 13.352116,62.853542 
	C13.519721,61.174545 13.983409,59.291458 14.738596,57.196503 
z"/>
<path fill="#657591" opacity="1.000000" stroke="none" 
	d="
M12.776325,63.228027 
	C12.932758,64.214943 12.788538,65.415680 12.359515,66.842834 
	C12.208365,65.860115 12.342019,64.650986 12.776325,63.228027 
z"/>
<path fill="#0175F2" opacity="1.000000" stroke="none" 
	d="
M10.529295,83.217636 
	C10.772626,78.980629 11.377024,74.912216 12.060239,70.439804 
	C17.750822,71.022514 23.387943,71.889862 28.958038,73.072800 
	C30.515156,73.403488 31.874571,74.665108 33.590786,75.738251 
	C33.567673,78.060318 33.278450,80.143806 32.882263,82.615570 
	C25.480320,83.131317 18.185341,83.258781 10.529295,83.217636 
z"/>
<path fill="#B4B5C6" opacity="1.000000" stroke="none" 
	d="
M90.882889,43.469254 
	C92.230247,44.543282 93.588448,45.970505 94.919464,47.745296 
	C93.559433,46.669395 92.226578,45.245922 90.882889,43.469254 
z"/>
<path fill="#B4B5C6" opacity="1.000000" stroke="none" 
	d="
M85.937317,38.439072 
	C87.250504,39.195686 88.595810,40.288570 89.916962,41.740036 
	C88.585007,40.990860 87.277222,39.883099 85.937317,38.439072 
z"/>
<path fill="#B4B5C6" opacity="1.000000" stroke="none" 
	d="
M94.905113,48.447655 
	C95.928650,49.191307 96.957756,50.288097 97.954468,51.726891 
	C96.918282,50.979523 95.914482,49.890156 94.905113,48.447655 
z"/>
<path fill="#0467E2" opacity="1.000000" stroke="none" 
	d="
M36.331718,65.280235 
	C36.201378,65.106682 36.292461,64.757744 36.579025,64.218582 
	C36.700718,64.387192 36.626930,64.746025 36.331718,65.280235 
z"/>
</svg>