<svg version="1.1" id="Layer_1" xmlns="http://www.w3.org/2000/svg" xmlns:xlink="http://www.w3.org/1999/xlink" x="0px" y="0px"
	 width="100%" viewBox="0 0 225 225" enable-background="new 0 0 225 225" xml:space="preserve">
<path fill="#F3F3F3" opacity="1.000000" stroke="none" 
	d="
M226.000000,79.000000 
	C226.000000,128.333328 226.000000,177.166672 226.000000,226.000000 
	C151.000000,226.000000 76.000000,226.000000 1.000000,226.000000 
	C1.000000,151.000000 1.000000,76.000000 1.000000,1.000000 
	C76.000000,1.000000 151.000000,1.000000 226.000000,1.000000 
	C226.000000,26.833334 226.000000,52.666668 226.000000,79.000000 
M107.448334,108.382156 
	C107.704796,107.932686 107.961258,107.483215 108.517372,106.141693 
	C108.549873,75.548233 108.585625,44.954777 108.597137,14.361313 
	C108.597443,13.554247 108.334259,12.747082 107.738312,11.171561 
	C106.915329,11.092328 106.092361,10.944135 105.269356,10.943820 
	C74.845215,10.932184 44.421066,10.931370 13.996930,10.947919 
	C13.059566,10.948428 12.122312,11.148588 11.206308,11.253235 
	C11.088313,12.040512 10.954294,12.518049 10.954077,12.995647 
	C10.940166,43.586018 10.925117,74.176414 10.980158,104.766678 
	C10.982207,105.905449 11.676454,107.042969 12.853405,108.441368 
	C43.432632,108.496170 74.011864,108.553986 104.591103,108.589317 
	C105.404518,108.590256 106.218208,108.347061 107.448334,108.382156 
M215.908783,119.372559 
	C215.591660,119.191978 215.274551,119.011391 214.042206,118.631897 
	C183.663895,118.616760 153.285568,118.595917 122.907265,118.606064 
	C121.603996,118.606499 120.300827,118.893051 118.445679,119.154160 
	C118.582771,119.600967 118.719864,120.047783 118.639038,121.348213 
	C118.621674,133.135361 118.565804,144.922592 118.595627,156.709641 
	C118.644760,176.126862 118.749329,195.543945 118.865852,215.570068 
	C119.236565,215.676956 119.607277,215.783844 120.906998,216.045334 
	C152.277115,215.993912 183.647232,215.942490 215.542984,215.916794 
	C215.659012,215.617630 215.775024,215.318481 216.045624,214.090652 
	C215.993988,182.720673 215.942368,151.350677 215.908783,119.372559 
M118.446777,14.093197 
	C118.446777,45.457565 118.446777,76.821938 118.446777,108.544083 
	C150.999390,108.544083 182.900467,108.544083 215.311981,108.731590 
	C215.515564,108.465736 215.719162,108.199883 216.059509,107.013725 
	C216.059509,75.094101 216.059509,43.174484 216.059509,11.291676 
	C214.996307,11.101136 214.522430,10.942119 214.048477,10.941854 
	C183.061127,10.924547 152.073776,10.910836 121.086510,10.956546 
	C120.098038,10.958004 119.110489,11.581235 118.171371,12.582701 
	C118.271507,12.782284 118.371635,12.981866 118.446777,14.093197 
M10.928285,195.499863 
	C10.928285,202.258942 10.928285,209.018005 10.928285,215.875656 
	C43.710850,215.875656 75.809837,215.875656 108.221786,215.875656 
	C108.347336,214.238220 108.556946,212.771423 108.557945,211.304504 
	C108.578033,181.826172 108.494270,152.347351 108.666801,122.870003 
	C108.690842,118.762909 106.985062,118.354744 103.606056,118.366646 
	C74.627693,118.468773 45.648819,118.420883 16.670107,118.436935 
	C14.876358,118.437935 13.082699,118.600273 10.928256,118.705101 
	C10.928256,144.241684 10.928256,169.370804 10.928285,195.499863 
z"/>
<path fill="#81BC06" opacity="1.000000" stroke="none" 
	d="
M118.122505,11.914610 
	C119.110489,11.581235 120.098038,10.958004 121.086510,10.956546 
	C152.073776,10.910836 183.061127,10.924547 214.048477,10.941854 
	C214.522430,10.942119 214.996307,11.101136 216.059509,11.291676 
	C216.059509,43.174484 216.059509,75.094101 215.786133,107.545441 
	C215.212006,108.135826 214.974945,108.291466 214.801529,108.544083 
	C182.900467,108.544083 150.999390,108.544083 118.446777,108.544083 
	C118.446777,76.821938 118.446777,45.457565 118.591721,13.476864 
	C118.531944,12.545224 118.327225,12.229918 118.122505,11.914610 
z"/>
<path fill="#05A6F0" opacity="1.000000" stroke="none" 
	d="
M10.928270,194.999878 
	C10.928256,169.370804 10.928256,144.241684 10.928256,118.705101 
	C13.082699,118.600273 14.876358,118.437935 16.670107,118.436935 
	C45.648819,118.420883 74.627693,118.468773 103.606056,118.366646 
	C106.985062,118.354744 108.690842,118.762909 108.666801,122.870003 
	C108.494270,152.347351 108.578033,181.826172 108.557945,211.304504 
	C108.556946,212.771423 108.347336,214.238220 108.221786,215.875656 
	C75.809837,215.875656 43.710850,215.875656 10.928285,215.875656 
	C10.928285,209.018005 10.928285,202.258942 10.928270,194.999878 
z"/>
<path fill="#FFBA08" opacity="1.000000" stroke="none" 
	d="
M118.830528,214.961090 
	C118.749329,195.543945 118.644760,176.126862 118.595627,156.709641 
	C118.565804,144.922592 118.621674,133.135361 118.786346,120.559174 
	C118.954971,119.528870 118.976288,119.287598 118.997612,119.046326 
	C120.300827,118.893051 121.603996,118.606499 122.907265,118.606064 
	C153.285568,118.595917 183.663895,118.616760 214.598755,118.965981 
	C215.400452,119.526939 215.645599,119.753815 215.890747,119.980698 
	C215.942368,151.350677 215.993988,182.720673 215.781555,214.654785 
	C215.284729,215.393799 215.118011,215.617844 215.017349,215.891052 
	C183.647232,215.942490 152.277115,215.993912 120.302338,215.757233 
	C119.408630,215.299774 119.119576,215.130432 118.830528,214.961090 
z"/>
<path fill="#F35325" opacity="1.000000" stroke="none" 
	d="
M108.193954,11.939962 
	C108.334259,12.747082 108.597443,13.554247 108.597137,14.361313 
	C108.585625,44.954777 108.549873,75.548233 108.192398,106.638138 
	C107.588875,107.495621 107.310326,107.856674 107.031769,108.217712 
	C106.218208,108.347061 105.404518,108.590256 104.591103,108.589317 
	C74.011864,108.553986 43.432632,108.496170 12.439425,107.828705 
	C12.016963,77.395523 12.104791,47.574341 11.898361,17.755201 
	C11.866624,13.170632 13.112985,11.867298 17.734318,11.895410 
	C47.886501,12.078827 78.040527,11.959974 108.193954,11.939962 
z"/>
<path fill="#F34400" opacity="1.000000" stroke="none" 
	d="
M107.966133,11.555761 
	C78.040527,11.959974 47.886501,12.078827 17.734318,11.895410 
	C13.112985,11.867298 11.866624,13.170632 11.898361,17.755201 
	C12.104791,47.574341 12.016963,77.395523 12.036786,107.698555 
	C11.676454,107.042969 10.982207,105.905449 10.980158,104.766678 
	C10.925117,74.176414 10.940166,43.586018 10.954077,12.995647 
	C10.954294,12.518049 11.088313,12.040512 11.206308,11.253235 
	C12.122312,11.148588 13.059566,10.948428 13.996930,10.947919 
	C44.421066,10.931370 74.845215,10.932184 105.269356,10.943820 
	C106.092361,10.944135 106.915329,11.092328 107.966133,11.555761 
z"/>
<path fill="#F34C17" opacity="1.000000" stroke="none" 
	d="
M107.240051,108.299942 
	C107.310326,107.856674 107.588875,107.495621 108.042572,107.084160 
	C107.961258,107.483215 107.704796,107.932686 107.240051,108.299942 
z"/>
<path fill="#B0D280" opacity="1.000000" stroke="none" 
	d="
M118.146942,12.248655 
	C118.327225,12.229918 118.531944,12.545224 118.604218,13.020988 
	C118.371635,12.981866 118.271507,12.782284 118.146942,12.248655 
z"/>
<path fill="#B0D280" opacity="1.000000" stroke="none" 
	d="
M215.056763,108.637833 
	C214.974945,108.291466 215.212006,108.135826 215.717743,108.005592 
	C215.719162,108.199883 215.515564,108.465736 215.056763,108.637833 
z"/>
<path fill="#FFB702" opacity="1.000000" stroke="none" 
	d="
M118.721649,119.100243 
	C118.976288,119.287598 118.954971,119.528870 118.895309,120.132370 
	C118.719864,120.047783 118.582771,119.600967 118.721649,119.100243 
z"/>
<path fill="#FFB702" opacity="1.000000" stroke="none" 
	d="
M215.899750,119.676628 
	C215.645599,119.753815 215.400452,119.526939 215.056366,119.065437 
	C215.274551,119.011391 215.591660,119.191978 215.899750,119.676628 
z"/>
<path fill="#FFB702" opacity="1.000000" stroke="none" 
	d="
M118.848190,215.265579 
	C119.119576,215.130432 119.408630,215.299774 119.837837,215.679932 
	C119.607277,215.783844 119.236565,215.676956 118.848190,215.265579 
z"/>
<path fill="#FFB702" opacity="1.000000" stroke="none" 
	d="
M215.280167,215.903931 
	C215.118011,215.617844 215.284729,215.393799 215.704254,215.119110 
	C215.775024,215.318481 215.659012,215.617630 215.280167,215.903931 
z"/>
</svg>