<svg version="1.1" id="Layer_1" xmlns="http://www.w3.org/2000/svg" xmlns:xlink="http://www.w3.org/1999/xlink" x="0px" y="0px"
	 width="100%" viewBox="0 0 225 225" enable-background="new 0 0 225 225" xml:space="preserve">
<path fill="#254CA6" opacity="1.000000" stroke="none" 
	d="
M108.000000,226.000000 
	C72.000000,226.000000 36.500004,226.000000 1.000005,226.000000 
	C1.000003,151.000000 1.000003,76.000015 1.000002,1.000015 
	C75.999992,1.000010 150.999985,1.000010 225.999969,1.000005 
	C225.999985,75.999985 225.999985,150.999969 226.000000,225.999969 
	C186.833328,226.000000 147.666672,226.000000 108.000000,226.000000 
M69.509109,113.595078 
	C71.241600,113.533333 72.974091,113.471588 75.566231,113.638062 
	C78.661301,113.638062 81.756371,113.638062 85.159286,113.638062 
	C85.159286,110.747482 85.159286,108.358398 85.159286,105.386024 
	C83.186035,105.529236 81.455635,105.654823 79.281013,105.323921 
	C78.820557,104.895714 78.360092,104.467514 78.004677,103.168358 
	C78.076965,101.727562 78.149261,100.286766 78.211868,99.038933 
	C80.823441,98.241623 83.116455,97.541565 85.574356,96.791168 
	C85.431732,94.121994 85.305267,91.755341 85.180069,89.412300 
	C82.291473,89.239609 80.030045,89.104408 77.593628,88.958748 
	C77.593628,86.440758 77.593628,84.231529 77.593628,81.855629 
	C80.197708,81.476891 82.568962,81.132011 85.728577,80.591461 
	C87.801025,80.966202 89.873466,81.340950 91.959496,82.692787 
	C91.972794,88.525970 91.871513,94.362427 92.037498,100.191261 
	C92.159065,104.460472 92.631615,108.719681 93.340034,113.558762 
	C96.139008,113.421425 98.937988,113.284096 102.284729,112.476280 
	C102.523323,110.694084 102.950127,108.913834 102.968468,107.129372 
	C103.055504,98.660461 103.031181,90.190407 103.795929,81.440788 
	C108.502159,79.598175 105.209618,76.173561 106.008377,72.751747 
	C98.572853,73.181221 91.793617,73.572784 84.506363,73.280113 
	C79.320290,73.525360 74.134209,73.770599 68.475029,74.691841 
	C68.319420,86.382904 68.137459,98.073769 68.052101,109.765343 
	C68.044243,110.842941 68.652061,111.925049 69.168152,112.897652 
	C69.168152,112.897652 69.389435,112.913841 69.509109,113.595078 
M45.619492,130.195999 
	C47.480419,130.471237 49.341343,130.746475 51.445576,131.929535 
	C51.466305,140.070770 51.488979,148.211990 51.507195,156.353226 
	C51.524055,163.888397 51.964947,164.172043 59.038437,160.882751 
	C59.038437,151.060913 59.038437,141.114304 59.038437,131.228439 
	C65.873055,129.761642 66.349136,128.885956 64.559532,121.782074 
	C58.110157,121.782074 51.714138,121.782074 45.098682,121.782074 
	C45.098682,124.641968 45.098682,127.119293 45.619492,130.195999 
M144.431564,104.613792 
	C139.700089,104.448502 138.517349,101.814278 138.928497,97.456612 
	C139.298141,93.538933 139.140747,89.552971 138.968140,85.607964 
	C138.798462,81.729378 138.317200,77.864433 137.403397,73.470909 
	C134.825027,73.366196 132.246643,73.261482 128.685715,73.112732 
	C128.030701,73.106117 127.375694,73.099495 125.819572,73.130669 
	C119.932800,73.130669 114.046036,73.130669 108.076019,73.130669 
	C108.076019,76.175301 108.076019,78.470108 108.076019,80.966316 
	C109.427345,81.232643 110.689766,81.481445 111.964485,82.705238 
	C111.976196,90.947380 111.918053,99.190651 112.052368,107.430794 
	C112.083107,109.316551 112.777061,111.191505 113.738228,113.438354 
	C116.436134,113.317429 119.134048,113.196503 122.358871,112.412186 
	C122.588638,102.184990 122.818413,91.957794 123.648888,81.459473 
	C124.501900,81.560684 125.354904,81.661896 127.176773,81.875656 
	C127.820518,81.919899 128.464264,81.964142 129.344177,82.919395 
	C129.366226,90.746284 129.397812,98.573158 129.407806,106.400063 
	C129.419373,115.442116 129.662369,115.717308 138.719070,114.696754 
	C141.093521,114.429207 143.415619,113.696869 146.207016,113.079498 
	C145.791885,110.245071 145.415482,107.675179 144.431564,104.613792 
M96.595695,122.614624 
	C96.490059,134.989670 96.376816,147.364655 96.311279,159.739914 
	C96.309044,160.161789 96.785988,160.586227 97.541031,161.614151 
	C99.981834,162.046906 102.409409,162.722946 104.866486,162.856613 
	C108.758957,163.068375 112.676003,163.036682 116.573425,162.879425 
	C119.384727,162.766006 122.181053,162.281158 125.821732,161.919678 
	C132.977112,162.110611 128.576508,157.032776 129.854340,154.046509 
	C126.941353,153.777969 124.545769,153.557129 122.063370,153.328293 
	C122.063370,150.736710 122.063370,148.376755 122.063370,145.999619 
	C124.689354,145.847473 126.953247,145.716293 129.493805,145.569092 
	C129.493805,142.896164 129.493805,140.500473 129.493805,137.569427 
	C127.399429,137.706482 125.486725,137.831650 123.129936,137.632278 
	C122.765221,137.615173 122.400513,137.598068 121.777008,136.612762 
	C121.777008,134.385376 121.777008,132.157990 121.777008,129.959869 
	C124.724518,129.783600 126.987213,129.648285 129.509216,129.497452 
	C129.509216,126.812843 129.509216,124.425865 129.509216,121.877525 
	C123.963570,121.877525 118.597679,121.877525 112.682632,122.542419 
	C112.452019,127.940590 112.289734,133.342804 111.970581,138.735748 
	C111.681175,143.626175 111.220863,148.506516 110.082535,153.570282 
	C109.064102,153.486252 108.045662,153.402222 107.028191,152.335464 
	C107.021721,144.043823 107.093613,135.750809 106.949142,127.461571 
	C106.916389,125.582413 106.132675,123.716339 105.014099,121.620163 
	C102.380722,121.731110 99.747353,121.842049 96.595695,122.614624 
M41.854069,112.850311 
	C42.831245,112.562584 43.808422,112.274857 45.042824,112.668221 
	C45.815754,113.283943 46.603603,114.446770 47.359184,114.426163 
	C52.095753,114.296989 54.698208,111.942017 54.967133,107.230438 
	C55.640892,109.150574 56.314651,111.070717 57.423244,113.532227 
	C59.939697,113.532227 62.456150,113.532227 64.943207,113.532227 
	C64.943207,99.806839 64.943207,86.714516 64.943207,73.416809 
	C60.897751,73.416809 57.150261,73.416809 53.278172,73.416809 
	C52.057415,80.890846 50.876205,88.122749 49.694996,95.354652 
	C49.512722,95.375244 49.330448,95.395844 49.148174,95.416443 
	C47.817276,88.027901 46.486374,80.639366 45.204712,73.524147 
	C40.816227,73.524147 37.075157,73.524147 33.077541,73.524147 
	C33.077541,86.382927 33.106766,98.863747 33.056408,111.344254 
	C33.044247,114.357750 34.526287,115.194405 37.161777,114.498512 
	C38.562477,114.128670 39.893219,113.493858 41.854069,112.850311 
M133.543915,153.390305 
	C133.543915,156.460571 133.543915,159.530838 133.543915,163.127228 
	C142.290054,162.200989 150.615570,162.654556 154.736588,154.237106 
	C159.245224,145.027908 158.945740,135.493118 153.416260,126.815308 
	C148.728821,119.458969 141.009064,121.609337 133.544037,121.545540 
	C133.544037,132.186401 133.544037,142.301697 133.543915,153.390305 
M169.759781,106.403427 
	C169.761993,115.254616 169.761993,115.254616 177.514938,113.010422 
	C177.911453,109.669830 178.307983,106.329239 178.704498,102.988647 
	C179.186417,102.975906 179.668335,102.963173 180.150253,102.950432 
	C181.279083,105.103592 182.426117,107.247444 183.533310,109.411659 
	C186.801575,115.800049 186.795410,115.803200 193.330170,112.554649 
	C190.594330,107.307854 187.858185,102.060463 185.141098,96.849640 
	C191.648209,92.872147 193.452774,89.058022 192.191284,82.555458 
	C191.197662,77.433716 187.840271,73.706474 183.106354,73.303947 
	C178.861908,72.943047 174.562531,73.227959 169.759750,73.227959 
	C169.759750,84.248268 169.759750,94.837868 169.759781,106.403427 
M72.298935,159.241425 
	C79.886879,164.752258 87.002876,163.069992 90.938019,154.614990 
	C94.933960,146.029388 94.957039,137.293686 91.043388,128.650833 
	C89.004608,124.148430 85.827415,121.020523 80.478439,120.908470 
	C75.003479,120.793777 71.155083,123.571075 69.078659,128.267914 
	C64.415390,138.816147 64.453606,149.144241 72.298935,159.241425 
M188.021484,142.452042 
	C186.698853,137.224228 186.311172,131.496109 183.842041,126.881798 
	C179.786377,119.302551 170.461395,119.090332 165.144913,125.899536 
	C158.131134,134.882568 158.276382,149.832352 165.560669,158.565811 
	C172.122437,166.432999 179.582306,164.091095 183.917831,156.964600 
	C186.298874,153.050751 186.711456,147.939392 188.021484,142.452042 
M157.905594,86.177254 
	C157.905594,84.709381 157.905594,83.241516 157.905594,81.606964 
	C160.764267,81.427132 163.190109,81.274529 165.554153,81.125816 
	C165.554153,78.356003 165.554153,75.943954 165.554153,73.456390 
	C160.160233,73.456390 155.112610,73.456390 150.209869,73.456390 
	C150.209869,87.325302 150.209869,100.861259 150.209869,115.127319 
	C155.800476,114.536545 160.773178,114.011063 165.663483,113.494286 
	C165.663483,110.492462 165.663483,108.207092 165.663483,105.646278 
	C163.046707,105.463577 160.636322,105.295288 158.228851,105.127197 
	C158.228851,102.467155 158.228851,100.110008 158.228851,97.741310 
	C160.910004,97.572418 163.202820,97.427994 165.601898,97.276871 
	C165.601898,94.545013 165.601898,92.133064 165.601898,90.380768 
	C162.731873,89.149345 160.346924,88.126053 157.905594,86.177254 
z"/>
<path fill="#F7F8FB" opacity="1.000000" stroke="none" 
	d="
M54.344765,106.945381 
	C54.698208,111.942017 52.095753,114.296989 47.359184,114.426163 
	C46.603603,114.446770 45.815754,113.283943 44.949860,111.919716 
	C43.815884,104.443581 42.774864,97.715950 41.733849,90.988327 
	C41.574413,91.009590 41.414974,91.030853 41.255539,91.052116 
	C41.255539,98.360962 41.255539,105.669807 41.255539,112.978653 
	C39.893219,113.493858 38.562477,114.128670 37.161777,114.498512 
	C34.526287,115.194405 33.044247,114.357750 33.056408,111.344254 
	C33.106766,98.863747 33.077541,86.382927 33.077541,73.524147 
	C37.075157,73.524147 40.816227,73.524147 45.204712,73.524147 
	C46.486374,80.639366 47.817276,88.027901 49.148174,95.416443 
	C49.330448,95.395844 49.512722,95.375244 49.694996,95.354652 
	C50.876205,88.122749 52.057415,80.890846 53.278172,73.416809 
	C57.150261,73.416809 60.897751,73.416809 64.943207,73.416809 
	C64.943207,86.714516 64.943207,99.806839 64.943207,113.532227 
	C62.456150,113.532227 59.939697,113.532227 57.237846,112.794937 
	C57.052448,105.963318 57.052448,99.868980 57.052448,93.774651 
	C56.718460,93.766434 56.384472,93.758217 56.050484,93.750000 
	C55.481911,98.148460 54.913338,102.546921 54.344765,106.945381 
z"/>
<path fill="#F6F7FB" opacity="1.000000" stroke="none" 
	d="
M133.543976,152.903656 
	C133.544037,142.301697 133.544037,132.186401 133.544037,121.545540 
	C141.009064,121.609337 148.728821,119.458969 153.416260,126.815308 
	C158.945740,135.493118 159.245224,145.027908 154.736588,154.237106 
	C150.615570,162.654556 142.290054,162.200989 133.543915,163.127228 
	C133.543915,159.530838 133.543915,156.460571 133.543976,152.903656 
M145.138947,129.298782 
	C144.136841,129.113388 143.134735,128.927994 141.851685,128.690628 
	C141.851685,136.961517 141.871506,144.721725 141.839081,152.481750 
	C141.829880,154.684662 142.396683,155.762878 145.338638,154.154282 
	C150.730438,148.194229 150.877441,135.554214 145.138947,129.298782 
z"/>
<path fill="#F7F8FB" opacity="1.000000" stroke="none" 
	d="
M169.759766,105.915451 
	C169.759750,94.837868 169.759750,84.248268 169.759750,73.227959 
	C174.562531,73.227959 178.861908,72.943047 183.106354,73.303947 
	C187.840271,73.706474 191.197662,77.433716 192.191284,82.555458 
	C193.452774,89.058022 191.648209,92.872147 185.141098,96.849640 
	C187.858185,102.060463 190.594330,107.307854 193.330170,112.554649 
	C186.795410,115.803200 186.801575,115.800049 183.533310,109.411659 
	C182.426117,107.247444 181.279083,105.103592 180.150253,102.950432 
	C179.668335,102.963173 179.186417,102.975906 178.704498,102.988647 
	C178.307983,106.329239 177.911453,109.669830 177.514709,113.010300 
	C169.761993,115.254616 169.761993,115.254616 169.759766,105.915451 
M177.931961,88.927261 
	C178.511703,89.512924 179.092636,90.604630 179.670975,90.603249 
	C183.855515,90.593315 184.418472,87.465294 184.179474,84.398766 
	C183.903671,80.860207 181.794601,79.322418 177.924667,80.447105 
	C177.924667,83.114090 177.924667,85.586151 177.931961,88.927261 
z"/>
<path fill="#F7F8FB" opacity="1.000000" stroke="none" 
	d="
M72.039581,158.983063 
	C64.453606,149.144241 64.415390,138.816147 69.078659,128.267914 
	C71.155083,123.571075 75.003479,120.793777 80.478439,120.908470 
	C85.827415,121.020523 89.004608,124.148430 91.043388,128.650833 
	C94.957039,137.293686 94.933960,146.029388 90.938019,154.614990 
	C87.002876,163.069992 79.886879,164.752258 72.039581,158.983063 
M81.726158,154.307755 
	C85.320793,150.439697 87.003487,135.605453 83.886917,131.426910 
	C82.824959,130.003082 80.300926,128.990112 78.489174,129.053497 
	C77.356026,129.093140 75.457054,131.437943 75.366219,132.843063 
	C74.993904,138.602127 74.852379,144.424026 75.311073,150.168091 
	C75.530792,152.919601 77.178696,155.679794 81.726158,154.307755 
z"/>
<path fill="#F7F8FB" opacity="1.000000" stroke="none" 
	d="
M188.016541,142.910004 
	C186.711456,147.939392 186.298874,153.050751 183.917831,156.964600 
	C179.582306,164.091095 172.122437,166.432999 165.560669,158.565811 
	C158.276382,149.832352 158.131134,134.882568 165.144913,125.899536 
	C170.461395,119.090332 179.786377,119.302551 183.842041,126.881798 
	C186.311172,131.496109 186.698853,137.224228 188.016541,142.910004 
M179.874939,145.108521 
	C179.627762,141.490860 179.846390,137.752899 178.954895,134.301666 
	C178.438126,132.301117 176.284286,129.485916 174.604767,129.290329 
	C171.465149,128.924713 169.301331,131.421585 169.121109,134.816574 
	C168.919220,138.619308 168.770142,142.443634 168.947159,146.242279 
	C169.113571,149.813751 168.931717,154.408173 173.542755,155.000259 
	C178.525330,155.640076 178.682480,150.909393 179.583725,147.460114 
	C179.708633,146.982117 179.735855,146.478607 179.874939,145.108521 
z"/>
<path fill="#F3F4F9" opacity="1.000000" stroke="none" 
	d="
M157.933777,86.640007 
	C160.346924,88.126053 162.731873,89.149345 165.601898,90.380768 
	C165.601898,92.133064 165.601898,94.545013 165.601898,97.276871 
	C163.202820,97.427994 160.910004,97.572418 158.228851,97.741310 
	C158.228851,100.110008 158.228851,102.467155 158.228851,105.127197 
	C160.636322,105.295288 163.046707,105.463577 165.663483,105.646278 
	C165.663483,108.207092 165.663483,110.492462 165.663483,113.494286 
	C160.773178,114.011063 155.800476,114.536545 150.209869,115.127319 
	C150.209869,100.861259 150.209869,87.325302 150.209869,73.456390 
	C155.112610,73.456390 160.160233,73.456390 165.554153,73.456390 
	C165.554153,75.943954 165.554153,78.356003 165.554153,81.125816 
	C163.190109,81.274529 160.764267,81.427132 157.905594,81.606964 
	C157.905594,83.241516 157.905594,84.709381 157.933777,86.640007 
z"/>
<path fill="#F5F6FA" opacity="1.000000" stroke="none" 
	d="
M79.725235,105.780411 
	C81.455635,105.654823 83.186035,105.529236 85.159286,105.386024 
	C85.159286,108.358398 85.159286,110.747482 85.159286,113.638062 
	C81.756371,113.638062 78.661301,113.638062 74.829216,113.410614 
	C72.524612,113.093391 70.957024,113.003616 69.389435,112.913849 
	C69.389435,112.913841 69.168152,112.897652 69.102226,112.483345 
	C69.006912,99.384636 68.977524,86.700241 68.948135,74.015839 
	C74.134209,73.770599 79.320290,73.525360 84.749100,74.050079 
	C84.974632,76.809074 84.957420,78.798111 84.940216,80.787140 
	C82.568962,81.132011 80.197708,81.476891 77.593628,81.855629 
	C77.593628,84.231529 77.593628,86.440758 77.593628,88.958748 
	C80.030045,89.104408 82.291473,89.239609 85.180069,89.412300 
	C85.305267,91.755341 85.431732,94.121994 85.574356,96.791168 
	C83.116455,97.541565 80.823441,98.241623 78.211868,99.038933 
	C78.149261,100.286766 78.076965,101.727562 77.819466,103.851624 
	C78.331245,104.950066 79.028244,105.365242 79.725235,105.780411 
z"/>
<path fill="#EEF0F7" opacity="1.000000" stroke="none" 
	d="
M123.574020,137.956818 
	C125.486725,137.831650 127.399429,137.706482 129.493805,137.569427 
	C129.493805,140.500473 129.493805,142.896164 129.493805,145.569092 
	C126.953247,145.716293 124.689354,145.847473 122.063370,145.999619 
	C122.063370,148.376755 122.063370,150.736710 122.063370,153.328293 
	C124.545769,153.557129 126.941353,153.777969 129.854340,154.046509 
	C128.576508,157.032776 132.977112,162.110611 125.068008,161.711700 
	C122.677727,161.334625 121.025757,160.935181 119.407722,161.043304 
	C115.798729,161.284500 113.558655,160.316299 113.923370,156.150299 
	C114.007561,155.188583 113.646233,154.187851 113.396935,152.858795 
	C113.279900,142.300842 113.255844,132.089188 113.231789,121.877525 
	C118.597679,121.877525 123.963570,121.877525 129.509216,121.877525 
	C129.509216,124.425865 129.509216,126.812843 129.509216,129.497452 
	C126.987213,129.648285 124.724518,129.783600 121.777008,129.959869 
	C121.777008,132.157990 121.777008,134.385376 122.154617,137.187103 
	C122.879486,137.826584 123.226753,137.891708 123.574020,137.956818 
z"/>
<path fill="#F2F4F9" opacity="1.000000" stroke="none" 
	d="
M85.334396,80.689301 
	C84.957420,78.798111 84.974632,76.809074 85.003113,74.392197 
	C91.793617,73.572784 98.572853,73.181221 106.008377,72.751747 
	C105.209618,76.173561 108.502159,79.598175 102.969086,81.720718 
	C102.007141,92.382683 101.872055,102.764725 101.736961,113.146759 
	C98.937988,113.284096 96.139008,113.421425 93.177231,112.804596 
	C93.018463,103.417503 93.073212,94.784019 92.977921,86.152176 
	C92.961555,84.669731 92.306129,83.194344 91.945923,81.715691 
	C89.873466,81.340950 87.801025,80.966202 85.334396,80.689301 
z"/>
<path fill="#E9ECF5" opacity="1.000000" stroke="none" 
	d="
M113.489914,153.205078 
	C113.646233,154.187851 114.007561,155.188583 113.923370,156.150299 
	C113.558655,160.316299 115.798729,161.284500 119.407722,161.043304 
	C121.025757,160.935181 122.677727,161.334625 124.649170,161.732849 
	C122.181053,162.281158 119.384727,162.766006 116.573425,162.879425 
	C112.676003,163.036682 108.758957,163.068375 104.866486,162.856613 
	C102.409409,162.722946 99.981834,162.046906 97.346222,160.845612 
	C97.138939,147.369034 97.126457,134.661026 97.113976,121.953003 
	C99.747353,121.842049 102.380722,121.731110 105.336403,122.216125 
	C105.646622,131.569672 105.571960,140.328079 105.685631,149.084030 
	C105.704025,150.500992 106.558975,151.907074 107.027229,153.318192 
	C108.045662,153.402222 109.064102,153.486252 110.693512,153.668533 
	C112.032967,153.579544 112.761444,153.392303 113.489914,153.205078 
z"/>
<path fill="#EEF0F7" opacity="1.000000" stroke="none" 
	d="
M126.207916,81.763107 
	C125.354904,81.661896 124.501900,81.560684 122.910240,81.756577 
	C122.058380,92.394310 121.945160,102.734940 121.831955,113.075577 
	C119.134048,113.196503 116.436134,113.317429 113.481567,112.781670 
	C113.229141,103.411446 113.291016,94.697166 113.179955,85.985092 
	C113.161804,84.561829 112.380669,83.148293 111.952187,81.730255 
	C110.689766,81.481445 109.427345,81.232643 108.076019,80.966316 
	C108.076019,78.470108 108.076019,76.175301 108.076019,73.130669 
	C114.046036,73.130669 119.932800,73.130669 126.339615,73.548996 
	C126.642410,76.565910 126.425171,79.164513 126.207916,81.763107 
z"/>
<path fill="#E8EBF4" opacity="1.000000" stroke="none" 
	d="
M129.668274,73.156769 
	C132.246643,73.261482 134.825027,73.366196 137.636566,74.198715 
	C137.869736,84.982925 137.869736,95.039330 137.869736,105.105278 
	C140.731720,105.105278 142.885406,105.105278 145.039093,105.105278 
	C145.415482,107.675179 145.791885,110.245071 146.207016,113.079498 
	C143.415619,113.696869 141.093521,114.429207 138.719070,114.696754 
	C129.662369,115.717308 129.419373,115.442116 129.407806,106.400063 
	C129.397812,98.573158 129.366226,90.746284 129.323410,82.026886 
	C129.424515,78.475174 129.546387,75.815971 129.668274,73.156769 
z"/>
<path fill="#F4F6FA" opacity="1.000000" stroke="none" 
	d="
M45.098682,129.596619 
	C45.098682,127.119293 45.098682,124.641968 45.098682,121.782074 
	C51.714138,121.782074 58.110157,121.782074 64.559532,121.782074 
	C66.349136,128.885956 65.873055,129.761642 59.038437,131.228439 
	C59.038437,141.114304 59.038437,151.060913 59.038437,160.882751 
	C51.964947,164.172043 51.524055,163.888397 51.507195,156.353226 
	C51.488979,148.211990 51.466305,140.070770 51.207642,131.064514 
	C49.012695,129.998520 47.055691,129.797577 45.098682,129.596619 
z"/>
<path fill="#1647A5" opacity="1.000000" stroke="none" 
	d="
M41.554802,112.914482 
	C41.255539,105.669807 41.255539,98.360962 41.255539,91.052116 
	C41.414974,91.030853 41.574413,91.009590 41.733849,90.988327 
	C42.774864,97.715950 43.815884,104.443581 44.821247,111.579163 
	C43.808422,112.274857 42.831245,112.562584 41.554802,112.914482 
z"/>
<path fill="#0C40A2" opacity="1.000000" stroke="none" 
	d="
M96.854836,122.283813 
	C97.126457,134.661026 97.138939,147.369034 97.095505,160.543259 
	C96.785988,160.586227 96.309044,160.161789 96.311279,159.739914 
	C96.376816,147.364655 96.490059,134.989670 96.854836,122.283813 
z"/>
<path fill="#003AA0" opacity="1.000000" stroke="none" 
	d="
M68.711578,74.353836 
	C68.977524,86.700241 69.006912,99.384636 69.005142,112.537048 
	C68.652061,111.925049 68.044243,110.842941 68.052101,109.765343 
	C68.137459,98.073769 68.319420,86.382904 68.711578,74.353836 
z"/>
<path fill="#0C40A2" opacity="1.000000" stroke="none" 
	d="
M144.735321,104.859535 
	C142.885406,105.105278 140.731720,105.105278 137.869736,105.105278 
	C137.869736,95.039330 137.869736,84.982925 137.921204,74.460007 
	C138.317200,77.864433 138.798462,81.729378 138.968140,85.607964 
	C139.140747,89.552971 139.298141,93.538933 138.928497,97.456612 
	C138.517349,101.814278 139.700089,104.448502 144.735321,104.859535 
z"/>
<path fill="#1647A5" opacity="1.000000" stroke="none" 
	d="
M113.396942,152.858795 
	C112.761444,153.392303 112.032967,153.579544 111.070206,153.579041 
	C111.220863,148.506516 111.681175,143.626175 111.970581,138.735748 
	C112.289734,133.342804 112.452019,127.940590 112.957214,122.209976 
	C113.255844,132.089188 113.279900,142.300842 113.396942,152.858795 
z"/>
<path fill="#0C40A2" opacity="1.000000" stroke="none" 
	d="
M111.958336,82.217743 
	C112.380669,83.148293 113.161804,84.561829 113.179955,85.985092 
	C113.291016,94.697166 113.229141,103.411446 113.195343,112.598206 
	C112.777061,111.191505 112.083107,109.316551 112.052368,107.430794 
	C111.918053,99.190651 111.976196,90.947380 111.958336,82.217743 
z"/>
<path fill="#1647A5" opacity="1.000000" stroke="none" 
	d="
M107.027710,152.826828 
	C106.558975,151.907074 105.704025,150.500992 105.685631,149.084030 
	C105.571960,140.328079 105.646622,131.569672 105.676666,122.328171 
	C106.132675,123.716339 106.916389,125.582413 106.949142,127.461571 
	C107.093613,135.750809 107.021721,144.043823 107.027710,152.826828 
z"/>
<path fill="#0C40A2" opacity="1.000000" stroke="none" 
	d="
M91.952713,82.204239 
	C92.306129,83.194344 92.961555,84.669731 92.977921,86.152176 
	C93.073212,94.784019 93.018463,103.417503 92.981071,112.516891 
	C92.631615,108.719681 92.159065,104.460472 92.037498,100.191261 
	C91.871513,94.362427 91.972794,88.525970 91.952713,82.204239 
z"/>
<path fill="#003AA0" opacity="1.000000" stroke="none" 
	d="
M54.655949,107.087906 
	C54.913338,102.546921 55.481911,98.148460 56.050484,93.750000 
	C56.384472,93.758217 56.718460,93.766434 57.052448,93.774651 
	C57.052448,99.868980 57.052448,105.963318 57.020432,112.524246 
	C56.314651,111.070717 55.640892,109.150574 54.655949,107.087906 
z"/>
<path fill="#0C40A2" opacity="1.000000" stroke="none" 
	d="
M122.095413,112.743881 
	C121.945160,102.734940 122.058380,92.394310 122.609894,81.892136 
	C122.818413,91.957794 122.588638,102.184990 122.095413,112.743881 
z"/>
<path fill="#0C40A2" opacity="1.000000" stroke="none" 
	d="
M102.010849,112.811523 
	C101.872055,102.764725 102.007141,92.382683 102.594376,81.860703 
	C103.031181,90.190407 103.055504,98.660461 102.968468,107.129372 
	C102.950127,108.913834 102.523323,110.694084 102.010849,112.811523 
z"/>
<path fill="#1443A3" opacity="1.000000" stroke="none" 
	d="
M129.176987,73.134750 
	C129.546387,75.815971 129.424515,78.475174 129.205322,81.571381 
	C128.464264,81.964142 127.820518,81.919899 126.692352,81.819382 
	C126.425171,79.164513 126.642410,76.565910 126.790169,73.530098 
	C127.375694,73.099495 128.030701,73.106117 129.176987,73.134750 
z"/>
<path fill="#F2F4F9" opacity="1.000000" stroke="none" 
	d="
M69.449272,113.254463 
	C70.957024,113.003616 72.524612,113.093391 74.399391,113.296509 
	C72.974091,113.471588 71.241600,113.533333 69.449272,113.254463 
z"/>
<path fill="#1443A3" opacity="1.000000" stroke="none" 
	d="
M45.359085,129.896301 
	C47.055691,129.797577 49.012695,129.998520 51.085987,130.610596 
	C49.341343,130.746475 47.480419,130.471237 45.359085,129.896301 
z"/>
<path fill="#F2F4F9" opacity="1.000000" stroke="none" 
	d="
M79.503128,105.552170 
	C79.028244,105.365242 78.331245,104.950066 77.766937,104.287109 
	C78.360092,104.467514 78.820557,104.895714 79.503128,105.552170 
z"/>
<path fill="#E9ECF5" opacity="1.000000" stroke="none" 
	d="
M123.351974,137.794556 
	C123.226753,137.891708 122.879486,137.826584 122.284012,137.671204 
	C122.400513,137.598068 122.765221,137.615173 123.351974,137.794556 
z"/>
<path fill="#264DA7" opacity="1.000000" stroke="none" 
	d="
M145.620895,129.884979 
	C150.877441,135.554214 150.730438,148.194229 144.670044,153.920776 
	C143.724289,146.469070 143.377258,139.251785 143.280487,132.031174 
	C143.271042,131.326370 144.803925,130.600876 145.620895,129.884979 
z"/>
<path fill="#0C40A2" opacity="1.000000" stroke="none" 
	d="
M145.379913,129.591888 
	C144.803925,130.600876 143.271042,131.326370 143.280487,132.031174 
	C143.377258,139.251785 143.724289,146.469070 144.337402,153.998596 
	C142.396683,155.762878 141.829880,154.684662 141.839081,152.481750 
	C141.871506,144.721725 141.851685,136.961517 141.851685,128.690628 
	C143.134735,128.927994 144.136841,129.113388 145.379913,129.591888 
z"/>
<path fill="#264DA7" opacity="1.000000" stroke="none" 
	d="
M177.928314,88.492737 
	C177.924667,85.586151 177.924667,83.114090 177.924667,80.447105 
	C181.794601,79.322418 183.903671,80.860207 184.179474,84.398766 
	C184.418472,87.465294 183.855515,90.593315 179.670975,90.603249 
	C179.092636,90.604630 178.511703,89.512924 177.928314,88.492737 
z"/>
<path fill="#264DA7" opacity="1.000000" stroke="none" 
	d="
M81.388412,154.502136 
	C77.178696,155.679794 75.530792,152.919601 75.311073,150.168091 
	C74.852379,144.424026 74.993904,138.602127 75.366219,132.843063 
	C75.457054,131.437943 77.356026,129.093140 78.489174,129.053497 
	C80.300926,128.990112 82.824959,130.003082 83.886917,131.426910 
	C87.003487,135.605453 85.320793,150.439697 81.388412,154.502136 
z"/>
<path fill="#264DA7" opacity="1.000000" stroke="none" 
	d="
M179.841614,145.547714 
	C179.735855,146.478607 179.708633,146.982117 179.583725,147.460114 
	C178.682480,150.909393 178.525330,155.640076 173.542755,155.000259 
	C168.931717,154.408173 169.113571,149.813751 168.947159,146.242279 
	C168.770142,142.443634 168.919220,138.619308 169.121109,134.816574 
	C169.301331,131.421585 171.465149,128.924713 174.604767,129.290329 
	C176.284286,129.485916 178.438126,132.301117 178.954895,134.301666 
	C179.846390,137.752899 179.627762,141.490860 179.841614,145.547714 
z"/>
</svg>