<svg version="1.1" id="Layer_1" xmlns="http://www.w3.org/2000/svg" xmlns:xlink="http://www.w3.org/1999/xlink" x="0px" y="0px"
	 width="100%" viewBox="0 0 300 168" enable-background="new 0 0 300 168" xml:space="preserve">
<path fill="#76B901" opacity="1.000000" stroke="none" 
	d="
M178.000000,169.000000 
	C118.666672,169.000000 59.833347,169.000000 1.000016,169.000000 
	C1.000010,113.000015 1.000010,57.000027 1.000005,1.000031 
	C100.999969,1.000021 200.999939,1.000021 300.999939,1.000010 
	C300.999939,56.999969 300.999939,112.999939 300.999969,168.999954 
	C260.166656,169.000000 219.333328,169.000000 178.000000,169.000000 
M140.015808,138.994278 
	C142.136307,138.994278 144.256821,138.994278 146.613510,138.994278 
	C146.613510,130.150192 146.613510,121.741165 146.613510,113.013016 
	C143.947403,113.013016 141.497910,113.013016 138.597321,113.705399 
	C138.777496,122.120377 138.957657,130.535355 140.015808,138.994278 
M125.484329,40.667023 
	C125.253387,40.677750 125.086220,40.786587 124.177956,40.951283 
	C117.465492,43.657177 110.346436,45.651165 104.119629,49.207432 
	C87.868813,58.488655 87.487633,62.202137 100.076622,76.536331 
	C107.756607,85.280983 116.898117,91.437614 129.136734,92.870972 
	C129.334045,95.371254 129.531357,97.871536 129.907288,100.267700 
	C129.907288,100.267700 129.612411,100.205231 130.553116,100.517036 
	C142.867233,100.545784 155.181610,100.634048 167.495407,100.583847 
	C176.796707,100.545921 186.097290,100.330963 195.282181,100.034668 
	C195.282181,100.034668 195.250259,100.352455 195.708755,99.469315 
	C195.708755,76.756340 195.708755,54.043369 195.708755,31.213844 
	C173.321991,31.213844 151.371704,31.213844 129.007309,31.213844 
	C129.007309,34.439426 129.007309,37.243866 128.163452,40.120758 
	C127.358833,40.356472 126.554222,40.592182 125.484329,40.667023 
M161.420609,139.020416 
	C162.919571,139.012115 164.420853,139.055054 165.917084,138.986755 
	C172.822067,138.671539 176.299744,134.904022 176.768723,127.276230 
	C177.228195,119.803047 173.775299,113.944847 167.676163,113.269928 
	C162.311829,112.676308 156.829865,113.145813 151.299683,113.145813 
	C151.299683,121.838173 151.299683,130.237808 151.299683,139.020584 
	C154.535233,139.020584 157.498947,139.020584 161.420609,139.020416 
M99.011269,121.759743 
	C99.521629,127.461441 100.031990,133.163132 100.526527,138.688049 
	C102.796425,138.688049 104.884727,138.688049 107.066315,138.688049 
	C107.066315,132.910675 107.299477,127.435211 106.999123,121.989166 
	C106.712967,116.800575 103.621338,113.463577 98.595375,113.139992 
	C92.850182,112.770088 87.062866,113.054321 81.081963,113.054321 
	C81.081963,121.777794 81.081963,130.170074 81.081963,138.760406 
	C83.551689,138.760406 85.783623,138.760406 88.615967,138.760406 
	C88.615967,132.142654 88.615967,125.758728 88.615967,118.182770 
	C92.525482,119.296967 95.558983,120.161499 99.011269,121.759743 
M198.666046,136.975815 
	C200.554550,134.435455 210.856766,133.183563 211.749527,135.686005 
	C213.678680,141.093460 217.502930,138.455490 221.210968,138.917038 
	C217.925934,130.611572 214.946548,122.709053 211.579208,114.975456 
	C211.090118,113.852142 208.731049,112.948517 207.260651,112.981598 
	C204.849106,113.035866 200.954620,113.231201 200.304855,114.605461 
	C196.635757,122.365791 193.747269,130.495193 190.129288,139.674835 
	C193.504059,138.875107 195.887070,138.310394 198.666046,136.975815 
M130.011063,131.662216 
	C132.008926,125.567719 134.006790,119.473213 136.084702,113.134529 
	C133.178650,113.134529 130.747574,113.134529 128.373245,113.134529 
	C126.429413,119.512161 124.568451,125.617912 122.360596,132.861816 
	C120.159409,125.476738 118.289230,119.202225 116.496262,113.186737 
	C113.594727,113.186737 111.197578,113.186737 108.404182,113.186737 
	C111.000069,121.176285 113.314941,128.798447 116.058731,136.262955 
	C116.523796,137.528168 118.727737,138.563248 120.309120,138.934586 
	C125.667267,140.192780 129.186417,138.304565 130.011063,131.662216 
M187.629242,123.551613 
	C187.629242,120.124779 187.629242,116.697952 187.629242,113.062798 
	C184.879776,113.062798 182.620300,113.062798 180.274170,113.062798 
	C180.274170,121.772552 180.274170,130.283859 180.274170,138.697083 
	C182.814377,138.697083 185.036606,138.697083 187.629211,138.697083 
	C187.629211,133.759155 187.629211,129.145966 187.629242,123.551613 
z"/>
<path fill="#FBFDF9" opacity="1.000000" stroke="none" 
	d="
M129.007309,40.048306 
	C129.007309,37.243866 129.007309,34.439426 129.007309,31.213844 
	C151.371704,31.213844 173.321991,31.213844 195.708755,31.213844 
	C195.708755,54.043369 195.708755,76.756340 195.485138,99.863770 
	C195.261505,100.258232 195.398193,100.194794 195.398193,100.194794 
	C186.097290,100.330963 176.796707,100.545921 167.495407,100.583847 
	C155.181610,100.634048 142.867233,100.545784 130.125671,100.367798 
	C129.698227,100.218552 129.728683,100.371819 129.728683,100.371819 
	C129.531357,97.871536 129.334045,95.371254 129.049606,92.427063 
	C128.962479,91.983147 128.929260,92.040802 129.400833,92.042465 
	C150.743744,92.630852 169.565872,86.428642 187.991089,75.075027 
	C183.172623,72.316628 179.358749,70.133316 175.424225,67.880951 
	C162.236755,80.036957 147.535828,88.104034 129.151917,87.123734 
	C129.122543,86.905586 129.048691,86.471581 129.103500,86.006683 
	C129.324585,84.013367 129.490875,82.484940 129.620255,80.968277 
	C129.583359,80.980034 129.531815,81.037834 130.018555,81.053276 
	C148.335449,82.349525 159.459396,71.185448 170.880066,59.784153 
	C159.526398,46.740707 145.959000,39.662014 128.926468,39.965649 
	C128.947937,39.998062 129.007309,40.048306 129.007309,40.048306 
z"/>
<path fill="#F9FCF6" opacity="1.000000" stroke="none" 
	d="
M129.048691,86.471581 
	C129.048691,86.471581 129.122543,86.905586 129.268005,87.510521 
	C129.252060,89.423904 129.090652,90.732353 128.929260,92.040802 
	C128.929260,92.040802 128.962479,91.983147 128.985474,91.959114 
	C116.898117,91.437614 107.756607,85.280983 100.076622,76.536331 
	C87.487633,62.202137 87.868813,58.488655 104.119629,49.207432 
	C110.346436,45.651165 117.465492,43.657177 124.711143,40.959164 
	C125.417183,40.936749 125.585609,40.890366 125.749603,40.827896 
	C126.554222,40.592182 127.358833,40.356472 128.585388,40.084534 
	C129.007309,40.048306 128.947937,39.998062 129.154037,40.292580 
	C129.285919,41.891853 129.211716,43.196609 129.123749,44.757065 
	C129.100433,45.181816 129.090881,45.350868 128.649017,45.574593 
	C118.006073,46.417103 109.686897,50.996979 102.944908,58.512115 
	C102.065300,59.492596 101.357468,61.471706 101.732887,62.602074 
	C105.238113,73.156128 116.086243,85.887344 129.048691,86.471581 
z"/>
<path fill="#F9FCF6" opacity="1.000000" stroke="none" 
	d="
M160.941650,139.020508 
	C157.498947,139.020584 154.535233,139.020584 151.299683,139.020584 
	C151.299683,130.237808 151.299683,121.838173 151.299683,113.145813 
	C156.829865,113.145813 162.311829,112.676308 167.676163,113.269928 
	C173.775299,113.944847 177.228195,119.803047 176.768723,127.276230 
	C176.299744,134.904022 172.822067,138.671539 165.917084,138.986755 
	C164.420853,139.055054 162.919571,139.012115 160.941650,139.020508 
M158.858917,132.253555 
	C162.129562,134.031311 165.747620,133.917953 167.485336,130.839783 
	C168.815109,128.484253 169.337021,124.256584 168.056915,122.220490 
	C166.621643,119.937576 162.753754,119.184059 158.743942,117.158821 
	C158.743942,123.161720 158.743942,127.235481 158.858917,132.253555 
z"/>
<path fill="#FEFFFE" opacity="1.000000" stroke="none" 
	d="
M98.801880,121.392891 
	C95.558983,120.161499 92.525482,119.296967 88.615967,118.182770 
	C88.615967,125.758728 88.615967,132.142654 88.615967,138.760406 
	C85.783623,138.760406 83.551689,138.760406 81.081963,138.760406 
	C81.081963,130.170074 81.081963,121.777794 81.081963,113.054321 
	C87.062866,113.054321 92.850182,112.770088 98.595375,113.139992 
	C103.621338,113.463577 106.712967,116.800575 106.999123,121.989166 
	C107.299477,127.435211 107.066315,132.910675 107.066315,138.688049 
	C104.884727,138.688049 102.796425,138.688049 100.526527,138.688049 
	C100.031990,133.163132 99.521629,127.461441 98.801880,121.392891 
z"/>
<path fill="#F9FCF6" opacity="1.000000" stroke="none" 
	d="
M198.468063,137.360748 
	C195.887070,138.310394 193.504059,138.875107 190.129288,139.674835 
	C193.747269,130.495193 196.635757,122.365791 200.304855,114.605461 
	C200.954620,113.231201 204.849106,113.035866 207.260651,112.981598 
	C208.731049,112.948517 211.090118,113.852142 211.579208,114.975456 
	C214.946548,122.709053 217.925934,130.611572 221.210968,138.917038 
	C217.502930,138.455490 213.678680,141.093460 211.749527,135.686005 
	C210.856766,133.183563 200.554550,134.435455 198.468063,137.360748 
M203.625885,123.282051 
	C202.858749,125.352005 202.091629,127.421959 201.246292,129.702942 
	C204.457993,129.702942 207.021988,129.702942 209.989380,129.702942 
	C208.526474,125.832298 207.190079,122.296425 205.584305,118.047844 
	C204.794952,120.156258 204.336166,121.381691 203.625885,123.282051 
z"/>
<path fill="#FBFDF8" opacity="1.000000" stroke="none" 
	d="
M129.938126,132.056610 
	C129.186417,138.304565 125.667267,140.192780 120.309120,138.934586 
	C118.727737,138.563248 116.523796,137.528168 116.058731,136.262955 
	C113.314941,128.798447 111.000069,121.176285 108.404182,113.186737 
	C111.197578,113.186737 113.594727,113.186737 116.496262,113.186737 
	C118.289230,119.202225 120.159409,125.476738 122.360596,132.861816 
	C124.568451,125.617912 126.429413,119.512161 128.373245,113.134529 
	C130.747574,113.134529 133.178650,113.134529 136.084702,113.134529 
	C134.006790,119.473213 132.008926,125.567719 129.938126,132.056610 
z"/>
<path fill="#F6FAF1" opacity="1.000000" stroke="none" 
	d="
M187.629227,124.042191 
	C187.629211,129.145966 187.629211,133.759155 187.629211,138.697083 
	C185.036606,138.697083 182.814377,138.697083 180.274170,138.697083 
	C180.274170,130.283859 180.274170,121.772552 180.274170,113.062798 
	C182.620300,113.062798 184.879776,113.062798 187.629242,113.062798 
	C187.629242,116.697952 187.629242,120.124779 187.629227,124.042191 
z"/>
<path fill="#F9FCF4" opacity="1.000000" stroke="none" 
	d="
M139.048431,113.013016 
	C141.497910,113.013016 143.947403,113.013016 146.613510,113.013016 
	C146.613510,121.741165 146.613510,130.150192 146.613510,138.994278 
	C144.256821,138.994278 142.136307,138.994278 139.531494,138.509155 
	C139.047607,129.687012 139.048019,121.350014 139.048431,113.013016 
z"/>
<path fill="#69B300" opacity="1.000000" stroke="none" 
	d="
M138.822876,113.359207 
	C139.048019,121.350014 139.047607,129.687012 139.092499,138.487183 
	C138.957657,130.535355 138.777496,122.120377 138.822876,113.359207 
z"/>
<path fill="#F7FBF3" opacity="1.000000" stroke="none" 
	d="
M125.616966,40.747459 
	C125.585609,40.890366 125.417183,40.936749 125.113571,40.980289 
	C125.086220,40.786587 125.253387,40.677750 125.616966,40.747459 
z"/>
<path fill="#F7FBF3" opacity="1.000000" stroke="none" 
	d="
M195.340179,100.114731 
	C195.398193,100.194794 195.261505,100.258232 195.255890,100.305344 
	C195.250259,100.352455 195.282181,100.034668 195.340179,100.114731 
z"/>
<path fill="#F7FBF3" opacity="1.000000" stroke="none" 
	d="
M129.817993,100.319763 
	C129.728683,100.371819 129.698227,100.218552 129.655319,100.211891 
	C129.612411,100.205231 129.907288,100.267700 129.817993,100.319763 
z"/>
<path fill="#76B906" opacity="1.000000" stroke="none" 
	d="
M129.137497,44.501362 
	C129.211716,43.196609 129.285919,41.891853 129.132568,40.260170 
	C145.959000,39.662014 159.526398,46.740707 170.880066,59.784153 
	C159.459396,71.185448 148.335449,82.349525 130.010895,80.628799 
	C129.986252,78.987915 130.456009,77.786957 131.337677,76.762421 
	C144.879074,77.469086 152.336441,68.801094 159.995285,60.095650 
	C159.164459,59.060738 158.680176,58.397919 158.135986,57.788616 
	C150.407349,49.135357 140.580582,45.052586 129.137497,44.501362 
z"/>
<path fill="#78BA09" opacity="1.000000" stroke="none" 
	d="
M129.400833,92.042465 
	C129.090652,90.732353 129.252060,89.423904 129.297379,87.728668 
	C147.535828,88.104034 162.236755,80.036957 175.424225,67.880951 
	C179.358749,70.133316 183.172623,72.316628 187.991089,75.075027 
	C169.565872,86.428642 150.743744,92.630852 129.400833,92.042465 
z"/>
<path fill="#76B906" opacity="1.000000" stroke="none" 
	d="
M129.103500,86.006683 
	C116.086243,85.887344 105.238113,73.156128 101.732887,62.602074 
	C101.357468,61.471706 102.065300,59.492596 102.944908,58.512115 
	C109.686897,50.996979 118.006073,46.417103 128.688248,46.035759 
	C129.101501,47.978615 129.043198,49.514977 128.657654,51.255077 
	C122.018974,52.575623 115.982529,54.444260 111.286316,59.032574 
	C110.162766,60.130310 108.990868,62.518188 109.448372,63.679642 
	C112.704155,71.945091 118.728859,80.210220 129.657150,80.956512 
	C129.490875,82.484940 129.324585,84.013367 129.103500,86.006683 
z"/>
<path fill="#F7FBF3" opacity="1.000000" stroke="none" 
	d="
M129.620255,80.968277 
	C118.728859,80.210220 112.704155,71.945091 109.448372,63.679642 
	C108.990868,62.518188 110.162766,60.130310 111.286316,59.032574 
	C115.982529,54.444260 122.018974,52.575623 128.629700,51.221603 
	C128.928940,50.984398 128.912735,50.898487 129.162521,51.279419 
	C129.298386,53.451027 129.184464,55.241707 128.674881,57.024689 
	C126.242477,57.611729 124.051231,57.906063 122.198662,58.858883 
	C117.130806,61.465397 116.549957,63.005558 120.022797,67.634094 
	C122.424690,70.835312 125.923553,73.213455 129.196487,75.983047 
	C129.949081,76.199791 130.437408,76.392891 130.925751,76.585991 
	C130.456009,77.786957 129.986252,78.987915 129.524155,80.613358 
	C129.531815,81.037834 129.583359,80.980034 129.620255,80.968277 
z"/>
<path fill="#FAFCF7" opacity="1.000000" stroke="none" 
	d="
M131.337677,76.762421 
	C130.437408,76.392891 129.949081,76.199791 129.263535,75.521957 
	C129.173767,69.361633 129.281204,63.686050 129.773804,58.004349 
	C130.930878,57.952549 131.702835,57.906864 132.810089,57.895363 
	C136.138931,60.783428 139.132462,63.637318 142.338516,66.693810 
	C144.719009,64.672058 147.452271,62.350708 151.137650,59.220734 
	C146.611954,56.644138 142.997101,54.039619 138.977554,52.474472 
	C135.886703,51.270939 132.286453,51.375576 128.912735,50.898487 
	C128.912735,50.898487 128.928940,50.984398 128.956909,51.017868 
	C129.043198,49.514977 129.101501,47.978615 129.120575,45.981083 
	C129.090881,45.350868 129.100433,45.181816 129.123749,44.757065 
	C140.580582,45.052586 150.407349,49.135357 158.135986,57.788616 
	C158.680176,58.397919 159.164459,59.060738 159.995285,60.095650 
	C152.336441,68.801094 144.879074,77.469086 131.337677,76.762421 
z"/>
<path fill="#75B803" opacity="1.000000" stroke="none" 
	d="
M158.801422,131.781403 
	C158.743942,127.235481 158.743942,123.161720 158.743942,117.158821 
	C162.753754,119.184059 166.621643,119.937576 168.056915,122.220490 
	C169.337021,124.256584 168.815109,128.484253 167.485336,130.839783 
	C165.747620,133.917953 162.129562,134.031311 158.801422,131.781403 
z"/>
<path fill="#7BBC13" opacity="1.000000" stroke="none" 
	d="
M203.751633,122.944588 
	C204.336166,121.381691 204.794952,120.156258 205.584305,118.047844 
	C207.190079,122.296425 208.526474,125.832298 209.989380,129.702942 
	C207.021988,129.702942 204.457993,129.702942 201.246292,129.702942 
	C202.091629,127.421959 202.858749,125.352005 203.751633,122.944588 
z"/>
<path fill="#79BB0B" opacity="1.000000" stroke="none" 
	d="
M129.162521,51.279419 
	C132.286453,51.375576 135.886703,51.270939 138.977554,52.474472 
	C142.997101,54.039619 146.611954,56.644138 151.137650,59.220734 
	C147.452271,62.350708 144.719009,64.672058 142.338516,66.693810 
	C139.132462,63.637318 136.138931,60.783428 132.514923,57.649536 
	C130.889877,57.230015 129.895309,57.090496 128.950470,56.956169 
	C129.000183,56.961361 129.070541,57.032383 129.070541,57.032383 
	C129.184464,55.241707 129.298386,53.451027 129.162521,51.279419 
z"/>
<path fill="#76B904" opacity="1.000000" stroke="none" 
	d="
M129.388657,58.010468 
	C129.281204,63.686050 129.173767,69.361633 128.999283,75.498306 
	C125.923553,73.213455 122.424690,70.835312 120.022797,67.634094 
	C116.549957,63.005558 117.130806,61.465397 122.198662,58.858883 
	C124.051231,57.906063 126.242477,57.611729 128.674881,57.024689 
	C129.070541,57.032383 129.000183,56.961361 129.078369,57.218315 
	C129.233917,57.653667 129.311279,57.832066 129.388657,58.010468 
z"/>
<path fill="#F7FBF3" opacity="1.000000" stroke="none" 
	d="
M129.773804,58.004349 
	C129.311279,57.832066 129.233917,57.653667 129.028656,57.213120 
	C129.895309,57.090496 130.889877,57.230015 132.179611,57.615356 
	C131.702835,57.906864 130.930878,57.952549 129.773804,58.004349 
z"/>
</svg>