<?xml version="1.0" standalone="no"?>
<!DOCTYPE svg PUBLIC "-//W3C//DTD SVG 20010904//EN"
 "http://www.w3.org/TR/2001/REC-SVG-20010904/DTD/svg10.dtd">
<svg version="1.0" xmlns="http://www.w3.org/2000/svg"
 width="198.000000pt" height="254.000000pt" viewBox="0 0 198.000000 254.000000"
 preserveAspectRatio="xMidYMid meet">

<g transform="translate(0.000000,254.000000) scale(0.100000,-0.100000)"
fill="#000000" stroke="none">
<path d="M869 2530 c-410 -51 -738 -347 -841 -757 -20 -79 -23 -113 -22 -323
0 -206 2 -245 21 -320 73 -292 251 -519 509 -653 145 -75 238 -97 449 -108
218 -12 270 -20 349 -57 87 -41 158 -101 222 -187 67 -91 112 -118 199 -119
91 0 157 40 201 124 26 50 24 143 -4 197 -38 73 -144 195 -227 260 -195 154
-406 223 -689 223 -75 0 -140 6 -180 16 -187 48 -348 211 -395 399 -16 62 -16
381 -1 450 21 94 68 175 149 256 114 114 222 159 381 159 47 0 105 -5 130 -11
180 -41 352 -212 401 -399 7 -28 13 -180 16 -410 5 -326 7 -369 23 -400 80
-156 299 -162 388 -11 l27 46 0 390 c0 370 -2 395 -23 478 -76 304 -275 547
-550 674 -150 70 -369 104 -533 83z"/>
</g>
</svg>
