<?xml version="1.0" standalone="no"?>
<!DOCTYPE svg PUBLIC "-//W3C//DTD SVG 20010904//EN"
 "http://www.w3.org/TR/2001/REC-SVG-20010904/DTD/svg10.dtd">
<svg version="1.0" xmlns="http://www.w3.org/2000/svg"
 width="275.000000pt" height="183.000000pt" viewBox="0 0 275.000000 183.000000"
 preserveAspectRatio="xMidYMid meet">

<g transform="translate(0.000000,183.000000) scale(0.100000,-0.100000)"
fill="#000000" stroke="none">
<path d="M680 975 l0 -215 35 0 35 0 0 215 0 215 -35 0 -35 0 0 -215z"/>
<path d="M1547 1178 c-14 -11 -47 -86 -47 -108 0 -3 24 -5 54 -2 109 9 156
-29 156 -128 l0 -50 -100 0 -100 0 0 -30 c0 -36 26 -52 78 -48 27 2 40 9 47
26 7 16 18 22 42 22 30 0 33 -3 33 -30 0 -60 -61 -88 -168 -77 -61 7 -90 27
-107 78 -10 29 -12 26 -44 -72 -32 -98 -33 -103 -15 -116 14 -10 95 -13 382
-13 347 0 364 1 349 18 -8 9 -17 31 -19 47 -3 27 0 30 30 33 27 3 34 -1 42
-22 8 -22 16 -26 53 -26 53 0 67 13 67 61 l0 37 -44 -16 c-33 -12 -53 -14 -81
-7 -56 15 -79 51 -83 134 -5 76 9 129 38 156 28 25 100 31 138 11 18 -9 32
-12 32 -6 0 5 18 10 41 10 l41 0 -4 -189 c-3 -179 -4 -191 -25 -213 l-22 -23
124 3 c80 2 127 7 133 15 5 7 16 32 24 57 l15 45 -50 -4 c-66 -4 -123 14 -144
46 -25 38 -24 187 1 225 23 35 83 52 155 45 62 -7 90 -28 100 -78 6 -31 9 -27
44 74 21 59 35 111 32 117 -4 6 -132 10 -355 10 l-350 0 -2 -217 -3 -218 -33
-3 c-27 -3 -35 1 -39 17 -5 20 -5 20 -33 -1 -39 -29 -112 -21 -148 16 -23 23
-27 36 -30 102 -6 104 9 151 53 170 57 23 124 14 147 -20 4 -6 8 26 8 72 l0
82 -198 0 c-143 0 -203 -3 -215 -12z"/>
<path d="M73 1063 c-47 -6 -76 -47 -70 -97 8 -57 25 -68 111 -75 82 -7 99 -16
94 -52 -3 -22 -9 -24 -60 -27 -54 -3 -59 -1 -70 23 -9 19 -19 25 -45 25 -37 0
-42 -14 -18 -59 17 -33 38 -41 121 -41 108 0 144 23 144 95 0 56 -35 85 -104
85 -64 0 -106 14 -106 34 0 45 98 66 122 26 9 -13 24 -20 45 -20 40 0 43 18
11 54 -19 20 -35 26 -83 30 -33 2 -75 2 -92 -1z"/>
<path d="M400 1060 c-58 -14 -70 -39 -70 -146 0 -83 2 -96 24 -121 21 -24 32
-28 93 -31 83 -5 138 14 153 53 13 35 13 154 0 192 -6 17 -22 35 -36 42 -35
15 -122 22 -164 11z m130 -69 c5 -11 10 -47 10 -80 0 -80 -22 -106 -83 -98
-22 3 -44 11 -48 19 -13 20 -11 152 3 166 7 7 33 12 60 12 37 0 50 -4 58 -19z"/>
<path d="M888 1063 c-28 -4 -68 -45 -68 -69 0 -22 63 -17 83 6 18 21 70 27 96
11 7 -5 16 -30 19 -57 l5 -49 -23 20 c-17 15 -35 20 -83 19 -53 -1 -63 -4 -84
-28 -29 -34 -31 -94 -4 -127 24 -30 128 -40 166 -15 22 14 25 15 25 1 0 -11
10 -15 35 -15 l35 0 0 109 c0 116 -11 166 -41 181 -21 12 -122 20 -161 13z
m116 -179 c19 -18 20 -28 6 -55 -8 -15 -21 -19 -58 -19 -27 0 -53 5 -60 12
-18 18 -15 55 6 67 26 16 89 13 106 -5z"/>
<path d="M1270 1059 c-13 -6 -28 -15 -32 -22 -5 -8 -8 -6 -8 6 0 13 -8 17 -35
17 l-35 0 0 -150 0 -150 35 0 35 0 0 114 c0 125 6 140 57 134 22 -2 29 -9 31
-30 3 -25 8 -28 38 -28 32 0 34 2 34 34 0 61 -61 99 -120 75z"/>
<path d="M1522 998 c-7 -7 -12 -21 -12 -32 0 -19 5 -21 65 -18 66 4 73 9 55
43 -8 14 -21 19 -53 19 -24 0 -48 -5 -55 -12z"/>
<path d="M1846 994 c-12 -11 -16 -35 -16 -84 0 -78 13 -100 61 -100 48 0 69
30 69 100 0 47 -4 64 -20 80 -24 24 -72 26 -94 4z"/>
<path d="M2166 994 c-24 -24 -22 -145 2 -167 23 -21 61 -22 90 -1 19 13 22 24
22 83 0 53 -4 72 -18 84 -23 21 -76 22 -96 1z"/>
<path d="M2482 998 c-7 -7 -12 -21 -12 -32 0 -19 6 -21 65 -21 59 0 65 2 65
21 0 11 -5 25 -12 32 -16 16 -90 16 -106 0z"/>
<path d="M2470 866 c0 -38 26 -57 74 -54 31 2 43 8 51 26 6 13 18 22 32 22 14
0 23 6 23 15 0 12 -17 15 -90 15 -89 0 -90 0 -90 -24z"/>
</g>
</svg>
