<?xml version="1.0" standalone="no"?>
<!DOCTYPE svg PUBLIC "-//W3C//DTD SVG 20010904//EN"
 "http://www.w3.org/TR/2001/REC-SVG-20010904/DTD/svg10.dtd">
<svg version="1.0" xmlns="http://www.w3.org/2000/svg"
 width="198.000000pt" height="255.000000pt" viewBox="0 0 198.000000 255.000000"
 preserveAspectRatio="xMidYMid meet">

<g transform="translate(0.000000,255.000000) scale(0.100000,-0.100000)"
fill="#000000" stroke="none">
<path d="M860 2544 c-274 -24 -499 -70 -707 -147 l-61 -22 20 -49 c25 -56 8
-56 193 8 229 79 406 106 690 106 248 0 429 -26 639 -91 54 -17 122 -41 151
-54 l52 -23 22 44 c11 25 21 49 21 54 0 5 -64 30 -142 55 -147 47 -323 87
-463 104 -93 11 -350 21 -415 15z"/>
<path d="M595 2349 c-185 -32 -415 -107 -415 -134 0 -19 92 -99 154 -135 60
-33 76 -37 76 -15 0 8 13 30 30 48 35 41 76 53 206 63 l90 7 72 -399 c39 -220
95 -531 124 -691 29 -161 55 -290 59 -285 3 4 59 306 123 672 65 366 120 673
123 684 5 17 13 18 97 12 50 -4 108 -12 128 -17 40 -10 98 -53 98 -72 0 -7 4
-18 9 -26 7 -11 21 -7 71 20 62 33 160 116 160 136 0 25 -276 110 -450 138
-176 28 -165 32 -267 -94 -48 -61 -90 -110 -93 -110 -3 -1 -45 49 -94 109
l-90 110 -50 -1 c-28 0 -100 -9 -161 -20z"/>
<path d="M10 241 c0 -19 33 -34 78 -35 l47 -1 3 -102 c2 -94 4 -103 22 -103
18 0 20 9 22 103 l3 102 40 1 c52 1 82 11 89 29 5 13 -18 15 -149 15 -85 0
-155 -4 -155 -9z"/>
<path d="M465 230 c16 -18 31 -20 130 -20 99 0 114 2 130 20 18 20 17 20 -130
20 -147 0 -148 0 -130 -20z"/>
<path d="M890 174 l0 -75 113 2 112 2 3 -27 3 -26 -95 0 c-87 0 -97 -2 -123
-25 l-28 -24 143 -1 142 0 0 75 0 75 -116 0 -115 0 3 28 3 27 100 5 c55 3 106
9 113 13 32 21 4 27 -123 27 l-135 0 0 -76z"/>
<path d="M1310 125 l0 -125 118 0 c103 0 121 3 135 18 10 10 17 22 17 26 0 4
-50 6 -110 4 l-110 -3 0 103 0 102 -25 0 -25 0 0 -125z"/>
<path d="M1690 242 c0 -25 30 -32 140 -32 110 0 140 7 140 32 0 4 -63 8 -140
8 -77 0 -140 -4 -140 -8z"/>
<path d="M456 135 c11 -27 41 -35 133 -35 91 0 135 11 145 36 4 11 -21 14
-139 14 -125 0 -144 -2 -139 -15z"/>
<path d="M1690 75 c0 -73 1 -75 25 -75 23 0 25 3 25 50 l0 50 90 0 90 0 0 -50
c0 -47 2 -50 25 -50 24 0 25 2 25 75 l0 75 -140 0 -140 0 0 -75z"/>
<path d="M450 42 c0 -5 8 -16 18 -25 15 -14 40 -17 121 -17 104 0 134 7 145
35 5 13 -14 15 -139 15 -80 0 -145 -4 -145 -8z"/>
</g>
</svg>
