<?xml version="1.0" standalone="no"?>
<!DOCTYPE svg PUBLIC "-//W3C//DTD SVG 20010904//EN"
 "http://www.w3.org/TR/2001/REC-SVG-20010904/DTD/svg10.dtd">
<svg version="1.0" xmlns="http://www.w3.org/2000/svg"
 width="225.000000pt" height="225.000000pt" viewBox="0 0 225.000000 225.000000"
 preserveAspectRatio="xMidYMid meet">

<g transform="translate(0.000000,225.000000) scale(0.100000,-0.100000)"
fill="#000000" stroke="none">
<path d="M1030 2239 c-490 -34 -912 -411 -1004 -899 -21 -107 -21 -323 0 -430
84 -445 441 -800 892 -886 99 -19 318 -18 422 2 441 83 801 443 884 884 21
107 21 323 0 430 -61 322 -274 613 -564 769 -198 106 -391 146 -630 130z m341
-93 c176 -44 330 -124 445 -230 l49 -45 -732 -1 -733 0 1 -307 0 -308 22 75
c61 202 195 357 392 451 80 38 202 69 271 69 30 0 35 -3 30 -17 -6 -15 -557
-1066 -706 -1346 l-47 -88 -47 54 c-218 255 -296 629 -206 982 104 406 426
680 863 735 114 14 289 4 398 -24z m650 -471 c118 -192 174 -436 150 -656 -48
-431 -345 -786 -756 -904 -252 -72 -519 -48 -754 67 -85 42 -216 133 -260 182
l-24 26 721 0 722 0 -1 293 0 292 -18 -55 c-35 -112 -91 -201 -181 -291 -91
-91 -170 -143 -277 -178 -66 -22 -210 -47 -219 -38 -3 3 156 315 354 693 198
379 367 705 377 724 l18 35 49 -55 c27 -30 72 -91 99 -135z"/>
</g>
</svg>
